<?xml version="1.0" encoding="UTF-8" standalone="no"?>
<!DOCTYPE svg PUBLIC "-//W3C//DTD SVG 1.1//EN"
 "http://www.w3.org/Graphics/SVG/1.1/DTD/svg11.dtd">
<!-- Generated by graphviz version 2.26.3 (20100126.1600)
 -->
<!-- Title: G Pages: 1 -->
<svg width="780pt" height="620pt"
 viewBox="0.00 0.00 780.00 620.00" xmlns="http://www.w3.org/2000/svg" xmlns:xlink="http://www.w3.org/1999/xlink">
<g id="graph1" class="graph" transform="scale(1 1) rotate(0) translate(4 616)">
<title>G</title>
<polygon fill="white" stroke="white" points="-4,5 -4,-616 777,-616 777,5 -4,5"/>
<!-- Archivar_solicitud_procesada -->
<g id="node1" class="node"><title>Archivar_solicitud_procesada</title>
<polygon fill="#ffffff" stroke="black" points="192,-137 7.10543e-14,-137 0,-91 192,-91 192,-137"/>
<polygon fill="none" stroke="black" points="192,-137 7.10543e-14,-137 0,-91 192,-91 192,-137"/>
<text text-anchor="middle" x="96" y="-120.4" font-family="Helvetica,sans-Serif" font-size="14.00">Archivar_solicitud_procesada</text>
<text text-anchor="middle" x="96" y="-101.4" font-family="Helvetica,sans-Serif" font-size="14.00">solicitud_archivada</text>
</g>
<!-- final -->
<g id="node3" class="node"><title>final</title>
<ellipse fill="#ffffff" stroke="black" cx="427" cy="-18" rx="31.9646" ry="18"/>
<ellipse fill="none" stroke="black" cx="427" cy="-18" rx="31.9646" ry="18"/>
<text text-anchor="middle" x="427" y="-13.9" font-family="Times Roman,serif" font-size="14.00">final</text>
</g>
<!-- Archivar_solicitud_procesada&#45;&gt;final -->
<g id="edge2" class="edge"><title>Archivar_solicitud_procesada&#45;&gt;final</title>
<path fill="none" stroke="black" d="M175.704,-90.8834C243.135,-71.3264 336.831,-44.1517 388.664,-29.1186"/>
<polygon fill="black" stroke="black" points="389.823,-32.4268 398.452,-26.2797 387.873,-25.7038 389.823,-32.4268"/>
</g>
<!-- DireccionEjecutiva -->
<g id="node4" class="node"><title>DireccionEjecutiva</title>
<polygon fill="#ffffff" stroke="black" points="433,-329 267,-329 267,-283 433,-283 433,-329"/>
<polygon fill="none" stroke="black" points="433,-329 267,-329 267,-283 433,-283 433,-329"/>
<text text-anchor="middle" x="350" y="-312.4" font-family="Helvetica,sans-Serif" font-size="14.00">DireccionEjecutiva</text>
<text text-anchor="middle" x="350" y="-293.4" font-family="Helvetica,sans-Serif" font-size="14.00">Planilla vista_vacaciones</text>
</g>
<!-- Presidencia -->
<g id="node6" class="node"><title>Presidencia</title>
<polygon fill="#ffffff" stroke="#ffffff" points="274.5,-173.5 425.5,-173.5 437.5,-185.5 437.5,-234.5 425.5,-246.5 274.5,-246.5 262.5,-234.5 262.5,-185.5 274.5,-173.5"/>
<path fill="#ffffff" stroke="#ffffff" d="M425.5,-173.5C431.5,-173.5 437.5,-179.5 437.5,-185.5"/>
<path fill="#ffffff" stroke="#ffffff" d="M437.5,-234.5C437.5,-240.5 431.5,-246.5 425.5,-246.5"/>
<path fill="#ffffff" stroke="#ffffff" d="M274.5,-246.5C268.5,-246.5 262.5,-240.5 262.5,-234.5"/>
<path fill="#ffffff" stroke="#ffffff" d="M262.5,-185.5C262.5,-179.5 268.5,-173.5 274.5,-173.5"/>
<polyline fill="none" stroke="black" points="274.5,-173.5 425.5,-173.5 "/>
<path fill="none" stroke="black" d="M425.5,-173.5C431.5,-173.5 437.5,-179.5 437.5,-185.5"/>
<polyline fill="none" stroke="black" points="437.5,-185.5 437.5,-234.5 "/>
<path fill="none" stroke="black" d="M437.5,-234.5C437.5,-240.5 431.5,-246.5 425.5,-246.5"/>
<polyline fill="none" stroke="black" points="425.5,-246.5 274.5,-246.5 "/>
<path fill="none" stroke="black" d="M274.5,-246.5C268.5,-246.5 262.5,-240.5 262.5,-234.5"/>
<polyline fill="none" stroke="black" points="262.5,-234.5 262.5,-185.5 "/>
<path fill="none" stroke="black" d="M262.5,-185.5C262.5,-179.5 268.5,-173.5 274.5,-173.5"/>
<text text-anchor="middle" x="350" y="-229.9" font-family="Helvetica,sans-Serif" font-size="14.00">Presidencia</text>
<text text-anchor="middle" x="350" y="-210.9" font-family="Helvetica,sans-Serif" font-size="14.00">Aprobacion del Presidente</text>
<polyline fill="none" stroke="black" points="262.5,-200.5 437.5,-200.5 "/>
<text text-anchor="middle" x="350" y="-183.9" font-family="Helvetica,sans-Serif" font-size="14.00">or</text>
</g>
<!-- DireccionEjecutiva&#45;&gt;Presidencia -->
<g id="edge4" class="edge"><title>DireccionEjecutiva&#45;&gt;Presidencia</title>
<path fill="none" stroke="black" d="M350,-282.761C350,-274.859 350,-265.724 350,-256.652"/>
<polygon fill="black" stroke="black" points="353.5,-256.507 350,-246.507 346.5,-256.507 353.5,-256.507"/>
</g>
<!-- Presidencia&#45;&gt;Archivar_solicitud_procesada -->
<g id="edge14" class="edge"><title>Presidencia&#45;&gt;Archivar_solicitud_procesada</title>
<path fill="none" stroke="black" d="M262.232,-176.828C230.919,-164.993 196.079,-151.825 166.415,-140.614"/>
<polygon fill="black" stroke="black" points="167.569,-137.308 156.977,-137.046 165.094,-143.856 167.569,-137.308"/>
</g>
<!-- Firmada_direccion -->
<g id="node7" class="node"><title>Firmada_direccion</title>
<polygon fill="#ffffff" stroke="black" points="338,-137 210,-137 210,-91 338,-91 338,-137"/>
<polygon fill="none" stroke="black" points="338,-137 210,-137 210,-91 338,-91 338,-137"/>
<text text-anchor="middle" x="274" y="-120.4" font-family="Helvetica,sans-Serif" font-size="14.00">Firmada_direccion</text>
<text text-anchor="middle" x="274" y="-101.4" font-family="Helvetica,sans-Serif" font-size="14.00">firmada_YV</text>
</g>
<!-- Presidencia&#45;&gt;Firmada_direccion -->
<g id="edge18" class="edge"><title>Presidencia&#45;&gt;Firmada_direccion</title>
<path fill="none" stroke="black" d="M321.051,-173.433C313.664,-164.102 305.793,-154.159 298.644,-145.129"/>
<polygon fill="black" stroke="black" points="301.268,-142.805 292.316,-137.137 295.779,-147.15 301.268,-142.805"/>
</g>
<!-- Firmada_presidencia -->
<g id="node9" class="node"><title>Firmada_presidencia</title>
<polygon fill="#ffffff" stroke="black" points="498,-137 356,-137 356,-91 498,-91 498,-137"/>
<polygon fill="none" stroke="black" points="498,-137 356,-137 356,-91 498,-91 498,-137"/>
<text text-anchor="middle" x="427" y="-120.4" font-family="Helvetica,sans-Serif" font-size="14.00">Firmada_presidencia</text>
<text text-anchor="middle" x="427" y="-101.4" font-family="Helvetica,sans-Serif" font-size="14.00">firmada_JJ</text>
</g>
<!-- Presidencia&#45;&gt;Firmada_presidencia -->
<g id="edge20" class="edge"><title>Presidencia&#45;&gt;Firmada_presidencia</title>
<path fill="none" stroke="black" d="M379.33,-173.433C386.814,-164.102 394.789,-154.159 402.032,-145.129"/>
<polygon fill="black" stroke="black" points="404.916,-147.127 408.443,-137.137 399.455,-142.747 404.916,-147.127"/>
</g>
<!-- Firmada_talento -->
<g id="node11" class="node"><title>Firmada_talento</title>
<polygon fill="#ffffff" stroke="black" points="630,-137 516,-137 516,-91 630,-91 630,-137"/>
<polygon fill="none" stroke="black" points="630,-137 516,-137 516,-91 630,-91 630,-137"/>
<text text-anchor="middle" x="573" y="-120.4" font-family="Helvetica,sans-Serif" font-size="14.00">Firmada_talento</text>
<text text-anchor="middle" x="573" y="-101.4" font-family="Helvetica,sans-Serif" font-size="14.00">firmada_EE</text>
</g>
<!-- Presidencia&#45;&gt;Firmada_talento -->
<g id="edge16" class="edge"><title>Presidencia&#45;&gt;Firmada_talento</title>
<path fill="none" stroke="black" d="M434.943,-173.433C459.824,-162.721 486.579,-151.204 509.85,-141.186"/>
<polygon fill="black" stroke="black" points="511.454,-144.306 519.256,-137.137 508.687,-137.876 511.454,-144.306"/>
</g>
<!-- Firmada_direccion&#45;&gt;final -->
<g id="edge6" class="edge"><title>Firmada_direccion&#45;&gt;final</title>
<path fill="none" stroke="black" d="M311.037,-90.7611C337.345,-74.2542 372.227,-52.3673 396.84,-36.9239"/>
<polygon fill="black" stroke="black" points="398.798,-39.8274 405.408,-31.5477 395.078,-33.8979 398.798,-39.8274"/>
</g>
<!-- Firmada_presidencia&#45;&gt;final -->
<g id="edge8" class="edge"><title>Firmada_presidencia&#45;&gt;final</title>
<path fill="none" stroke="black" d="M427,-90.7611C427,-77.4068 427,-60.5313 427,-46.3951"/>
<polygon fill="black" stroke="black" points="430.5,-46.2227 427,-36.2227 423.5,-46.2227 430.5,-46.2227"/>
</g>
<!-- Firmada_talento&#45;&gt;final -->
<g id="edge10" class="edge"><title>Firmada_talento&#45;&gt;final</title>
<path fill="none" stroke="black" d="M537.657,-90.7611C512.813,-74.425 479.955,-52.8197 456.512,-37.4054"/>
<polygon fill="black" stroke="black" points="458.304,-34.3944 448.025,-31.8247 454.458,-40.2433 458.304,-34.3944"/>
</g>
<!-- Por_usuario -->
<g id="node13" class="node"><title>Por_usuario</title>
<polygon fill="#ffffff" stroke="black" points="394,-521 306,-521 306,-475 394,-475 394,-521"/>
<polygon fill="none" stroke="black" points="394,-521 306,-521 306,-475 394,-475 394,-521"/>
<text text-anchor="middle" x="350" y="-504.4" font-family="Helvetica,sans-Serif" font-size="14.00">Por_usuario</text>
<text text-anchor="middle" x="350" y="-485.4" font-family="Helvetica,sans-Serif" font-size="14.00">todas</text>
</g>
<!-- Talento_humano -->
<g id="node15" class="node"><title>Talento_humano</title>
<polygon fill="#ffffff" stroke="black" points="433,-425 267,-425 267,-379 433,-379 433,-425"/>
<polygon fill="none" stroke="black" points="433,-425 267,-425 267,-379 433,-379 433,-425"/>
<text text-anchor="middle" x="350" y="-408.4" font-family="Helvetica,sans-Serif" font-size="14.00">Talento_humano</text>
<text text-anchor="middle" x="350" y="-389.4" font-family="Helvetica,sans-Serif" font-size="14.00">Planilla vista_vacaciones</text>
</g>
<!-- Por_usuario&#45;&gt;Talento_humano -->
<g id="edge12" class="edge"><title>Por_usuario&#45;&gt;Talento_humano</title>
<path fill="none" stroke="black" d="M350,-474.761C350,-462.851 350,-448.141 350,-435.071"/>
<polygon fill="black" stroke="black" points="353.5,-435.025 350,-425.025 346.5,-435.025 353.5,-435.025"/>
</g>
<!-- Talento_humano&#45;&gt;DireccionEjecutiva -->
<g id="edge22" class="edge"><title>Talento_humano&#45;&gt;DireccionEjecutiva</title>
<path fill="none" stroke="black" d="M350,-378.761C350,-366.851 350,-352.141 350,-339.071"/>
<polygon fill="black" stroke="black" points="353.5,-339.025 350,-329.025 346.5,-339.025 353.5,-339.025"/>
</g>
<!-- inicial -->
<g id="node21" class="node"><title>inicial</title>
<ellipse fill="#ffffff" stroke="black" cx="350" cy="-594" rx="38.9134" ry="18"/>
<ellipse fill="none" stroke="black" cx="350" cy="-594" rx="38.9134" ry="18"/>
<text text-anchor="middle" x="350" y="-589.9" font-family="Times Roman,serif" font-size="14.00">inicial</text>
</g>
<!-- inicial&#45;&gt;Por_usuario -->
<g id="edge24" class="edge"><title>inicial&#45;&gt;Por_usuario</title>
<path fill="none" stroke="black" d="M350,-575.943C350,-563.443 350,-546.433 350,-531.492"/>
<polygon fill="black" stroke="black" points="353.5,-531.073 350,-521.073 346.5,-531.073 353.5,-531.073"/>
</g>
<!-- final_stats -->
<g id="node23" class="node"><title>final_stats</title>
<polygon fill="none" stroke="black" stroke-dasharray="5,2" points="772,-135 648,-135 648,-93 772,-93 772,-135"/>
<text text-anchor="start" x="656" y="-120.733" font-family="Times Roman,serif" font-size="14.00">Suma total: 0%</text>
<text text-anchor="start" x="705" y="-103.933" font-family="Times Roman,serif" font-size="14.00"> &#160;</text>
</g>
<!-- final_stats&#45;&gt;final -->
<g id="edge26" class="edge"><title>final_stats&#45;&gt;final</title>
<path fill="none" stroke="black" stroke-dasharray="1,5" d="M647.894,-92.9324C591.808,-73.9067 511.117,-46.5345 464.374,-30.6782"/>
<polygon fill="black" stroke="black" points="465.251,-27.2797 454.657,-27.3817 463.002,-33.9087 465.251,-27.2797"/>
</g>
</g>
</svg>
