<?xml version="1.0" encoding="UTF-8" standalone="no"?>
<!DOCTYPE svg PUBLIC "-//W3C//DTD SVG 1.1//EN"
 "http://www.w3.org/Graphics/SVG/1.1/DTD/svg11.dtd">
<!-- Generated by graphviz version 2.26.3 (20100126.1600)
 -->
<!-- Title: G Pages: 1 -->
<svg width="1795pt" height="371pt"
 viewBox="0.00 0.00 1795.00 371.00" xmlns="http://www.w3.org/2000/svg" xmlns:xlink="http://www.w3.org/1999/xlink">
<g id="graph1" class="graph" transform="scale(1 1) rotate(0) translate(4 367)">
<title>G</title>
<polygon fill="white" stroke="white" points="-4,5 -4,-367 1792,-367 1792,5 -4,5"/>
<!-- Aprobada -->
<g id="node1" class="node"><title>Aprobada</title>
<polygon fill="#ffff80" stroke="#ffff80" points="947.5,-209 1058.5,-209 1070.5,-221 1070.5,-243 1058.5,-255 947.5,-255 935.5,-243 935.5,-221 947.5,-209"/>
<path fill="#ffff80" stroke="#ffff80" d="M1058.5,-209C1064.5,-209 1070.5,-215 1070.5,-221"/>
<path fill="#ffff80" stroke="#ffff80" d="M1070.5,-243C1070.5,-249 1064.5,-255 1058.5,-255"/>
<path fill="#ffff80" stroke="#ffff80" d="M947.5,-255C941.5,-255 935.5,-249 935.5,-243"/>
<path fill="#ffff80" stroke="#ffff80" d="M935.5,-221C935.5,-215 941.5,-209 947.5,-209"/>
<polyline fill="none" stroke="black" points="947.5,-209 1058.5,-209 "/>
<path fill="none" stroke="black" d="M1058.5,-209C1064.5,-209 1070.5,-215 1070.5,-221"/>
<polyline fill="none" stroke="black" points="1070.5,-221 1070.5,-243 "/>
<path fill="none" stroke="black" d="M1070.5,-243C1070.5,-249 1064.5,-255 1058.5,-255"/>
<polyline fill="none" stroke="black" points="1058.5,-255 947.5,-255 "/>
<path fill="none" stroke="black" d="M947.5,-255C941.5,-255 935.5,-249 935.5,-243"/>
<polyline fill="none" stroke="black" points="935.5,-243 935.5,-221 "/>
<path fill="none" stroke="black" d="M935.5,-221C935.5,-215 941.5,-209 947.5,-209"/>
<text text-anchor="middle" x="988.5" y="-238.4" font-family="Helvetica,sans-Serif" font-size="14.00">Aprobada</text>
<text text-anchor="middle" x="988.5" y="-219.4" font-family="Helvetica,sans-Serif" font-size="14.00">Aprobar_Actas</text>
<polyline fill="none" stroke="black" points="1041.5,-209 1041.5,-255 "/>
<text text-anchor="middle" x="1056" y="-228.9" font-family="Helvetica,sans-Serif" font-size="14.00">or</text>
</g>
<!-- firma_presidente -->
<g id="node3" class="node"><title>firma_presidente</title>
<polygon fill="#ffffff" stroke="black" points="1252,-356 1130,-356 1130,-310 1252,-310 1252,-356"/>
<polygon fill="none" stroke="black" points="1252,-356 1130,-356 1130,-310 1252,-310 1252,-356"/>
<text text-anchor="middle" x="1191" y="-339.4" font-family="Helvetica,sans-Serif" font-size="14.00">firma_presidente</text>
<text text-anchor="middle" x="1191" y="-320.4" font-family="Helvetica,sans-Serif" font-size="14.00">Firma_presidente</text>
</g>
<!-- Aprobada&#45;&gt;firma_presidente -->
<g id="edge2" class="edge"><title>Aprobada&#45;&gt;firma_presidente</title>
<path fill="none" stroke="black" d="M1054.77,-255.108C1060.33,-257.957 1065.83,-260.947 1071,-264 1095.11,-278.247 1097.85,-286.821 1122,-301 1124.46,-302.442 1126.99,-303.868 1129.56,-305.27"/>
<polygon fill="black" stroke="black" points="1127.98,-308.389 1138.46,-309.937 1131.23,-302.191 1127.98,-308.389"/>
</g>
<!-- firma_Consejeros_2 -->
<g id="node5" class="node"><title>firma_Consejeros_2</title>
<polygon fill="#ffffff" stroke="black" points="1260,-292 1122,-292 1122,-246 1260,-246 1260,-292"/>
<polygon fill="none" stroke="black" points="1260,-292 1122,-292 1122,-246 1260,-246 1260,-292"/>
<text text-anchor="middle" x="1191" y="-275.4" font-family="Helvetica,sans-Serif" font-size="14.00">firma_Consejeros_2</text>
<text text-anchor="middle" x="1191" y="-256.4" font-family="Helvetica,sans-Serif" font-size="14.00">Firma_Consejero_2</text>
</g>
<!-- Aprobada&#45;&gt;firma_Consejeros_2 -->
<g id="edge4" class="edge"><title>Aprobada&#45;&gt;firma_Consejeros_2</title>
<path fill="none" stroke="black" d="M1070.61,-245.306C1083.99,-247.94 1098.15,-250.727 1111.88,-253.428"/>
<polygon fill="black" stroke="black" points="1111.29,-256.88 1121.78,-255.377 1112.64,-250.011 1111.29,-256.88"/>
</g>
<!-- firma_Consejeros_1 -->
<g id="node7" class="node"><title>firma_Consejeros_1</title>
<polygon fill="#ffffff" stroke="black" points="1260,-228 1122,-228 1122,-182 1260,-182 1260,-228"/>
<polygon fill="none" stroke="black" points="1260,-228 1122,-228 1122,-182 1260,-182 1260,-228"/>
<text text-anchor="middle" x="1191" y="-211.4" font-family="Helvetica,sans-Serif" font-size="14.00">firma_Consejeros_1</text>
<text text-anchor="middle" x="1191" y="-192.4" font-family="Helvetica,sans-Serif" font-size="14.00">Firma_Consejero_1</text>
</g>
<!-- Aprobada&#45;&gt;firma_Consejeros_1 -->
<g id="edge6" class="edge"><title>Aprobada&#45;&gt;firma_Consejeros_1</title>
<path fill="none" stroke="black" d="M1070.61,-222.291C1083.99,-220.368 1098.15,-218.335 1111.88,-216.363"/>
<polygon fill="black" stroke="black" points="1112.38,-219.827 1121.78,-214.941 1111.38,-212.899 1112.38,-219.827"/>
</g>
<!-- firma_Consejeros_4 -->
<g id="node9" class="node"><title>firma_Consejeros_4</title>
<polygon fill="#ffffff" stroke="black" points="1260,-164 1122,-164 1122,-118 1260,-118 1260,-164"/>
<polygon fill="none" stroke="black" points="1260,-164 1122,-164 1122,-118 1260,-118 1260,-164"/>
<text text-anchor="middle" x="1191" y="-147.4" font-family="Helvetica,sans-Serif" font-size="14.00">firma_Consejeros_4</text>
<text text-anchor="middle" x="1191" y="-128.4" font-family="Helvetica,sans-Serif" font-size="14.00">Firma_Consejero_4</text>
</g>
<!-- Aprobada&#45;&gt;firma_Consejeros_4 -->
<g id="edge8" class="edge"><title>Aprobada&#45;&gt;firma_Consejeros_4</title>
<path fill="none" stroke="black" d="M1052.89,-208.85C1059.01,-205.913 1065.16,-202.916 1071,-200 1093.94,-188.537 1099.03,-184.399 1122,-173 1124.96,-171.533 1127.99,-170.047 1131.07,-168.56"/>
<polygon fill="black" stroke="black" points="1132.85,-171.589 1140.36,-164.114 1129.83,-165.275 1132.85,-171.589"/>
</g>
<!-- firma_Consejeros_3 -->
<g id="node11" class="node"><title>firma_Consejeros_3</title>
<polygon fill="#ffffff" stroke="black" points="1260,-100 1122,-100 1122,-54 1260,-54 1260,-100"/>
<polygon fill="none" stroke="black" points="1260,-100 1122,-100 1122,-54 1260,-54 1260,-100"/>
<text text-anchor="middle" x="1191" y="-83.4" font-family="Helvetica,sans-Serif" font-size="14.00">firma_Consejeros_3</text>
<text text-anchor="middle" x="1191" y="-64.4" font-family="Helvetica,sans-Serif" font-size="14.00">Firma_Consejero_3</text>
</g>
<!-- Aprobada&#45;&gt;firma_Consejeros_3 -->
<g id="edge10" class="edge"><title>Aprobada&#45;&gt;firma_Consejeros_3</title>
<path fill="none" stroke="black" d="M1059.73,-208.813C1063.75,-206.135 1067.56,-203.201 1071,-200 1104.93,-168.4 1087.99,-140.505 1122,-109 1123.09,-107.991 1124.22,-107.008 1125.38,-106.052"/>
<polygon fill="black" stroke="black" points="1127.46,-108.868 1133.44,-100.123 1123.31,-103.229 1127.46,-108.868"/>
</g>
<!-- Pasar_libro -->
<g id="node24" class="node"><title>Pasar_libro</title>
<polygon fill="#ffffd4" stroke="#ffffd4" points="1308.5,-150 1449.5,-150 1461.5,-162 1461.5,-184 1449.5,-196 1308.5,-196 1296.5,-184 1296.5,-162 1308.5,-150"/>
<path fill="#ffffd4" stroke="#ffffd4" d="M1449.5,-150C1455.5,-150 1461.5,-156 1461.5,-162"/>
<path fill="#ffffd4" stroke="#ffffd4" d="M1461.5,-184C1461.5,-190 1455.5,-196 1449.5,-196"/>
<path fill="#ffffd4" stroke="#ffffd4" d="M1308.5,-196C1302.5,-196 1296.5,-190 1296.5,-184"/>
<path fill="#ffffd4" stroke="#ffffd4" d="M1296.5,-162C1296.5,-156 1302.5,-150 1308.5,-150"/>
<polyline fill="none" stroke="black" points="1308.5,-150 1449.5,-150 "/>
<path fill="none" stroke="black" d="M1449.5,-150C1455.5,-150 1461.5,-156 1461.5,-162"/>
<polyline fill="none" stroke="black" points="1461.5,-162 1461.5,-184 "/>
<path fill="none" stroke="black" d="M1461.5,-184C1461.5,-190 1455.5,-196 1449.5,-196"/>
<polyline fill="none" stroke="black" points="1449.5,-196 1308.5,-196 "/>
<path fill="none" stroke="black" d="M1308.5,-196C1302.5,-196 1296.5,-190 1296.5,-184"/>
<polyline fill="none" stroke="black" points="1296.5,-184 1296.5,-162 "/>
<path fill="none" stroke="black" d="M1296.5,-162C1296.5,-156 1302.5,-150 1308.5,-150"/>
<text text-anchor="middle" x="1316" y="-169.9" font-family="Helvetica,sans-Serif" font-size="14.00">and</text>
<polyline fill="none" stroke="black" points="1335.5,-150 1335.5,-196 "/>
<text text-anchor="middle" x="1398.5" y="-179.4" font-family="Helvetica,sans-Serif" font-size="14.00">Pasar_libro</text>
<text text-anchor="middle" x="1398.5" y="-160.4" font-family="Helvetica,sans-Serif" font-size="14.00">Pasar_Actas_libro</text>
</g>
<!-- firma_presidente&#45;&gt;Pasar_libro -->
<g id="edge50" class="edge"><title>firma_presidente&#45;&gt;Pasar_libro</title>
<path fill="none" stroke="black" d="M1249.79,-309.971C1253.49,-307.274 1256.95,-304.292 1260,-301 1290.98,-267.586 1263.93,-237.369 1296,-205 1296.92,-204.074 1297.86,-203.175 1298.84,-202.301"/>
<polygon fill="black" stroke="black" points="1301.06,-205.008 1306.78,-196.09 1296.74,-199.495 1301.06,-205.008"/>
</g>
<!-- firma_Consejeros_2&#45;&gt;Pasar_libro -->
<g id="edge38" class="edge"><title>firma_Consejeros_2&#45;&gt;Pasar_libro</title>
<path fill="none" stroke="black" d="M1244.95,-245.872C1250.15,-243.084 1255.25,-240.114 1260,-237 1277.9,-225.26 1277.72,-216.14 1296,-205 1298.47,-203.493 1301.03,-202.035 1303.64,-200.627"/>
<polygon fill="black" stroke="black" points="1305.37,-203.675 1312.71,-196.035 1302.21,-197.43 1305.37,-203.675"/>
</g>
<!-- firma_Consejeros_1&#45;&gt;Pasar_libro -->
<g id="edge34" class="edge"><title>firma_Consejeros_1&#45;&gt;Pasar_libro</title>
<path fill="none" stroke="black" d="M1260.2,-193.221C1268.72,-191.771 1277.54,-190.271 1286.33,-188.773"/>
<polygon fill="black" stroke="black" points="1286.97,-192.215 1296.24,-187.087 1285.8,-185.314 1286.97,-192.215"/>
</g>
<!-- firma_Consejeros_4&#45;&gt;Pasar_libro -->
<g id="edge46" class="edge"><title>firma_Consejeros_4&#45;&gt;Pasar_libro</title>
<path fill="none" stroke="black" d="M1260.2,-152.779C1268.72,-154.229 1277.54,-155.729 1286.33,-157.227"/>
<polygon fill="black" stroke="black" points="1285.8,-160.686 1296.24,-158.913 1286.97,-153.785 1285.8,-160.686"/>
</g>
<!-- firma_Consejeros_3&#45;&gt;Pasar_libro -->
<g id="edge42" class="edge"><title>firma_Consejeros_3&#45;&gt;Pasar_libro</title>
<path fill="none" stroke="black" d="M1241.66,-100.077C1247.86,-103.026 1254.1,-106.046 1260,-109 1282.76,-120.387 1307.61,-133.618 1328.68,-145.085"/>
<polygon fill="black" stroke="black" points="1327.01,-148.16 1337.46,-149.88 1330.36,-142.016 1327.01,-148.16"/>
</g>
<!-- Aprobada_stats -->
<g id="node12" class="node"><title>Aprobada_stats</title>
<polygon fill="none" stroke="black" stroke-dasharray="5,2" points="878,-279 752,-279 752,-243 878,-243 878,-279"/>
<text text-anchor="start" x="760.5" y="-258.233" font-family="Times Roman,serif" font-size="14.00">Documentos: &#160;3</text>
</g>
<!-- Aprobada_stats&#45;&gt;Aprobada -->
<g id="edge12" class="edge"><title>Aprobada_stats&#45;&gt;Aprobada</title>
<path fill="none" stroke="black" stroke-dasharray="1,5" d="M878.124,-251.263C893.175,-248.941 909.414,-246.436 925.043,-244.025"/>
<polygon fill="black" stroke="black" points="925.857,-247.441 935.207,-242.457 924.79,-240.523 925.857,-247.441"/>
</g>
<!-- Convocada -->
<g id="node14" class="node"><title>Convocada</title>
<polygon fill="#ffffd4" stroke="black" points="502,-284 376,-284 376,-238 502,-238 502,-284"/>
<polygon fill="none" stroke="black" points="502,-284 376,-284 376,-238 502,-238 502,-284"/>
<text text-anchor="middle" x="439" y="-267.4" font-family="Helvetica,sans-Serif" font-size="14.00">Convocada</text>
<text text-anchor="middle" x="439" y="-248.4" font-family="Helvetica,sans-Serif" font-size="14.00">Convocar_reunion</text>
</g>
<!-- Pautada -->
<g id="node16" class="node"><title>Pautada</title>
<polygon fill="#ffffd4" stroke="black" points="685,-255 569,-255 569,-209 685,-209 685,-255"/>
<polygon fill="none" stroke="black" points="685,-255 569,-255 569,-209 685,-209 685,-255"/>
<text text-anchor="middle" x="627" y="-238.4" font-family="Helvetica,sans-Serif" font-size="14.00">Pautada</text>
<text text-anchor="middle" x="627" y="-219.4" font-family="Helvetica,sans-Serif" font-size="14.00">Validar_Quorum</text>
</g>
<!-- Convocada&#45;&gt;Pautada -->
<g id="edge14" class="edge"><title>Convocada&#45;&gt;Pautada</title>
<path fill="none" stroke="black" d="M502.648,-251.182C520.714,-248.395 540.455,-245.35 558.78,-242.523"/>
<polygon fill="black" stroke="black" points="559.446,-245.962 568.795,-240.978 558.378,-239.044 559.446,-245.962"/>
</g>
<!-- Realizada -->
<g id="node29" class="node"><title>Realizada</title>
<polygon fill="#ffffff" stroke="black" points="877,-225 753,-225 753,-179 877,-179 877,-225"/>
<polygon fill="none" stroke="black" points="877,-225 753,-225 753,-179 877,-179 877,-225"/>
<text text-anchor="middle" x="815" y="-208.4" font-family="Helvetica,sans-Serif" font-size="14.00">Realizada</text>
<text text-anchor="middle" x="815" y="-189.4" font-family="Helvetica,sans-Serif" font-size="14.00">Registrar_reunion</text>
</g>
<!-- Pautada&#45;&gt;Realizada -->
<g id="edge26" class="edge"><title>Pautada&#45;&gt;Realizada</title>
<path fill="none" stroke="black" d="M685.197,-222.713C703.388,-219.81 723.681,-216.572 742.718,-213.534"/>
<polygon fill="black" stroke="black" points="743.517,-216.951 752.841,-211.919 742.414,-210.039 743.517,-216.951"/>
</g>
<!-- Convocada_stats -->
<g id="node17" class="node"><title>Convocada_stats</title>
<polygon fill="none" stroke="black" stroke-dasharray="5,2" points="314,-306 188,-306 188,-270 314,-270 314,-306"/>
<text text-anchor="start" x="196.5" y="-285.233" font-family="Times Roman,serif" font-size="14.00">Documentos: &#160;1</text>
</g>
<!-- Convocada_stats&#45;&gt;Convocada -->
<g id="edge16" class="edge"><title>Convocada_stats&#45;&gt;Convocada</title>
<path fill="none" stroke="black" stroke-dasharray="1,5" d="M314.124,-278.934C330.467,-276.587 348.21,-274.039 365.052,-271.62"/>
<polygon fill="black" stroke="black" points="366.001,-275.02 375.402,-270.134 365.006,-268.091 366.001,-275.02"/>
</g>
<!-- En_libro -->
<g id="node19" class="node"><title>En_libro</title>
<polygon fill="#ffffff" stroke="black" points="1620,-226 1514,-226 1514,-180 1620,-180 1620,-226"/>
<polygon fill="none" stroke="black" points="1620,-226 1514,-226 1514,-180 1620,-180 1620,-226"/>
<text text-anchor="middle" x="1567" y="-209.4" font-family="Helvetica,sans-Serif" font-size="14.00">En_libro</text>
<text text-anchor="middle" x="1567" y="-190.4" font-family="Helvetica,sans-Serif" font-size="14.00">Actas_en_libro</text>
</g>
<!-- final -->
<g id="node21" class="node"><title>final</title>
<ellipse fill="#ffffff" stroke="black" cx="1755" cy="-173" rx="31.9646" ry="18"/>
<ellipse fill="none" stroke="black" cx="1755" cy="-173" rx="31.9646" ry="18"/>
<text text-anchor="middle" x="1755" y="-168.9" font-family="Times Roman,serif" font-size="14.00">final</text>
</g>
<!-- En_libro&#45;&gt;final -->
<g id="edge18" class="edge"><title>En_libro&#45;&gt;final</title>
<path fill="none" stroke="black" d="M1620.12,-194.523C1649.87,-189.776 1686.41,-183.946 1713.95,-179.551"/>
<polygon fill="black" stroke="black" points="1714.7,-182.975 1724.03,-177.943 1713.6,-176.062 1714.7,-182.975"/>
</g>
<!-- En_libro_stats -->
<g id="node22" class="node"><title>En_libro_stats</title>
<polygon fill="none" stroke="black" stroke-dasharray="5,2" points="1442,-250 1316,-250 1316,-214 1442,-214 1442,-250"/>
<text text-anchor="start" x="1324.5" y="-229.233" font-family="Times Roman,serif" font-size="14.00">Documentos: &#160;0</text>
</g>
<!-- En_libro_stats&#45;&gt;En_libro -->
<g id="edge20" class="edge"><title>En_libro_stats&#45;&gt;En_libro</title>
<path fill="none" stroke="black" stroke-dasharray="1,5" d="M1442.12,-222.263C1462.02,-219.194 1483.99,-215.805 1503.88,-212.737"/>
<polygon fill="black" stroke="black" points="1504.42,-216.195 1513.76,-211.212 1503.35,-209.277 1504.42,-216.195"/>
</g>
<!-- Pasar_libro&#45;&gt;En_libro -->
<g id="edge22" class="edge"><title>Pasar_libro&#45;&gt;En_libro</title>
<path fill="none" stroke="black" d="M1461.73,-186.202C1475.86,-188.457 1490.34,-190.767 1503.86,-192.924"/>
<polygon fill="black" stroke="black" points="1503.56,-196.42 1513.98,-194.54 1504.66,-189.508 1503.56,-196.42"/>
</g>
<!-- Pasar_libro_stats -->
<g id="node26" class="node"><title>Pasar_libro_stats</title>
<polygon fill="none" stroke="black" stroke-dasharray="5,2" points="1254,-36 1128,-36 1128,-1.77636e-14 1254,-3.55271e-15 1254,-36"/>
<text text-anchor="start" x="1136.5" y="-15.2333" font-family="Times Roman,serif" font-size="14.00">Documentos: &#160;1</text>
</g>
<!-- Pasar_libro_stats&#45;&gt;Pasar_libro -->
<g id="edge24" class="edge"><title>Pasar_libro_stats&#45;&gt;Pasar_libro</title>
<path fill="none" stroke="black" stroke-dasharray="1,5" d="M1244.6,-36.1545C1249.98,-38.7983 1255.21,-41.7439 1260,-45 1299.04,-71.5632 1334.6,-113.138 1356.47,-141.654"/>
<polygon fill="black" stroke="black" points="1353.72,-143.819 1362.54,-149.689 1359.31,-139.6 1353.72,-143.819"/>
</g>
<!-- Realizada&#45;&gt;Aprobada -->
<g id="edge30" class="edge"><title>Realizada&#45;&gt;Aprobada</title>
<path fill="none" stroke="black" d="M877.079,-211.906C892.579,-214.38 909.393,-217.063 925.535,-219.639"/>
<polygon fill="black" stroke="black" points="925.055,-223.106 935.481,-221.226 926.158,-216.194 925.055,-223.106"/>
</g>
<!-- Pautada_stats -->
<g id="node30" class="node"><title>Pautada_stats</title>
<polygon fill="none" stroke="black" stroke-dasharray="5,2" points="502,-220 376,-220 376,-184 502,-184 502,-220"/>
<text text-anchor="start" x="384.5" y="-199.233" font-family="Times Roman,serif" font-size="14.00">Documentos: &#160;1</text>
</g>
<!-- Pautada_stats&#45;&gt;Pautada -->
<g id="edge28" class="edge"><title>Pautada_stats&#45;&gt;Pautada</title>
<path fill="none" stroke="black" stroke-dasharray="1,5" d="M502.124,-212.073C520.305,-214.974 540.22,-218.152 558.699,-221.101"/>
<polygon fill="black" stroke="black" points="558.37,-224.593 568.797,-222.712 559.474,-217.68 558.37,-224.593"/>
</g>
<!-- Realizada_stats -->
<g id="node33" class="node"><title>Realizada_stats</title>
<polygon fill="none" stroke="black" stroke-dasharray="5,2" points="690,-191 564,-191 564,-155 690,-155 690,-191"/>
<text text-anchor="start" x="572.5" y="-170.233" font-family="Times Roman,serif" font-size="14.00">Documentos: &#160;0</text>
</g>
<!-- Realizada_stats&#45;&gt;Realizada -->
<g id="edge32" class="edge"><title>Realizada_stats&#45;&gt;Realizada</title>
<path fill="none" stroke="black" stroke-dasharray="1,5" d="M690.124,-182.737C706.978,-185.337 725.321,-188.166 742.629,-190.836"/>
<polygon fill="black" stroke="black" points="742.265,-194.321 752.681,-192.387 743.332,-187.403 742.265,-194.321"/>
</g>
<!-- firma_Consejeros_1_stats -->
<g id="node36" class="node"><title>firma_Consejeros_1_stats</title>
<polygon fill="none" stroke="black" stroke-dasharray="5,2" points="1066,-191 940,-191 940,-155 1066,-155 1066,-191"/>
<text text-anchor="start" x="948.5" y="-170.233" font-family="Times Roman,serif" font-size="14.00">Documentos: &#160;0</text>
</g>
<!-- firma_Consejeros_1_stats&#45;&gt;firma_Consejeros_1 -->
<g id="edge36" class="edge"><title>firma_Consejeros_1_stats&#45;&gt;firma_Consejeros_1</title>
<path fill="none" stroke="black" stroke-dasharray="1,5" d="M1066.12,-183.745C1080.82,-186.247 1096.66,-188.942 1111.95,-191.545"/>
<polygon fill="black" stroke="black" points="1111.46,-195.011 1121.9,-193.239 1112.63,-188.111 1111.46,-195.011"/>
</g>
<!-- firma_Consejeros_2_stats -->
<g id="node39" class="node"><title>firma_Consejeros_2_stats</title>
<polygon fill="none" stroke="black" stroke-dasharray="5,2" points="1066,-309 940,-309 940,-273 1066,-273 1066,-309"/>
<text text-anchor="start" x="948.5" y="-288.233" font-family="Times Roman,serif" font-size="14.00">Documentos: &#160;0</text>
</g>
<!-- firma_Consejeros_2_stats&#45;&gt;firma_Consejeros_2 -->
<g id="edge40" class="edge"><title>firma_Consejeros_2_stats&#45;&gt;firma_Consejeros_2</title>
<path fill="none" stroke="black" stroke-dasharray="1,5" d="M1066.12,-283.613C1080.82,-281.893 1096.66,-280.04 1111.95,-278.25"/>
<polygon fill="black" stroke="black" points="1112.38,-281.724 1121.9,-277.086 1111.57,-274.772 1112.38,-281.724"/>
</g>
<!-- firma_Consejeros_3_stats -->
<g id="node42" class="node"><title>firma_Consejeros_3_stats</title>
<polygon fill="none" stroke="black" stroke-dasharray="5,2" points="1066,-83 940,-83 940,-47 1066,-47 1066,-83"/>
<text text-anchor="start" x="948.5" y="-62.2333" font-family="Times Roman,serif" font-size="14.00">Documentos: &#160;0</text>
</g>
<!-- firma_Consejeros_3_stats&#45;&gt;firma_Consejeros_3 -->
<g id="edge44" class="edge"><title>firma_Consejeros_3_stats&#45;&gt;firma_Consejeros_3</title>
<path fill="none" stroke="black" stroke-dasharray="1,5" d="M1066.12,-69.0292C1080.68,-69.9586 1096.36,-70.959 1111.51,-71.9264"/>
<polygon fill="black" stroke="black" points="1111.7,-75.4455 1121.9,-72.5897 1112.15,-68.4597 1111.7,-75.4455"/>
</g>
<!-- firma_Consejeros_4_stats -->
<g id="node45" class="node"><title>firma_Consejeros_4_stats</title>
<polygon fill="none" stroke="black" stroke-dasharray="5,2" points="1066,-137 940,-137 940,-101 1066,-101 1066,-137"/>
<text text-anchor="start" x="948.5" y="-116.233" font-family="Times Roman,serif" font-size="14.00">Documentos: &#160;0</text>
</g>
<!-- firma_Consejeros_4_stats&#45;&gt;firma_Consejeros_4 -->
<g id="edge48" class="edge"><title>firma_Consejeros_4_stats&#45;&gt;firma_Consejeros_4</title>
<path fill="none" stroke="black" stroke-dasharray="1,5" d="M1066.12,-126.387C1080.82,-128.107 1096.66,-129.96 1111.95,-131.75"/>
<polygon fill="black" stroke="black" points="1111.57,-135.228 1121.9,-132.914 1112.38,-128.276 1111.57,-135.228"/>
</g>
<!-- firma_presidente_stats -->
<g id="node48" class="node"><title>firma_presidente_stats</title>
<polygon fill="none" stroke="black" stroke-dasharray="5,2" points="1066,-363 940,-363 940,-327 1066,-327 1066,-363"/>
<text text-anchor="start" x="948.5" y="-342.233" font-family="Times Roman,serif" font-size="14.00">Documentos: &#160;0</text>
</g>
<!-- firma_presidente_stats&#45;&gt;firma_presidente -->
<g id="edge52" class="edge"><title>firma_presidente_stats&#45;&gt;firma_presidente</title>
<path fill="none" stroke="black" stroke-dasharray="1,5" d="M1066.12,-340.971C1083.33,-339.872 1102.1,-338.675 1119.73,-337.549"/>
<polygon fill="black" stroke="black" points="1120.2,-341.026 1129.95,-336.897 1119.75,-334.041 1120.2,-341.026"/>
</g>
<!-- inicial -->
<g id="node50" class="node"><title>inicial</title>
<ellipse fill="#ffffff" stroke="black" cx="251" cy="-234" rx="38.9134" ry="18"/>
<ellipse fill="none" stroke="black" cx="251" cy="-234" rx="38.9134" ry="18"/>
<text text-anchor="middle" x="251" y="-229.9" font-family="Times Roman,serif" font-size="14.00">inicial</text>
</g>
<!-- inicial&#45;&gt;Convocada -->
<g id="edge54" class="edge"><title>inicial&#45;&gt;Convocada</title>
<path fill="none" stroke="black" d="M288.593,-239.399C310.541,-242.551 339.001,-246.638 365.249,-250.408"/>
<polygon fill="black" stroke="black" points="364.787,-253.878 375.183,-251.835 365.782,-246.949 364.787,-253.878"/>
</g>
<!-- inicial_stats -->
<g id="node52" class="node"><title>inicial_stats</title>
<polygon fill="none" stroke="black" stroke-dasharray="5,2" points="126,-252 4.9738e-14,-252 0,-216 126,-216 126,-252"/>
<text text-anchor="start" x="8.5" y="-231.233" font-family="Times Roman,serif" font-size="14.00">Documentos: &#160;0</text>
</g>
<!-- inicial_stats&#45;&gt;inicial -->
<g id="edge56" class="edge"><title>inicial_stats&#45;&gt;inicial</title>
<path fill="none" stroke="black" stroke-dasharray="1,5" d="M126.124,-234C150.73,-234 178.512,-234 201.613,-234"/>
<polygon fill="black" stroke="black" points="201.87,-237.5 211.87,-234 201.87,-230.5 201.87,-237.5"/>
</g>
<!-- final_stats -->
<g id="node54" class="node"><title>final_stats</title>
<polygon fill="none" stroke="black" stroke-dasharray="5,2" points="1630,-162 1504,-162 1504,-126 1630,-126 1630,-162"/>
<text text-anchor="start" x="1512.5" y="-141.233" font-family="Times Roman,serif" font-size="14.00">Documentos: &#160;0</text>
</g>
<!-- final_stats&#45;&gt;final -->
<g id="edge58" class="edge"><title>final_stats&#45;&gt;final</title>
<path fill="none" stroke="black" stroke-dasharray="1,5" d="M1630.12,-153.737C1657.75,-157.999 1689.38,-162.878 1713.9,-166.66"/>
<polygon fill="black" stroke="black" points="1713.52,-170.143 1723.94,-168.208 1714.59,-163.224 1713.52,-170.143"/>
</g>
</g>
</svg>
