<?xml version="1.0" encoding="UTF-8" standalone="no"?>
<!DOCTYPE svg PUBLIC "-//W3C//DTD SVG 1.1//EN"
 "http://www.w3.org/Graphics/SVG/1.1/DTD/svg11.dtd">
<!-- Generated by graphviz version 2.26.3 (20100126.1600)
 -->
<!-- Title: G Pages: 1 -->
<svg width="2322pt" height="872pt"
 viewBox="0.00 0.00 2322.00 872.00" xmlns="http://www.w3.org/2000/svg" xmlns:xlink="http://www.w3.org/1999/xlink">
<g id="graph1" class="graph" transform="scale(1 1) rotate(0) translate(4 868)">
<title>G</title>
<polygon fill="white" stroke="white" points="-4,5 -4,-868 2319,-868 2319,5 -4,5"/>
<!-- Aprobacion_Presidencia -->
<g id="node1" class="node"><title>Aprobacion_Presidencia</title>
<polygon fill="#ffffff" stroke="black" points="1369,-220 1207,-220 1207,-184 1369,-184 1369,-220"/>
<polygon fill="none" stroke="black" points="1369,-220 1207,-220 1207,-184 1369,-184 1369,-220"/>
<text text-anchor="middle" x="1288" y="-198.9" font-family="Helvetica,sans-Serif" font-size="14.00">Aprobacion_Presidencia</text>
</g>
<!-- Correspondencias_atendidas -->
<g id="node3" class="node"><title>Correspondencias_atendidas</title>
<polygon fill="#ffffff" stroke="black" points="1556,-128 1364,-128 1364,-92 1556,-92 1556,-128"/>
<polygon fill="none" stroke="black" points="1556,-128 1364,-128 1364,-92 1556,-92 1556,-128"/>
<text text-anchor="middle" x="1460" y="-106.9" font-family="Helvetica,sans-Serif" font-size="14.00">Correspondencias_atendidas</text>
</g>
<!-- Aprobacion_Presidencia&#45;&gt;Correspondencias_atendidas -->
<g id="edge2" class="edge"><title>Aprobacion_Presidencia&#45;&gt;Correspondencias_atendidas</title>
<path fill="none" stroke="black" d="M1321.98,-183.824C1349.19,-169.27 1387.53,-148.764 1416.89,-133.056"/>
<polygon fill="black" stroke="black" points="1418.92,-135.941 1426.09,-128.138 1415.62,-129.769 1418.92,-135.941"/>
</g>
<!-- final -->
<g id="node26" class="node"><title>final</title>
<ellipse fill="#ffffff" stroke="black" cx="1534" cy="-18" rx="31.9646" ry="18"/>
<ellipse fill="none" stroke="black" cx="1534" cy="-18" rx="31.9646" ry="18"/>
<text text-anchor="middle" x="1534" y="-13.9" font-family="Times Roman,serif" font-size="14.00">final</text>
</g>
<!-- Correspondencias_atendidas&#45;&gt;final -->
<g id="edge32" class="edge"><title>Correspondencias_atendidas&#45;&gt;final</title>
<path fill="none" stroke="black" d="M1474.62,-91.8238C1485.92,-77.7732 1501.69,-58.175 1514.13,-42.7023"/>
<polygon fill="black" stroke="black" points="1517.11,-44.5781 1520.65,-34.5923 1511.66,-40.1907 1517.11,-44.5781"/>
</g>
<!-- Auditoria_interna -->
<g id="node4" class="node"><title>Auditoria_interna</title>
<polygon fill="#ffffff" stroke="#ffffff" points="1809.5,-267 1904.5,-267 1916.5,-279 1916.5,-309 1904.5,-321 1809.5,-321 1797.5,-309 1797.5,-279 1809.5,-267"/>
<path fill="#ffffff" stroke="#ffffff" d="M1904.5,-267C1910.5,-267 1916.5,-273 1916.5,-279"/>
<path fill="#ffffff" stroke="#ffffff" d="M1916.5,-309C1916.5,-315 1910.5,-321 1904.5,-321"/>
<path fill="#ffffff" stroke="#ffffff" d="M1809.5,-321C1803.5,-321 1797.5,-315 1797.5,-309"/>
<path fill="#ffffff" stroke="#ffffff" d="M1797.5,-279C1797.5,-273 1803.5,-267 1809.5,-267"/>
<polyline fill="none" stroke="black" points="1809.5,-267 1904.5,-267 "/>
<path fill="none" stroke="black" d="M1904.5,-267C1910.5,-267 1916.5,-273 1916.5,-279"/>
<polyline fill="none" stroke="black" points="1916.5,-279 1916.5,-309 "/>
<path fill="none" stroke="black" d="M1916.5,-309C1916.5,-315 1910.5,-321 1904.5,-321"/>
<polyline fill="none" stroke="black" points="1904.5,-321 1809.5,-321 "/>
<path fill="none" stroke="black" d="M1809.5,-321C1803.5,-321 1797.5,-315 1797.5,-309"/>
<polyline fill="none" stroke="black" points="1797.5,-309 1797.5,-279 "/>
<path fill="none" stroke="black" d="M1797.5,-279C1797.5,-273 1803.5,-267 1809.5,-267"/>
<text text-anchor="middle" x="1857" y="-304.4" font-family="Helvetica,sans-Serif" font-size="14.00">Auditoria_interna</text>
<polyline fill="none" stroke="black" points="1797.5,-294 1916.5,-294 "/>
<text text-anchor="middle" x="1857" y="-277.4" font-family="Helvetica,sans-Serif" font-size="14.00">or</text>
</g>
<!-- Auditoria_interna&#45;&gt;Aprobacion_Presidencia -->
<g id="edge6" class="edge"><title>Auditoria_interna&#45;&gt;Aprobacion_Presidencia</title>
<path fill="none" stroke="black" d="M1797.23,-268.387C1794.47,-267.521 1791.72,-266.719 1789,-266 1648.86,-228.896 1480.79,-213.024 1379.3,-206.435"/>
<polygon fill="black" stroke="black" points="1379.28,-202.927 1369.08,-205.789 1378.84,-209.913 1379.28,-202.927"/>
</g>
<!-- Auditoria_interna&#45;&gt;Correspondencias_atendidas -->
<g id="edge4" class="edge"><title>Auditoria_interna&#45;&gt;Correspondencias_atendidas</title>
<path fill="none" stroke="black" d="M1798.42,-266.85C1719.78,-230.4 1581.51,-166.315 1508.43,-132.444"/>
<polygon fill="black" stroke="black" points="1509.53,-129.099 1498.99,-128.07 1506.59,-135.45 1509.53,-129.099"/>
</g>
<!-- Consejo_directivo -->
<g id="node7" class="node"><title>Consejo_directivo</title>
<polygon fill="#ffffff" stroke="#ffffff" points="2136,-267 2236,-267 2248,-279 2248,-309 2236,-321 2136,-321 2124,-309 2124,-279 2136,-267"/>
<path fill="#ffffff" stroke="#ffffff" d="M2236,-267C2242,-267 2248,-273 2248,-279"/>
<path fill="#ffffff" stroke="#ffffff" d="M2248,-309C2248,-315 2242,-321 2236,-321"/>
<path fill="#ffffff" stroke="#ffffff" d="M2136,-321C2130,-321 2124,-315 2124,-309"/>
<path fill="#ffffff" stroke="#ffffff" d="M2124,-279C2124,-273 2130,-267 2136,-267"/>
<polyline fill="none" stroke="black" points="2136,-267 2236,-267 "/>
<path fill="none" stroke="black" d="M2236,-267C2242,-267 2248,-273 2248,-279"/>
<polyline fill="none" stroke="black" points="2248,-279 2248,-309 "/>
<path fill="none" stroke="black" d="M2248,-309C2248,-315 2242,-321 2236,-321"/>
<polyline fill="none" stroke="black" points="2236,-321 2136,-321 "/>
<path fill="none" stroke="black" d="M2136,-321C2130,-321 2124,-315 2124,-309"/>
<polyline fill="none" stroke="black" points="2124,-309 2124,-279 "/>
<path fill="none" stroke="black" d="M2124,-279C2124,-273 2130,-267 2136,-267"/>
<text text-anchor="middle" x="2186" y="-304.4" font-family="Helvetica,sans-Serif" font-size="14.00">Consejo_directivo</text>
<polyline fill="none" stroke="black" points="2124,-294 2248,-294 "/>
<text text-anchor="middle" x="2186" y="-277.4" font-family="Helvetica,sans-Serif" font-size="14.00">or</text>
</g>
<!-- Consejo_directivo&#45;&gt;Aprobacion_Presidencia -->
<g id="edge10" class="edge"><title>Consejo_directivo&#45;&gt;Aprobacion_Presidencia</title>
<path fill="none" stroke="black" d="M2123.85,-276.088C2108.63,-272.243 2092.32,-268.57 2077,-266 1826.84,-224.039 1527.27,-209.316 1379.57,-204.367"/>
<polygon fill="black" stroke="black" points="1379.31,-200.857 1369.2,-204.027 1379.08,-207.853 1379.31,-200.857"/>
</g>
<!-- Consejo_directivo&#45;&gt;Correspondencias_atendidas -->
<g id="edge8" class="edge"><title>Consejo_directivo&#45;&gt;Correspondencias_atendidas</title>
<path fill="none" stroke="black" d="M2175.24,-266.647C2163.43,-240.61 2141.81,-202.708 2110,-184 2005.11,-122.321 1685.37,-148.843 1565,-131 1562.29,-130.599 1559.55,-130.174 1556.78,-129.73"/>
<polygon fill="black" stroke="black" points="1557.13,-126.239 1546.69,-128.045 1555.97,-133.144 1557.13,-126.239"/>
</g>
<!-- Consultoria_juridica -->
<g id="node10" class="node"><title>Consultoria_juridica</title>
<polygon fill="#ffffff" stroke="#ffffff" points="1945.5,-267 2056.5,-267 2068.5,-279 2068.5,-309 2056.5,-321 1945.5,-321 1933.5,-309 1933.5,-279 1945.5,-267"/>
<path fill="#ffffff" stroke="#ffffff" d="M2056.5,-267C2062.5,-267 2068.5,-273 2068.5,-279"/>
<path fill="#ffffff" stroke="#ffffff" d="M2068.5,-309C2068.5,-315 2062.5,-321 2056.5,-321"/>
<path fill="#ffffff" stroke="#ffffff" d="M1945.5,-321C1939.5,-321 1933.5,-315 1933.5,-309"/>
<path fill="#ffffff" stroke="#ffffff" d="M1933.5,-279C1933.5,-273 1939.5,-267 1945.5,-267"/>
<polyline fill="none" stroke="black" points="1945.5,-267 2056.5,-267 "/>
<path fill="none" stroke="black" d="M2056.5,-267C2062.5,-267 2068.5,-273 2068.5,-279"/>
<polyline fill="none" stroke="black" points="2068.5,-279 2068.5,-309 "/>
<path fill="none" stroke="black" d="M2068.5,-309C2068.5,-315 2062.5,-321 2056.5,-321"/>
<polyline fill="none" stroke="black" points="2056.5,-321 1945.5,-321 "/>
<path fill="none" stroke="black" d="M1945.5,-321C1939.5,-321 1933.5,-315 1933.5,-309"/>
<polyline fill="none" stroke="black" points="1933.5,-309 1933.5,-279 "/>
<path fill="none" stroke="black" d="M1933.5,-279C1933.5,-273 1939.5,-267 1945.5,-267"/>
<text text-anchor="middle" x="2001" y="-304.4" font-family="Helvetica,sans-Serif" font-size="14.00">Consultoria_juridica</text>
<polyline fill="none" stroke="black" points="1933.5,-294 2068.5,-294 "/>
<text text-anchor="middle" x="2001" y="-277.4" font-family="Helvetica,sans-Serif" font-size="14.00">or</text>
</g>
<!-- Consultoria_juridica&#45;&gt;Aprobacion_Presidencia -->
<g id="edge14" class="edge"><title>Consultoria_juridica&#45;&gt;Aprobacion_Presidencia</title>
<path fill="none" stroke="black" d="M1933.31,-268.097C1930.52,-267.336 1927.74,-266.632 1925,-266 1734.06,-221.985 1504.01,-208.241 1379.27,-203.949"/>
<polygon fill="black" stroke="black" points="1379.11,-200.442 1369,-203.609 1378.88,-207.438 1379.11,-200.442"/>
</g>
<!-- Consultoria_juridica&#45;&gt;Correspondencias_atendidas -->
<g id="edge12" class="edge"><title>Consultoria_juridica&#45;&gt;Correspondencias_atendidas</title>
<path fill="none" stroke="black" d="M1933.49,-269.012C1930.63,-267.988 1927.79,-266.98 1925,-266 1782.98,-216.028 1615.33,-160.67 1525.19,-131.203"/>
<polygon fill="black" stroke="black" points="1526.25,-127.865 1515.65,-128.086 1524.07,-134.519 1526.25,-127.865"/>
</g>
<!-- Coordinacion_Presupuesto -->
<g id="node13" class="node"><title>Coordinacion_Presupuesto</title>
<polygon fill="#ffffff" stroke="#ffffff" points="279.5,-267 434.5,-267 446.5,-279 446.5,-309 434.5,-321 279.5,-321 267.5,-309 267.5,-279 279.5,-267"/>
<path fill="#ffffff" stroke="#ffffff" d="M434.5,-267C440.5,-267 446.5,-273 446.5,-279"/>
<path fill="#ffffff" stroke="#ffffff" d="M446.5,-309C446.5,-315 440.5,-321 434.5,-321"/>
<path fill="#ffffff" stroke="#ffffff" d="M279.5,-321C273.5,-321 267.5,-315 267.5,-309"/>
<path fill="#ffffff" stroke="#ffffff" d="M267.5,-279C267.5,-273 273.5,-267 279.5,-267"/>
<polyline fill="none" stroke="black" points="279.5,-267 434.5,-267 "/>
<path fill="none" stroke="black" d="M434.5,-267C440.5,-267 446.5,-273 446.5,-279"/>
<polyline fill="none" stroke="black" points="446.5,-279 446.5,-309 "/>
<path fill="none" stroke="black" d="M446.5,-309C446.5,-315 440.5,-321 434.5,-321"/>
<polyline fill="none" stroke="black" points="434.5,-321 279.5,-321 "/>
<path fill="none" stroke="black" d="M279.5,-321C273.5,-321 267.5,-315 267.5,-309"/>
<polyline fill="none" stroke="black" points="267.5,-309 267.5,-279 "/>
<path fill="none" stroke="black" d="M267.5,-279C267.5,-273 273.5,-267 279.5,-267"/>
<text text-anchor="middle" x="357" y="-304.4" font-family="Helvetica,sans-Serif" font-size="14.00">Coordinacion_Presupuesto</text>
<polyline fill="none" stroke="black" points="267.5,-294 446.5,-294 "/>
<text text-anchor="middle" x="357" y="-277.4" font-family="Helvetica,sans-Serif" font-size="14.00">or</text>
</g>
<!-- Coordinacion_Presupuesto&#45;&gt;Aprobacion_Presidencia -->
<g id="edge16" class="edge"><title>Coordinacion_Presupuesto&#45;&gt;Aprobacion_Presidencia</title>
<path fill="none" stroke="black" d="M446.552,-267.632C449.392,-267.047 452.213,-266.5 455,-266 595.274,-240.838 1011.03,-216.595 1196.68,-206.686"/>
<polygon fill="black" stroke="black" points="1196.89,-210.18 1206.69,-206.153 1196.52,-203.189 1196.89,-210.18"/>
</g>
<!-- Coordinacion_Presupuesto&#45;&gt;Correspondencias_atendidas -->
<g id="edge18" class="edge"><title>Coordinacion_Presupuesto&#45;&gt;Correspondencias_atendidas</title>
<path fill="none" stroke="black" d="M446.64,-268.055C449.455,-267.347 452.247,-266.66 455,-266 640.373,-221.552 687.783,-214.22 876,-184 1042.32,-157.296 1236.55,-134.303 1353.82,-121.312"/>
<polygon fill="black" stroke="black" points="1354.32,-124.779 1363.87,-120.202 1353.55,-117.821 1354.32,-124.779"/>
</g>
<!-- Coordinacion_Servicios_Generales -->
<g id="node16" class="node"><title>Coordinacion_Servicios_Generales</title>
<polygon fill="#ffffff" stroke="#ffffff" points="475.5,-267 680.5,-267 692.5,-279 692.5,-309 680.5,-321 475.5,-321 463.5,-309 463.5,-279 475.5,-267"/>
<path fill="#ffffff" stroke="#ffffff" d="M680.5,-267C686.5,-267 692.5,-273 692.5,-279"/>
<path fill="#ffffff" stroke="#ffffff" d="M692.5,-309C692.5,-315 686.5,-321 680.5,-321"/>
<path fill="#ffffff" stroke="#ffffff" d="M475.5,-321C469.5,-321 463.5,-315 463.5,-309"/>
<path fill="#ffffff" stroke="#ffffff" d="M463.5,-279C463.5,-273 469.5,-267 475.5,-267"/>
<polyline fill="none" stroke="black" points="475.5,-267 680.5,-267 "/>
<path fill="none" stroke="black" d="M680.5,-267C686.5,-267 692.5,-273 692.5,-279"/>
<polyline fill="none" stroke="black" points="692.5,-279 692.5,-309 "/>
<path fill="none" stroke="black" d="M692.5,-309C692.5,-315 686.5,-321 680.5,-321"/>
<polyline fill="none" stroke="black" points="680.5,-321 475.5,-321 "/>
<path fill="none" stroke="black" d="M475.5,-321C469.5,-321 463.5,-315 463.5,-309"/>
<polyline fill="none" stroke="black" points="463.5,-309 463.5,-279 "/>
<path fill="none" stroke="black" d="M463.5,-279C463.5,-273 469.5,-267 475.5,-267"/>
<text text-anchor="middle" x="578" y="-304.4" font-family="Helvetica,sans-Serif" font-size="14.00">Coordinacion_Servicios_Generales</text>
<polyline fill="none" stroke="black" points="463.5,-294 692.5,-294 "/>
<text text-anchor="middle" x="578" y="-277.4" font-family="Helvetica,sans-Serif" font-size="14.00">or</text>
</g>
<!-- Coordinacion_Servicios_Generales&#45;&gt;Aprobacion_Presidencia -->
<g id="edge20" class="edge"><title>Coordinacion_Servicios_Generales&#45;&gt;Aprobacion_Presidencia</title>
<path fill="none" stroke="black" d="M692.821,-267.423C695.571,-266.928 698.3,-266.453 701,-266 875.197,-236.776 1080.81,-217.899 1196.65,-208.679"/>
<polygon fill="black" stroke="black" points="1197.19,-212.147 1206.89,-207.871 1196.64,-205.169 1197.19,-212.147"/>
</g>
<!-- Coordinacion_Servicios_Generales&#45;&gt;Correspondencias_atendidas -->
<g id="edge22" class="edge"><title>Coordinacion_Servicios_Generales&#45;&gt;Correspondencias_atendidas</title>
<path fill="none" stroke="black" d="M680.088,-266.961C771.201,-243.342 908.461,-209.016 1029,-184 1139.23,-161.123 1266.37,-139.92 1353.84,-126.128"/>
<polygon fill="black" stroke="black" points="1354.44,-129.577 1363.78,-124.566 1353.36,-122.661 1354.44,-129.577"/>
</g>
<!-- Coordinacion_Talento_Humano -->
<g id="node19" class="node"><title>Coordinacion_Talento_Humano</title>
<polygon fill="#ffffff" stroke="#ffffff" points="722,-267 906,-267 918,-279 918,-309 906,-321 722,-321 710,-309 710,-279 722,-267"/>
<path fill="#ffffff" stroke="#ffffff" d="M906,-267C912,-267 918,-273 918,-279"/>
<path fill="#ffffff" stroke="#ffffff" d="M918,-309C918,-315 912,-321 906,-321"/>
<path fill="#ffffff" stroke="#ffffff" d="M722,-321C716,-321 710,-315 710,-309"/>
<path fill="#ffffff" stroke="#ffffff" d="M710,-279C710,-273 716,-267 722,-267"/>
<polyline fill="none" stroke="black" points="722,-267 906,-267 "/>
<path fill="none" stroke="black" d="M906,-267C912,-267 918,-273 918,-279"/>
<polyline fill="none" stroke="black" points="918,-279 918,-309 "/>
<path fill="none" stroke="black" d="M918,-309C918,-315 912,-321 906,-321"/>
<polyline fill="none" stroke="black" points="906,-321 722,-321 "/>
<path fill="none" stroke="black" d="M722,-321C716,-321 710,-315 710,-309"/>
<polyline fill="none" stroke="black" points="710,-309 710,-279 "/>
<path fill="none" stroke="black" d="M710,-279C710,-273 716,-267 722,-267"/>
<text text-anchor="middle" x="814" y="-304.4" font-family="Helvetica,sans-Serif" font-size="14.00">Coordinacion_Talento_Humano</text>
<polyline fill="none" stroke="black" points="710,-294 918,-294 "/>
<text text-anchor="middle" x="814" y="-277.4" font-family="Helvetica,sans-Serif" font-size="14.00">or</text>
</g>
<!-- Coordinacion_Talento_Humano&#45;&gt;Aprobacion_Presidencia -->
<g id="edge24" class="edge"><title>Coordinacion_Talento_Humano&#45;&gt;Aprobacion_Presidencia</title>
<path fill="none" stroke="black" d="M918.3,-267.884C921.229,-267.238 924.133,-266.609 927,-266 1018.28,-246.623 1123.41,-228.45 1196.58,-216.457"/>
<polygon fill="black" stroke="black" points="1197.39,-219.872 1206.69,-214.806 1196.26,-212.964 1197.39,-219.872"/>
</g>
<!-- Coordinacion_Talento_Humano&#45;&gt;Correspondencias_atendidas -->
<g id="edge26" class="edge"><title>Coordinacion_Talento_Humano&#45;&gt;Correspondencias_atendidas</title>
<path fill="none" stroke="black" d="M887.951,-266.959C954.022,-243.337 1053.73,-209.01 1142,-184 1215.25,-163.245 1299.17,-143.899 1362.41,-130.196"/>
<polygon fill="black" stroke="black" points="1363.34,-133.576 1372.37,-128.046 1361.86,-126.734 1363.34,-133.576"/>
</g>
<!-- Coordinacion_finanzas_y_contabilidad -->
<g id="node22" class="node"><title>Coordinacion_finanzas_y_contabilidad</title>
<polygon fill="#ffffff" stroke="#ffffff" points="948,-267 1172,-267 1184,-279 1184,-309 1172,-321 948,-321 936,-309 936,-279 948,-267"/>
<path fill="#ffffff" stroke="#ffffff" d="M1172,-267C1178,-267 1184,-273 1184,-279"/>
<path fill="#ffffff" stroke="#ffffff" d="M1184,-309C1184,-315 1178,-321 1172,-321"/>
<path fill="#ffffff" stroke="#ffffff" d="M948,-321C942,-321 936,-315 936,-309"/>
<path fill="#ffffff" stroke="#ffffff" d="M936,-279C936,-273 942,-267 948,-267"/>
<polyline fill="none" stroke="black" points="948,-267 1172,-267 "/>
<path fill="none" stroke="black" d="M1172,-267C1178,-267 1184,-273 1184,-279"/>
<polyline fill="none" stroke="black" points="1184,-279 1184,-309 "/>
<path fill="none" stroke="black" d="M1184,-309C1184,-315 1178,-321 1172,-321"/>
<polyline fill="none" stroke="black" points="1172,-321 948,-321 "/>
<path fill="none" stroke="black" d="M948,-321C942,-321 936,-315 936,-309"/>
<polyline fill="none" stroke="black" points="936,-309 936,-279 "/>
<path fill="none" stroke="black" d="M936,-279C936,-273 942,-267 948,-267"/>
<text text-anchor="middle" x="1060" y="-304.4" font-family="Helvetica,sans-Serif" font-size="14.00">Coordinacion_finanzas_y_contabilidad</text>
<polyline fill="none" stroke="black" points="936,-294 1184,-294 "/>
<text text-anchor="middle" x="1060" y="-277.4" font-family="Helvetica,sans-Serif" font-size="14.00">or</text>
</g>
<!-- Coordinacion_finanzas_y_contabilidad&#45;&gt;Aprobacion_Presidencia -->
<g id="edge28" class="edge"><title>Coordinacion_finanzas_y_contabilidad&#45;&gt;Aprobacion_Presidencia</title>
<path fill="none" stroke="black" d="M1127.17,-266.895C1161.1,-253.205 1201.73,-236.813 1233.66,-223.928"/>
<polygon fill="black" stroke="black" points="1235.31,-227.037 1243.27,-220.049 1232.69,-220.546 1235.31,-227.037"/>
</g>
<!-- Coordinacion_finanzas_y_contabilidad&#45;&gt;Correspondencias_atendidas -->
<g id="edge30" class="edge"><title>Coordinacion_finanzas_y_contabilidad&#45;&gt;Correspondencias_atendidas</title>
<path fill="none" stroke="black" d="M1087.25,-266.748C1113.53,-241.895 1155.48,-205.821 1198,-184 1246.59,-159.067 1304.69,-141.566 1353.81,-129.868"/>
<polygon fill="black" stroke="black" points="1354.89,-133.211 1363.83,-127.532 1353.3,-126.394 1354.89,-133.211"/>
</g>
<!-- Direccion_desarrollo -->
<g id="node27" class="node"><title>Direccion_desarrollo</title>
<polygon fill="#ffffff" stroke="#ffffff" points="1328,-267 1444,-267 1456,-279 1456,-309 1444,-321 1328,-321 1316,-309 1316,-279 1328,-267"/>
<path fill="#ffffff" stroke="#ffffff" d="M1444,-267C1450,-267 1456,-273 1456,-279"/>
<path fill="#ffffff" stroke="#ffffff" d="M1456,-309C1456,-315 1450,-321 1444,-321"/>
<path fill="#ffffff" stroke="#ffffff" d="M1328,-321C1322,-321 1316,-315 1316,-309"/>
<path fill="#ffffff" stroke="#ffffff" d="M1316,-279C1316,-273 1322,-267 1328,-267"/>
<polyline fill="none" stroke="black" points="1328,-267 1444,-267 "/>
<path fill="none" stroke="black" d="M1444,-267C1450,-267 1456,-273 1456,-279"/>
<polyline fill="none" stroke="black" points="1456,-279 1456,-309 "/>
<path fill="none" stroke="black" d="M1456,-309C1456,-315 1450,-321 1444,-321"/>
<polyline fill="none" stroke="black" points="1444,-321 1328,-321 "/>
<path fill="none" stroke="black" d="M1328,-321C1322,-321 1316,-315 1316,-309"/>
<polyline fill="none" stroke="black" points="1316,-309 1316,-279 "/>
<path fill="none" stroke="black" d="M1316,-279C1316,-273 1322,-267 1328,-267"/>
<text text-anchor="middle" x="1386" y="-304.4" font-family="Helvetica,sans-Serif" font-size="14.00">Direccion_desarrollo</text>
<polyline fill="none" stroke="black" points="1316,-294 1456,-294 "/>
<text text-anchor="middle" x="1386" y="-277.4" font-family="Helvetica,sans-Serif" font-size="14.00">or</text>
</g>
<!-- Direccion_desarrollo&#45;&gt;Aprobacion_Presidencia -->
<g id="edge36" class="edge"><title>Direccion_desarrollo&#45;&gt;Aprobacion_Presidencia</title>
<path fill="none" stroke="black" d="M1357.13,-266.895C1343.72,-254.311 1327.89,-239.445 1314.76,-227.118"/>
<polygon fill="black" stroke="black" points="1317.06,-224.483 1307.38,-220.19 1312.27,-229.586 1317.06,-224.483"/>
</g>
<!-- Direccion_desarrollo&#45;&gt;Correspondencias_atendidas -->
<g id="edge34" class="edge"><title>Direccion_desarrollo&#45;&gt;Correspondencias_atendidas</title>
<path fill="none" stroke="black" d="M1396.92,-266.85C1410.86,-232.185 1434.85,-172.527 1448.89,-137.632"/>
<polygon fill="black" stroke="black" points="1452.25,-138.654 1452.73,-128.07 1445.75,-136.042 1452.25,-138.654"/>
</g>
<!-- Direccion_ejecutiva -->
<g id="node30" class="node"><title>Direccion_ejecutiva</title>
<polygon fill="#ffffff" stroke="#ffffff" points="1579,-451 1689,-451 1701,-463 1701,-493 1689,-505 1579,-505 1567,-493 1567,-463 1579,-451"/>
<path fill="#ffffff" stroke="#ffffff" d="M1689,-451C1695,-451 1701,-457 1701,-463"/>
<path fill="#ffffff" stroke="#ffffff" d="M1701,-493C1701,-499 1695,-505 1689,-505"/>
<path fill="#ffffff" stroke="#ffffff" d="M1579,-505C1573,-505 1567,-499 1567,-493"/>
<path fill="#ffffff" stroke="#ffffff" d="M1567,-463C1567,-457 1573,-451 1579,-451"/>
<polyline fill="none" stroke="black" points="1579,-451 1689,-451 "/>
<path fill="none" stroke="black" d="M1689,-451C1695,-451 1701,-457 1701,-463"/>
<polyline fill="none" stroke="black" points="1701,-463 1701,-493 "/>
<path fill="none" stroke="black" d="M1701,-493C1701,-499 1695,-505 1689,-505"/>
<polyline fill="none" stroke="black" points="1689,-505 1579,-505 "/>
<path fill="none" stroke="black" d="M1579,-505C1573,-505 1567,-499 1567,-493"/>
<polyline fill="none" stroke="black" points="1567,-493 1567,-463 "/>
<path fill="none" stroke="black" d="M1567,-463C1567,-457 1573,-451 1579,-451"/>
<text text-anchor="middle" x="1634" y="-488.4" font-family="Helvetica,sans-Serif" font-size="14.00">Direccion_ejecutiva</text>
<polyline fill="none" stroke="black" points="1567,-478 1701,-478 "/>
<text text-anchor="middle" x="1634" y="-461.4" font-family="Helvetica,sans-Serif" font-size="14.00">or</text>
</g>
<!-- Direccion_ejecutiva&#45;&gt;Aprobacion_Presidencia -->
<g id="edge52" class="edge"><title>Direccion_ejecutiva&#45;&gt;Aprobacion_Presidencia</title>
<path fill="none" stroke="black" d="M1566.7,-466.295C1489.99,-449.094 1367.45,-409.054 1307,-322 1288.26,-295.016 1285.29,-256.448 1285.84,-230.38"/>
<polygon fill="black" stroke="black" points="1289.35,-230.175 1286.25,-220.043 1282.35,-229.895 1289.35,-230.175"/>
</g>
<!-- Direccion_ejecutiva&#45;&gt;Correspondencias_atendidas -->
<g id="edge54" class="edge"><title>Direccion_ejecutiva&#45;&gt;Correspondencias_atendidas</title>
<path fill="none" stroke="black" d="M1701.12,-471.585C1849.09,-454.834 2182.17,-401.312 2077,-266 2060.69,-245.018 1720.33,-167.446 1552.26,-130.207"/>
<polygon fill="black" stroke="black" points="1552.95,-126.774 1542.43,-128.03 1551.43,-133.608 1552.95,-126.774"/>
</g>
<!-- Direccion_ejecutiva&#45;&gt;Auditoria_interna -->
<g id="edge40" class="edge"><title>Direccion_ejecutiva&#45;&gt;Auditoria_interna</title>
<path fill="none" stroke="black" d="M1666.9,-450.85C1706.6,-418.1 1773.32,-363.043 1816.24,-327.634"/>
<polygon fill="black" stroke="black" points="1818.47,-330.325 1823.96,-321.261 1814.02,-324.926 1818.47,-330.325"/>
</g>
<!-- Direccion_ejecutiva&#45;&gt;Consultoria_juridica -->
<g id="edge38" class="edge"><title>Direccion_ejecutiva&#45;&gt;Consultoria_juridica</title>
<path fill="none" stroke="black" d="M1688.15,-450.85C1754.65,-417.509 1867.27,-361.047 1937.7,-325.736"/>
<polygon fill="black" stroke="black" points="1939.55,-328.722 1946.92,-321.111 1936.42,-322.464 1939.55,-328.722"/>
</g>
<!-- Direccion_ejecutiva&#45;&gt;Direccion_desarrollo -->
<g id="edge46" class="edge"><title>Direccion_ejecutiva&#45;&gt;Direccion_desarrollo</title>
<path fill="none" stroke="black" d="M1597.41,-450.85C1553.17,-418.032 1478.75,-362.815 1431.04,-327.414"/>
<polygon fill="black" stroke="black" points="1432.86,-324.409 1422.74,-321.261 1428.69,-330.031 1432.86,-324.409"/>
</g>
<!-- Direccion_gestion_interna -->
<g id="node34" class="node"><title>Direccion_gestion_interna</title>
<polygon fill="#ffffff" stroke="#ffffff" points="739.5,-359 888.5,-359 900.5,-371 900.5,-401 888.5,-413 739.5,-413 727.5,-401 727.5,-371 739.5,-359"/>
<path fill="#ffffff" stroke="#ffffff" d="M888.5,-359C894.5,-359 900.5,-365 900.5,-371"/>
<path fill="#ffffff" stroke="#ffffff" d="M900.5,-401C900.5,-407 894.5,-413 888.5,-413"/>
<path fill="#ffffff" stroke="#ffffff" d="M739.5,-413C733.5,-413 727.5,-407 727.5,-401"/>
<path fill="#ffffff" stroke="#ffffff" d="M727.5,-371C727.5,-365 733.5,-359 739.5,-359"/>
<polyline fill="none" stroke="black" points="739.5,-359 888.5,-359 "/>
<path fill="none" stroke="black" d="M888.5,-359C894.5,-359 900.5,-365 900.5,-371"/>
<polyline fill="none" stroke="black" points="900.5,-371 900.5,-401 "/>
<path fill="none" stroke="black" d="M900.5,-401C900.5,-407 894.5,-413 888.5,-413"/>
<polyline fill="none" stroke="black" points="888.5,-413 739.5,-413 "/>
<path fill="none" stroke="black" d="M739.5,-413C733.5,-413 727.5,-407 727.5,-401"/>
<polyline fill="none" stroke="black" points="727.5,-401 727.5,-371 "/>
<path fill="none" stroke="black" d="M727.5,-371C727.5,-365 733.5,-359 739.5,-359"/>
<text text-anchor="middle" x="814" y="-396.4" font-family="Helvetica,sans-Serif" font-size="14.00">Direccion_gestion_interna</text>
<polyline fill="none" stroke="black" points="727.5,-386 900.5,-386 "/>
<text text-anchor="middle" x="814" y="-369.4" font-family="Helvetica,sans-Serif" font-size="14.00">or</text>
</g>
<!-- Direccion_ejecutiva&#45;&gt;Direccion_gestion_interna -->
<g id="edge42" class="edge"><title>Direccion_ejecutiva&#45;&gt;Direccion_gestion_interna</title>
<path fill="none" stroke="black" d="M1566.9,-470.471C1421.93,-454.206 1079.02,-415.734 910.662,-396.845"/>
<polygon fill="black" stroke="black" points="910.893,-393.349 900.565,-395.712 910.113,-400.305 910.893,-393.349"/>
</g>
<!-- Direccion_gestion_conocimiento -->
<g id="node36" class="node"><title>Direccion_gestion_conocimiento</title>
<polygon fill="#ffffff" stroke="#ffffff" points="12,-267 200,-267 212,-279 212,-309 200,-321 12,-321 0,-309 0,-279 12,-267"/>
<path fill="#ffffff" stroke="#ffffff" d="M200,-267C206,-267 212,-273 212,-279"/>
<path fill="#ffffff" stroke="#ffffff" d="M212,-309C212,-315 206,-321 200,-321"/>
<path fill="#ffffff" stroke="#ffffff" d="M12,-321C6,-321 0,-315 0,-309"/>
<path fill="#ffffff" stroke="#ffffff" d="M0,-279C0,-273 6,-267 12,-267"/>
<polyline fill="none" stroke="black" points="12,-267 200,-267 "/>
<path fill="none" stroke="black" d="M200,-267C206,-267 212,-273 212,-279"/>
<polyline fill="none" stroke="black" points="212,-279 212,-309 "/>
<path fill="none" stroke="black" d="M212,-309C212,-315 206,-321 200,-321"/>
<polyline fill="none" stroke="black" points="200,-321 12,-321 "/>
<path fill="none" stroke="black" d="M12,-321C6,-321 0,-315 0,-309"/>
<polyline fill="none" stroke="black" points="0,-309 0,-279 "/>
<path fill="none" stroke="black" d="M0,-279C0,-273 6,-267 12,-267"/>
<text text-anchor="middle" x="106" y="-304.4" font-family="Helvetica,sans-Serif" font-size="14.00">Direccion_gestion_conocimiento</text>
<polyline fill="none" stroke="black" points="0,-294 212,-294 "/>
<text text-anchor="middle" x="106" y="-277.4" font-family="Helvetica,sans-Serif" font-size="14.00">or</text>
</g>
<!-- Direccion_ejecutiva&#45;&gt;Direccion_gestion_conocimiento -->
<g id="edge44" class="edge"><title>Direccion_ejecutiva&#45;&gt;Direccion_gestion_conocimiento</title>
<path fill="none" stroke="black" d="M1566.87,-475.941C1415.21,-470.713 1034.72,-454.365 719,-414 497.906,-385.733 444.142,-367.78 226,-322 224.734,-321.734 223.461,-321.466 222.182,-321.194"/>
<polygon fill="black" stroke="black" points="222.784,-317.744 212.272,-319.063 221.312,-324.587 222.784,-317.744"/>
</g>
<!-- Direccion_investigacion -->
<g id="node39" class="node"><title>Direccion_investigacion</title>
<polygon fill="#ffffff" stroke="#ffffff" points="1486,-267 1620,-267 1632,-279 1632,-309 1620,-321 1486,-321 1474,-309 1474,-279 1486,-267"/>
<path fill="#ffffff" stroke="#ffffff" d="M1620,-267C1626,-267 1632,-273 1632,-279"/>
<path fill="#ffffff" stroke="#ffffff" d="M1632,-309C1632,-315 1626,-321 1620,-321"/>
<path fill="#ffffff" stroke="#ffffff" d="M1486,-321C1480,-321 1474,-315 1474,-309"/>
<path fill="#ffffff" stroke="#ffffff" d="M1474,-279C1474,-273 1480,-267 1486,-267"/>
<polyline fill="none" stroke="black" points="1486,-267 1620,-267 "/>
<path fill="none" stroke="black" d="M1620,-267C1626,-267 1632,-273 1632,-279"/>
<polyline fill="none" stroke="black" points="1632,-279 1632,-309 "/>
<path fill="none" stroke="black" d="M1632,-309C1632,-315 1626,-321 1620,-321"/>
<polyline fill="none" stroke="black" points="1620,-321 1486,-321 "/>
<path fill="none" stroke="black" d="M1486,-321C1480,-321 1474,-315 1474,-309"/>
<polyline fill="none" stroke="black" points="1474,-309 1474,-279 "/>
<path fill="none" stroke="black" d="M1474,-279C1474,-273 1480,-267 1486,-267"/>
<text text-anchor="middle" x="1553" y="-304.4" font-family="Helvetica,sans-Serif" font-size="14.00">Direccion_investigacion</text>
<polyline fill="none" stroke="black" points="1474,-294 1632,-294 "/>
<text text-anchor="middle" x="1553" y="-277.4" font-family="Helvetica,sans-Serif" font-size="14.00">or</text>
</g>
<!-- Direccion_ejecutiva&#45;&gt;Direccion_investigacion -->
<g id="edge48" class="edge"><title>Direccion_ejecutiva&#45;&gt;Direccion_investigacion</title>
<path fill="none" stroke="black" d="M1622.05,-450.85C1608.05,-419.052 1584.79,-366.223 1569.19,-330.768"/>
<polygon fill="black" stroke="black" points="1572.23,-329.003 1565,-321.261 1565.83,-331.824 1572.23,-329.003"/>
</g>
<!-- Direccion_reflexion -->
<g id="node41" class="node"><title>Direccion_reflexion</title>
<polygon fill="#ffff80" stroke="#ffff80" points="1661.5,-267 1768.5,-267 1780.5,-279 1780.5,-309 1768.5,-321 1661.5,-321 1649.5,-309 1649.5,-279 1661.5,-267"/>
<path fill="#ffff80" stroke="#ffff80" d="M1768.5,-267C1774.5,-267 1780.5,-273 1780.5,-279"/>
<path fill="#ffff80" stroke="#ffff80" d="M1780.5,-309C1780.5,-315 1774.5,-321 1768.5,-321"/>
<path fill="#ffff80" stroke="#ffff80" d="M1661.5,-321C1655.5,-321 1649.5,-315 1649.5,-309"/>
<path fill="#ffff80" stroke="#ffff80" d="M1649.5,-279C1649.5,-273 1655.5,-267 1661.5,-267"/>
<polyline fill="none" stroke="black" points="1661.5,-267 1768.5,-267 "/>
<path fill="none" stroke="black" d="M1768.5,-267C1774.5,-267 1780.5,-273 1780.5,-279"/>
<polyline fill="none" stroke="black" points="1780.5,-279 1780.5,-309 "/>
<path fill="none" stroke="black" d="M1780.5,-309C1780.5,-315 1774.5,-321 1768.5,-321"/>
<polyline fill="none" stroke="black" points="1768.5,-321 1661.5,-321 "/>
<path fill="none" stroke="black" d="M1661.5,-321C1655.5,-321 1649.5,-315 1649.5,-309"/>
<polyline fill="none" stroke="black" points="1649.5,-309 1649.5,-279 "/>
<path fill="none" stroke="black" d="M1649.5,-279C1649.5,-273 1655.5,-267 1661.5,-267"/>
<text text-anchor="middle" x="1715" y="-304.4" font-family="Helvetica,sans-Serif" font-size="14.00">Direccion_reflexion</text>
<polyline fill="none" stroke="black" points="1649.5,-294 1780.5,-294 "/>
<text text-anchor="middle" x="1715" y="-277.4" font-family="Helvetica,sans-Serif" font-size="14.00">or</text>
</g>
<!-- Direccion_ejecutiva&#45;&gt;Direccion_reflexion -->
<g id="edge50" class="edge"><title>Direccion_ejecutiva&#45;&gt;Direccion_reflexion</title>
<path fill="none" stroke="black" d="M1645.95,-450.85C1659.95,-419.052 1683.21,-366.223 1698.81,-330.768"/>
<polygon fill="black" stroke="black" points="1702.17,-331.824 1703,-321.261 1695.77,-329.003 1702.17,-331.824"/>
</g>
<!-- Direccion_gestion_interna&#45;&gt;Aprobacion_Presidencia -->
<g id="edge68" class="edge"><title>Direccion_gestion_interna&#45;&gt;Aprobacion_Presidencia</title>
<path fill="none" stroke="black" d="M900.537,-378.756C996.757,-369.429 1144.97,-350.897 1193,-322 1219.89,-305.823 1216.55,-290.624 1236,-266 1245.93,-253.434 1257.1,-239.632 1266.55,-228.071"/>
<polygon fill="black" stroke="black" points="1269.45,-230.055 1273.07,-220.1 1264.03,-225.621 1269.45,-230.055"/>
</g>
<!-- Direccion_gestion_interna&#45;&gt;Correspondencias_atendidas -->
<g id="edge70" class="edge"><title>Direccion_gestion_interna&#45;&gt;Correspondencias_atendidas</title>
<path fill="none" stroke="black" d="M727.478,-375.975C681.328,-370.631 623.574,-363.95 572,-358 502.447,-349.976 305.593,-374.259 259,-322 242.437,-303.423 243.258,-285.278 259,-266 327.927,-181.594 1072.84,-131.59 1353.68,-115.622"/>
<polygon fill="black" stroke="black" points="1354.09,-119.105 1363.88,-115.046 1353.7,-112.116 1354.09,-119.105"/>
</g>
<!-- Direccion_gestion_interna&#45;&gt;Coordinacion_Presupuesto -->
<g id="edge62" class="edge"><title>Direccion_gestion_interna&#45;&gt;Coordinacion_Presupuesto</title>
<path fill="none" stroke="black" d="M727.177,-373.063C656.58,-361.958 554.276,-344.538 456.665,-322.31"/>
<polygon fill="black" stroke="black" points="457.156,-318.832 446.627,-320.003 455.589,-325.654 457.156,-318.832"/>
</g>
<!-- Direccion_gestion_interna&#45;&gt;Coordinacion_Servicios_Generales -->
<g id="edge66" class="edge"><title>Direccion_gestion_interna&#45;&gt;Coordinacion_Servicios_Generales</title>
<path fill="none" stroke="black" d="M744.469,-358.895C716.984,-348.18 685.252,-335.81 656.912,-324.762"/>
<polygon fill="black" stroke="black" points="658.03,-321.442 647.442,-321.071 655.488,-327.964 658.03,-321.442"/>
</g>
<!-- Direccion_gestion_interna&#45;&gt;Coordinacion_Talento_Humano -->
<g id="edge60" class="edge"><title>Direccion_gestion_interna&#45;&gt;Coordinacion_Talento_Humano</title>
<path fill="none" stroke="black" d="M814,-358.895C814,-350.268 814,-340.569 814,-331.35"/>
<polygon fill="black" stroke="black" points="817.5,-331.23 814,-321.23 810.5,-331.23 817.5,-331.23"/>
</g>
<!-- Direccion_gestion_interna&#45;&gt;Coordinacion_finanzas_y_contabilidad -->
<g id="edge64" class="edge"><title>Direccion_gestion_interna&#45;&gt;Coordinacion_finanzas_y_contabilidad</title>
<path fill="none" stroke="black" d="M886.478,-358.895C915.252,-348.133 948.491,-335.703 978.13,-324.618"/>
<polygon fill="black" stroke="black" points="979.475,-327.852 987.616,-321.071 977.023,-321.295 979.475,-327.852"/>
</g>
<!-- Direccion_gestion_conocimiento&#45;&gt;Aprobacion_Presidencia -->
<g id="edge58" class="edge"><title>Direccion_gestion_conocimiento&#45;&gt;Aprobacion_Presidencia</title>
<path fill="none" stroke="black" d="M212.34,-272.86C227.943,-270.247 243.856,-267.85 259,-266 603.652,-223.897 1016.82,-208.853 1196.78,-204.035"/>
<polygon fill="black" stroke="black" points="1197.09,-207.528 1206.99,-203.766 1196.9,-200.531 1197.09,-207.528"/>
</g>
<!-- Direccion_gestion_conocimiento&#45;&gt;Correspondencias_atendidas -->
<g id="edge56" class="edge"><title>Direccion_gestion_conocimiento&#45;&gt;Correspondencias_atendidas</title>
<path fill="none" stroke="black" d="M126.405,-266.64C147.9,-240.204 184.367,-201.647 226,-184 328.353,-140.615 1073.33,-118.984 1353.69,-112.313"/>
<polygon fill="black" stroke="black" points="1353.95,-115.808 1363.87,-112.073 1353.79,-108.81 1353.95,-115.808"/>
</g>
<!-- Direccion_investigacion&#45;&gt;Aprobacion_Presidencia -->
<g id="edge74" class="edge"><title>Direccion_investigacion&#45;&gt;Aprobacion_Presidencia</title>
<path fill="none" stroke="black" d="M1474.92,-266.895C1434.98,-253.028 1387.05,-236.388 1349.73,-223.43"/>
<polygon fill="black" stroke="black" points="1350.58,-220.023 1339.99,-220.049 1348.29,-226.635 1350.58,-220.023"/>
</g>
<!-- Direccion_investigacion&#45;&gt;Correspondencias_atendidas -->
<g id="edge72" class="edge"><title>Direccion_investigacion&#45;&gt;Correspondencias_atendidas</title>
<path fill="none" stroke="black" d="M1539.28,-266.85C1521.68,-232.036 1491.34,-172.014 1473.74,-137.184"/>
<polygon fill="black" stroke="black" points="1476.77,-135.416 1469.13,-128.07 1470.52,-138.573 1476.77,-135.416"/>
</g>
<!-- Direccion_reflexion&#45;&gt;Aprobacion_Presidencia -->
<g id="edge78" class="edge"><title>Direccion_reflexion&#45;&gt;Aprobacion_Presidencia</title>
<path fill="none" stroke="black" d="M1649.44,-268.483C1646.6,-267.604 1643.78,-266.771 1641,-266 1553.44,-241.716 1451.04,-224.325 1379.14,-213.858"/>
<polygon fill="black" stroke="black" points="1379.6,-210.388 1369.21,-212.426 1378.61,-217.316 1379.6,-210.388"/>
</g>
<!-- Direccion_reflexion&#45;&gt;Correspondencias_atendidas -->
<g id="edge76" class="edge"><title>Direccion_reflexion&#45;&gt;Correspondencias_atendidas</title>
<path fill="none" stroke="black" d="M1677.37,-266.85C1627.68,-230.995 1540.94,-168.401 1493.44,-134.127"/>
<polygon fill="black" stroke="black" points="1495.2,-131.083 1485.04,-128.07 1491.1,-136.759 1495.2,-131.083"/>
</g>
<!-- Oficina_Atencion_Ciudadana -->
<g id="node56" class="node"><title>Oficina_Atencion_Ciudadana</title>
<polygon fill="#ffffff" stroke="#ffffff" points="2102,-635 2270,-635 2282,-647 2282,-677 2270,-689 2102,-689 2090,-677 2090,-647 2102,-635"/>
<path fill="#ffffff" stroke="#ffffff" d="M2270,-635C2276,-635 2282,-641 2282,-647"/>
<path fill="#ffffff" stroke="#ffffff" d="M2282,-677C2282,-683 2276,-689 2270,-689"/>
<path fill="#ffffff" stroke="#ffffff" d="M2102,-689C2096,-689 2090,-683 2090,-677"/>
<path fill="#ffffff" stroke="#ffffff" d="M2090,-647C2090,-641 2096,-635 2102,-635"/>
<polyline fill="none" stroke="black" points="2102,-635 2270,-635 "/>
<path fill="none" stroke="black" d="M2270,-635C2276,-635 2282,-641 2282,-647"/>
<polyline fill="none" stroke="black" points="2282,-647 2282,-677 "/>
<path fill="none" stroke="black" d="M2282,-677C2282,-683 2276,-689 2270,-689"/>
<polyline fill="none" stroke="black" points="2270,-689 2102,-689 "/>
<path fill="none" stroke="black" d="M2102,-689C2096,-689 2090,-683 2090,-677"/>
<polyline fill="none" stroke="black" points="2090,-677 2090,-647 "/>
<path fill="none" stroke="black" d="M2090,-647C2090,-641 2096,-635 2102,-635"/>
<text text-anchor="middle" x="2186" y="-672.4" font-family="Helvetica,sans-Serif" font-size="14.00">Oficina_Atencion_Ciudadana</text>
<polyline fill="none" stroke="black" points="2090,-662 2282,-662 "/>
<text text-anchor="middle" x="2186" y="-645.4" font-family="Helvetica,sans-Serif" font-size="14.00">or</text>
</g>
<!-- Oficina_Atencion_Ciudadana&#45;&gt;Aprobacion_Presidencia -->
<g id="edge82" class="edge"><title>Oficina_Atencion_Ciudadana&#45;&gt;Aprobacion_Presidencia</title>
<path fill="none" stroke="black" d="M2089.79,-653.15C1850.94,-629.889 1250,-562.927 1250,-478 1250,-478 1250,-478 1250,-386 1250,-329.593 1267.34,-265.432 1278.59,-229.731"/>
<polygon fill="black" stroke="black" points="1281.98,-230.618 1281.73,-220.026 1275.32,-228.468 1281.98,-230.618"/>
</g>
<!-- Oficina_Atencion_Ciudadana&#45;&gt;Correspondencias_atendidas -->
<g id="edge84" class="edge"><title>Oficina_Atencion_Ciudadana&#45;&gt;Correspondencias_atendidas</title>
<path fill="none" stroke="black" d="M2220.98,-634.896C2258.88,-602.187 2314,-543.375 2314,-478 2314,-478 2314,-478 2314,-294 2314,-241.178 2311.72,-215.069 2269,-184 2205.56,-137.861 1642.72,-141.656 1565,-131 1561.92,-130.578 1558.8,-130.122 1555.65,-129.637"/>
<polygon fill="black" stroke="black" points="1555.95,-126.141 1545.52,-128.002 1554.84,-133.051 1555.95,-126.141"/>
</g>
<!-- Presidencia -->
<g id="node58" class="node"><title>Presidencia</title>
<polygon fill="#ffffff" stroke="#ffffff" points="2154.5,-543 2217.5,-543 2229.5,-555 2229.5,-585 2217.5,-597 2154.5,-597 2142.5,-585 2142.5,-555 2154.5,-543"/>
<path fill="#ffffff" stroke="#ffffff" d="M2217.5,-543C2223.5,-543 2229.5,-549 2229.5,-555"/>
<path fill="#ffffff" stroke="#ffffff" d="M2229.5,-585C2229.5,-591 2223.5,-597 2217.5,-597"/>
<path fill="#ffffff" stroke="#ffffff" d="M2154.5,-597C2148.5,-597 2142.5,-591 2142.5,-585"/>
<path fill="#ffffff" stroke="#ffffff" d="M2142.5,-555C2142.5,-549 2148.5,-543 2154.5,-543"/>
<polyline fill="none" stroke="black" points="2154.5,-543 2217.5,-543 "/>
<path fill="none" stroke="black" d="M2217.5,-543C2223.5,-543 2229.5,-549 2229.5,-555"/>
<polyline fill="none" stroke="black" points="2229.5,-555 2229.5,-585 "/>
<path fill="none" stroke="black" d="M2229.5,-585C2229.5,-591 2223.5,-597 2217.5,-597"/>
<polyline fill="none" stroke="black" points="2217.5,-597 2154.5,-597 "/>
<path fill="none" stroke="black" d="M2154.5,-597C2148.5,-597 2142.5,-591 2142.5,-585"/>
<polyline fill="none" stroke="black" points="2142.5,-585 2142.5,-555 "/>
<path fill="none" stroke="black" d="M2142.5,-555C2142.5,-549 2148.5,-543 2154.5,-543"/>
<text text-anchor="middle" x="2186" y="-580.4" font-family="Helvetica,sans-Serif" font-size="14.00">Presidencia</text>
<polyline fill="none" stroke="black" points="2142.5,-570 2229.5,-570 "/>
<text text-anchor="middle" x="2186" y="-553.4" font-family="Helvetica,sans-Serif" font-size="14.00">or</text>
</g>
<!-- Oficina_Atencion_Ciudadana&#45;&gt;Presidencia -->
<g id="edge80" class="edge"><title>Oficina_Atencion_Ciudadana&#45;&gt;Presidencia</title>
<path fill="none" stroke="black" d="M2186,-634.895C2186,-626.268 2186,-616.569 2186,-607.35"/>
<polygon fill="black" stroke="black" points="2189.5,-607.23 2186,-597.23 2182.5,-607.23 2189.5,-607.23"/>
</g>
<!-- Presidencia&#45;&gt;Correspondencias_atendidas -->
<g id="edge92" class="edge"><title>Presidencia&#45;&gt;Correspondencias_atendidas</title>
<path fill="none" stroke="black" d="M2209.18,-542.727C2235.84,-508.479 2276,-446.809 2276,-386 2276,-386 2276,-386 2276,-294 2276,-23.6409 1969.48,-189.824 1565,-131 1562.15,-130.586 1559.27,-130.146 1556.36,-129.683"/>
<polygon fill="black" stroke="black" points="1556.83,-126.214 1546.4,-128.033 1555.69,-133.12 1556.83,-126.214"/>
</g>
<!-- Presidencia&#45;&gt;Consejo_directivo -->
<g id="edge90" class="edge"><title>Presidencia&#45;&gt;Consejo_directivo</title>
<path fill="none" stroke="black" d="M2186,-542.781C2186,-493.081 2186,-387.585 2186,-331.264"/>
<polygon fill="black" stroke="black" points="2189.5,-331.015 2186,-321.015 2182.5,-331.015 2189.5,-331.015"/>
</g>
<!-- Presidencia&#45;&gt;Direccion_ejecutiva -->
<g id="edge88" class="edge"><title>Presidencia&#45;&gt;Direccion_ejecutiva</title>
<path fill="none" stroke="black" d="M2142.22,-562.704C2048.81,-547.135 1828.91,-510.484 1711.33,-490.888"/>
<polygon fill="black" stroke="black" points="1711.76,-487.411 1701.32,-489.219 1710.6,-494.316 1711.76,-487.411"/>
</g>
<!-- Por_correspondencia -->
<g id="node61" class="node"><title>Por_correspondencia</title>
<polygon fill="#ffff80" stroke="black" points="2258,-777 2114,-777 2114,-731 2258,-731 2258,-777"/>
<polygon fill="none" stroke="black" points="2258,-777 2114,-777 2114,-731 2258,-731 2258,-777"/>
<text text-anchor="middle" x="2186" y="-760.4" font-family="Helvetica,sans-Serif" font-size="14.00">Por_correspondencia</text>
<text text-anchor="middle" x="2186" y="-741.4" font-family="Helvetica,sans-Serif" font-size="14.00">vbravo</text>
</g>
<!-- Por_correspondencia&#45;&gt;Oficina_Atencion_Ciudadana -->
<g id="edge86" class="edge"><title>Por_correspondencia&#45;&gt;Oficina_Atencion_Ciudadana</title>
<path fill="none" stroke="black" d="M2186,-730.785C2186,-721.283 2186,-710.046 2186,-699.439"/>
<polygon fill="black" stroke="black" points="2189.5,-699.129 2186,-689.129 2182.5,-699.129 2189.5,-699.129"/>
</g>
<!-- inicial -->
<g id="node66" class="node"><title>inicial</title>
<ellipse fill="#ffffff" stroke="black" cx="2186" cy="-846" rx="38.9134" ry="18"/>
<ellipse fill="none" stroke="black" cx="2186" cy="-846" rx="38.9134" ry="18"/>
<text text-anchor="middle" x="2186" y="-841.9" font-family="Times Roman,serif" font-size="14.00">inicial</text>
</g>
<!-- inicial&#45;&gt;Por_correspondencia -->
<g id="edge94" class="edge"><title>inicial&#45;&gt;Por_correspondencia</title>
<path fill="none" stroke="black" d="M2186,-827.824C2186,-816.223 2186,-800.84 2186,-787.12"/>
<polygon fill="black" stroke="black" points="2189.5,-787.043 2186,-777.043 2182.5,-787.043 2189.5,-787.043"/>
</g>
<!-- final_stats -->
<g id="node68" class="node"><title>final_stats</title>
<polygon fill="none" stroke="black" stroke-dasharray="5,2" points="1642,-131 1574,-131 1574,-89 1642,-89 1642,-131"/>
<text text-anchor="start" x="1582" y="-116.733" font-family="Times Roman,serif" font-size="14.00">Total: 0</text>
<text text-anchor="start" x="1603" y="-99.9333" font-family="Times Roman,serif" font-size="14.00"> &#160;</text>
</g>
<!-- final_stats&#45;&gt;final -->
<g id="edge96" class="edge"><title>final_stats&#45;&gt;final</title>
<path fill="none" stroke="black" stroke-dasharray="1,5" d="M1590.84,-88.6621C1579.77,-74.9065 1565.35,-56.9737 1553.8,-42.6158"/>
<polygon fill="black" stroke="black" points="1556.37,-40.2323 1547.38,-34.6339 1550.92,-44.6197 1556.37,-40.2323"/>
</g>
</g>
</svg>
