<?xml version="1.0" encoding="UTF-8" standalone="no"?>
<!DOCTYPE svg PUBLIC "-//W3C//DTD SVG 1.1//EN"
 "http://www.w3.org/Graphics/SVG/1.1/DTD/svg11.dtd">
<!-- Generated by graphviz version 2.26.3 (20100126.1600)
 -->
<!-- Title: G Pages: 1 -->
<svg width="2302pt" height="1514pt"
 viewBox="0.00 0.00 2302.00 1514.00" xmlns="http://www.w3.org/2000/svg" xmlns:xlink="http://www.w3.org/1999/xlink">
<g id="graph1" class="graph" transform="scale(1 1) rotate(0) translate(4 1510)">
<title>G</title>
<polygon fill="white" stroke="white" points="-4,5 -4,-1510 2299,-1510 2299,5 -4,5"/>
<!-- Aprobada -->
<g id="node1" class="node"><title>Aprobada</title>
<polygon fill="#ffffff" stroke="#ffffff" points="984,-629.5 1066,-629.5 1078,-641.5 1078,-690.5 1066,-702.5 984,-702.5 972,-690.5 972,-641.5 984,-629.5"/>
<path fill="#ffffff" stroke="#ffffff" d="M1066,-629.5C1072,-629.5 1078,-635.5 1078,-641.5"/>
<path fill="#ffffff" stroke="#ffffff" d="M1078,-690.5C1078,-696.5 1072,-702.5 1066,-702.5"/>
<path fill="#ffffff" stroke="#ffffff" d="M984,-702.5C978,-702.5 972,-696.5 972,-690.5"/>
<path fill="#ffffff" stroke="#ffffff" d="M972,-641.5C972,-635.5 978,-629.5 984,-629.5"/>
<polyline fill="none" stroke="black" points="984,-629.5 1066,-629.5 "/>
<path fill="none" stroke="black" d="M1066,-629.5C1072,-629.5 1078,-635.5 1078,-641.5"/>
<polyline fill="none" stroke="black" points="1078,-641.5 1078,-690.5 "/>
<path fill="none" stroke="black" d="M1078,-690.5C1078,-696.5 1072,-702.5 1066,-702.5"/>
<polyline fill="none" stroke="black" points="1066,-702.5 984,-702.5 "/>
<path fill="none" stroke="black" d="M984,-702.5C978,-702.5 972,-696.5 972,-690.5"/>
<polyline fill="none" stroke="black" points="972,-690.5 972,-641.5 "/>
<path fill="none" stroke="black" d="M972,-641.5C972,-635.5 978,-629.5 984,-629.5"/>
<text text-anchor="middle" x="1025" y="-685.9" font-family="Helvetica,sans-Serif" font-size="14.00">Aprobada</text>
<text text-anchor="middle" x="1025" y="-666.9" font-family="Helvetica,sans-Serif" font-size="14.00">Aprobar_Actas</text>
<polyline fill="none" stroke="black" points="972,-656.5 1078,-656.5 "/>
<text text-anchor="middle" x="1025" y="-639.9" font-family="Helvetica,sans-Serif" font-size="14.00">or</text>
</g>
<!-- firma_presidente -->
<g id="node3" class="node"><title>firma_presidente</title>
<polygon fill="#ffffff" stroke="black" points="236,-527 114,-527 114,-481 236,-481 236,-527"/>
<polygon fill="none" stroke="black" points="236,-527 114,-527 114,-481 236,-481 236,-527"/>
<text text-anchor="middle" x="175" y="-510.4" font-family="Helvetica,sans-Serif" font-size="14.00">firma_presidente</text>
<text text-anchor="middle" x="175" y="-491.4" font-family="Helvetica,sans-Serif" font-size="14.00">Firma_presidente</text>
</g>
<!-- Aprobada&#45;&gt;firma_presidente -->
<g id="edge2" class="edge"><title>Aprobada&#45;&gt;firma_presidente</title>
<path fill="none" stroke="black" d="M971.888,-632.505C968.933,-631.211 965.96,-630.03 963,-629 658.98,-523.234 555.383,-619.306 245,-534 241.235,-532.965 237.407,-531.77 233.581,-530.465"/>
<polygon fill="black" stroke="black" points="234.705,-527.15 224.111,-527.024 232.315,-533.729 234.705,-527.15"/>
</g>
<!-- firma_Consejeros_1 -->
<g id="node5" class="node"><title>firma_Consejeros_1</title>
<polygon fill="#ffffff" stroke="black" points="392,-527 254,-527 254,-481 392,-481 392,-527"/>
<polygon fill="none" stroke="black" points="392,-527 254,-527 254,-481 392,-481 392,-527"/>
<text text-anchor="middle" x="323" y="-510.4" font-family="Helvetica,sans-Serif" font-size="14.00">firma_Consejeros_1</text>
<text text-anchor="middle" x="323" y="-491.4" font-family="Helvetica,sans-Serif" font-size="14.00">Firma_Consejero_1</text>
</g>
<!-- Aprobada&#45;&gt;firma_Consejeros_1 -->
<g id="edge4" class="edge"><title>Aprobada&#45;&gt;firma_Consejeros_1</title>
<path fill="none" stroke="black" d="M971.842,-632.634C968.898,-631.307 965.941,-630.083 963,-629 725.277,-541.483 645.324,-600.913 401,-534 396.986,-532.901 392.891,-531.671 388.786,-530.354"/>
<polygon fill="black" stroke="black" points="389.811,-527.006 379.217,-527.142 387.584,-533.642 389.811,-527.006"/>
</g>
<!-- firma_Consejeros_2 -->
<g id="node7" class="node"><title>firma_Consejeros_2</title>
<polygon fill="#ffffff" stroke="black" points="548,-527 410,-527 410,-481 548,-481 548,-527"/>
<polygon fill="none" stroke="black" points="548,-527 410,-527 410,-481 548,-481 548,-527"/>
<text text-anchor="middle" x="479" y="-510.4" font-family="Helvetica,sans-Serif" font-size="14.00">firma_Consejeros_2</text>
<text text-anchor="middle" x="479" y="-491.4" font-family="Helvetica,sans-Serif" font-size="14.00">Firma_Consejero_2</text>
</g>
<!-- Aprobada&#45;&gt;firma_Consejeros_2 -->
<g id="edge6" class="edge"><title>Aprobada&#45;&gt;firma_Consejeros_2</title>
<path fill="none" stroke="black" d="M971.756,-632.857C968.835,-631.471 965.906,-630.174 963,-629 791.174,-559.582 734.123,-588.502 557,-534 553.284,-532.857 549.491,-531.624 545.679,-530.333"/>
<polygon fill="black" stroke="black" points="546.788,-527.013 536.193,-527.022 544.481,-533.622 546.788,-527.013"/>
</g>
<!-- firma_Consejeros_3 -->
<g id="node9" class="node"><title>firma_Consejeros_3</title>
<polygon fill="#ffffff" stroke="black" points="704,-527 566,-527 566,-481 704,-481 704,-527"/>
<polygon fill="none" stroke="black" points="704,-527 566,-527 566,-481 704,-481 704,-527"/>
<text text-anchor="middle" x="635" y="-510.4" font-family="Helvetica,sans-Serif" font-size="14.00">firma_Consejeros_3</text>
<text text-anchor="middle" x="635" y="-491.4" font-family="Helvetica,sans-Serif" font-size="14.00">Firma_Consejero_3</text>
</g>
<!-- Aprobada&#45;&gt;firma_Consejeros_3 -->
<g id="edge8" class="edge"><title>Aprobada&#45;&gt;firma_Consejeros_3</title>
<path fill="none" stroke="black" d="M971.893,-633.504C968.911,-631.932 965.934,-630.419 963,-629 856.001,-577.235 824.026,-576.446 713,-534 710.177,-532.921 707.298,-531.819 704.389,-530.705"/>
<polygon fill="black" stroke="black" points="705.625,-527.43 695.035,-527.118 703.119,-533.966 705.625,-527.43"/>
</g>
<!-- firma_Consejeros_4 -->
<g id="node11" class="node"><title>firma_Consejeros_4</title>
<polygon fill="#ffffff" stroke="black" points="860,-527 722,-527 722,-481 860,-481 860,-527"/>
<polygon fill="none" stroke="black" points="860,-527 722,-527 722,-481 860,-481 860,-527"/>
<text text-anchor="middle" x="791" y="-510.4" font-family="Helvetica,sans-Serif" font-size="14.00">firma_Consejeros_4</text>
<text text-anchor="middle" x="791" y="-491.4" font-family="Helvetica,sans-Serif" font-size="14.00">Firma_Consejero_4</text>
</g>
<!-- Aprobada&#45;&gt;firma_Consejeros_4 -->
<g id="edge10" class="edge"><title>Aprobada&#45;&gt;firma_Consejeros_4</title>
<path fill="none" stroke="black" d="M972.194,-629.442C930.087,-600.291 871.914,-560.017 832.952,-533.043"/>
<polygon fill="black" stroke="black" points="834.671,-529.977 824.457,-527.162 830.686,-535.732 834.671,-529.977"/>
</g>
<!-- firma_Consejeros_5 -->
<g id="node13" class="node"><title>firma_Consejeros_5</title>
<polygon fill="#ffffff" stroke="black" points="1016,-527 878,-527 878,-481 1016,-481 1016,-527"/>
<polygon fill="none" stroke="black" points="1016,-527 878,-527 878,-481 1016,-481 1016,-527"/>
<text text-anchor="middle" x="947" y="-510.4" font-family="Helvetica,sans-Serif" font-size="14.00">firma_Consejeros_5</text>
<text text-anchor="middle" x="947" y="-491.4" font-family="Helvetica,sans-Serif" font-size="14.00">Firma_Consejero_5</text>
</g>
<!-- Aprobada&#45;&gt;firma_Consejeros_5 -->
<g id="edge12" class="edge"><title>Aprobada&#45;&gt;firma_Consejeros_5</title>
<path fill="none" stroke="black" d="M1007.3,-629.24C993.85,-601.304 975.523,-563.241 962.615,-536.431"/>
<polygon fill="black" stroke="black" points="965.615,-534.595 958.124,-527.103 959.308,-537.631 965.615,-534.595"/>
</g>
<!-- firma_Consejeros_6 -->
<g id="node15" class="node"><title>firma_Consejeros_6</title>
<polygon fill="#ffffff" stroke="black" points="1172,-527 1034,-527 1034,-481 1172,-481 1172,-527"/>
<polygon fill="none" stroke="black" points="1172,-527 1034,-527 1034,-481 1172,-481 1172,-527"/>
<text text-anchor="middle" x="1103" y="-510.4" font-family="Helvetica,sans-Serif" font-size="14.00">firma_Consejeros_6</text>
<text text-anchor="middle" x="1103" y="-491.4" font-family="Helvetica,sans-Serif" font-size="14.00">Firma_Consejero_6</text>
</g>
<!-- Aprobada&#45;&gt;firma_Consejeros_6 -->
<g id="edge14" class="edge"><title>Aprobada&#45;&gt;firma_Consejeros_6</title>
<path fill="none" stroke="black" d="M1042.7,-629.24C1056.15,-601.304 1074.48,-563.241 1087.38,-536.431"/>
<polygon fill="black" stroke="black" points="1090.69,-537.631 1091.88,-527.103 1084.38,-534.595 1090.69,-537.631"/>
</g>
<!-- firma_Consejeros_7 -->
<g id="node17" class="node"><title>firma_Consejeros_7</title>
<polygon fill="#ffffff" stroke="black" points="1328,-527 1190,-527 1190,-481 1328,-481 1328,-527"/>
<polygon fill="none" stroke="black" points="1328,-527 1190,-527 1190,-481 1328,-481 1328,-527"/>
<text text-anchor="middle" x="1259" y="-510.4" font-family="Helvetica,sans-Serif" font-size="14.00">firma_Consejeros_7</text>
<text text-anchor="middle" x="1259" y="-491.4" font-family="Helvetica,sans-Serif" font-size="14.00">Firma_Consejero_7</text>
</g>
<!-- Aprobada&#45;&gt;firma_Consejeros_7 -->
<g id="edge16" class="edge"><title>Aprobada&#45;&gt;firma_Consejeros_7</title>
<path fill="none" stroke="black" d="M1077.81,-629.442C1119.91,-600.291 1178.09,-560.017 1217.05,-533.043"/>
<polygon fill="black" stroke="black" points="1219.31,-535.732 1225.54,-527.162 1215.33,-529.977 1219.31,-535.732"/>
</g>
<!-- firma_Consejeros_8 -->
<g id="node19" class="node"><title>firma_Consejeros_8</title>
<polygon fill="#ffffff" stroke="black" points="1484,-527 1346,-527 1346,-481 1484,-481 1484,-527"/>
<polygon fill="none" stroke="black" points="1484,-527 1346,-527 1346,-481 1484,-481 1484,-527"/>
<text text-anchor="middle" x="1415" y="-510.4" font-family="Helvetica,sans-Serif" font-size="14.00">firma_Consejeros_8</text>
<text text-anchor="middle" x="1415" y="-491.4" font-family="Helvetica,sans-Serif" font-size="14.00">Firma_Consejero_8</text>
</g>
<!-- Aprobada&#45;&gt;firma_Consejeros_8 -->
<g id="edge18" class="edge"><title>Aprobada&#45;&gt;firma_Consejeros_8</title>
<path fill="none" stroke="black" d="M1078.11,-633.504C1081.09,-631.932 1084.07,-630.419 1087,-629 1194,-577.235 1225.97,-576.446 1337,-534 1339.82,-532.921 1342.7,-531.819 1345.61,-530.705"/>
<polygon fill="black" stroke="black" points="1346.88,-533.966 1354.97,-527.118 1344.37,-527.43 1346.88,-533.966"/>
</g>
<!-- firma_Consejeros_9 -->
<g id="node21" class="node"><title>firma_Consejeros_9</title>
<polygon fill="#ffffff" stroke="black" points="1640,-527 1502,-527 1502,-481 1640,-481 1640,-527"/>
<polygon fill="none" stroke="black" points="1640,-527 1502,-527 1502,-481 1640,-481 1640,-527"/>
<text text-anchor="middle" x="1571" y="-510.4" font-family="Helvetica,sans-Serif" font-size="14.00">firma_Consejeros_9</text>
<text text-anchor="middle" x="1571" y="-491.4" font-family="Helvetica,sans-Serif" font-size="14.00">Firma_Consejero_9</text>
</g>
<!-- Aprobada&#45;&gt;firma_Consejeros_9 -->
<g id="edge20" class="edge"><title>Aprobada&#45;&gt;firma_Consejeros_9</title>
<path fill="none" stroke="black" d="M1078.24,-632.857C1081.17,-631.471 1084.09,-630.174 1087,-629 1258.83,-559.582 1315.88,-588.502 1493,-534 1496.72,-532.857 1500.51,-531.624 1504.32,-530.333"/>
<polygon fill="black" stroke="black" points="1505.52,-533.622 1513.81,-527.022 1503.21,-527.013 1505.52,-533.622"/>
</g>
<!-- firma_Consejeros_10 -->
<g id="node23" class="node"><title>firma_Consejeros_10</title>
<polygon fill="#ffffff" stroke="black" points="1804,-527 1658,-527 1658,-481 1804,-481 1804,-527"/>
<polygon fill="none" stroke="black" points="1804,-527 1658,-527 1658,-481 1804,-481 1804,-527"/>
<text text-anchor="middle" x="1731" y="-510.4" font-family="Helvetica,sans-Serif" font-size="14.00">firma_Consejeros_10</text>
<text text-anchor="middle" x="1731" y="-491.4" font-family="Helvetica,sans-Serif" font-size="14.00">Firma_Consejero_10</text>
</g>
<!-- Aprobada&#45;&gt;firma_Consejeros_10 -->
<g id="edge22" class="edge"><title>Aprobada&#45;&gt;firma_Consejeros_10</title>
<path fill="none" stroke="black" d="M1078.16,-632.634C1081.1,-631.307 1084.06,-630.083 1087,-629 1324.72,-541.483 1404.13,-598.902 1649,-534 1653.32,-532.855 1657.73,-531.576 1662.16,-530.208"/>
<polygon fill="black" stroke="black" points="1663.4,-533.487 1671.84,-527.092 1661.25,-526.824 1663.4,-533.487"/>
</g>
<!-- firma_Consejeros_11 -->
<g id="node25" class="node"><title>firma_Consejeros_11</title>
<polygon fill="#ffffff" stroke="black" points="1968,-527 1822,-527 1822,-481 1968,-481 1968,-527"/>
<polygon fill="none" stroke="black" points="1968,-527 1822,-527 1822,-481 1968,-481 1968,-527"/>
<text text-anchor="middle" x="1895" y="-510.4" font-family="Helvetica,sans-Serif" font-size="14.00">firma_Consejeros_11</text>
<text text-anchor="middle" x="1895" y="-491.4" font-family="Helvetica,sans-Serif" font-size="14.00">Firma_Consejero_11</text>
</g>
<!-- Aprobada&#45;&gt;firma_Consejeros_11 -->
<g id="edge24" class="edge"><title>Aprobada&#45;&gt;firma_Consejeros_11</title>
<path fill="none" stroke="black" d="M1078.11,-632.5C1081.07,-631.207 1084.04,-630.028 1087,-629 1394.43,-522.296 1496.94,-611.486 1813,-534 1817.63,-532.864 1822.37,-531.554 1827.1,-530.13"/>
<polygon fill="black" stroke="black" points="1828.33,-533.415 1836.81,-527.066 1826.22,-526.74 1828.33,-533.415"/>
</g>
<!-- firma_Consejeros_12 -->
<g id="node27" class="node"><title>firma_Consejeros_12</title>
<polygon fill="#ffffff" stroke="black" points="2132,-527 1986,-527 1986,-481 2132,-481 2132,-527"/>
<polygon fill="none" stroke="black" points="2132,-527 1986,-527 1986,-481 2132,-481 2132,-527"/>
<text text-anchor="middle" x="2059" y="-510.4" font-family="Helvetica,sans-Serif" font-size="14.00">firma_Consejeros_12</text>
<text text-anchor="middle" x="2059" y="-491.4" font-family="Helvetica,sans-Serif" font-size="14.00">Firma_Consejero_12</text>
</g>
<!-- Aprobada&#45;&gt;firma_Consejeros_12 -->
<g id="edge26" class="edge"><title>Aprobada&#45;&gt;firma_Consejeros_12</title>
<path fill="none" stroke="black" d="M1078.08,-632.413C1081.04,-631.144 1084.03,-629.992 1087,-629 1464.33,-503.037 1589.54,-624.122 1977,-534 1981.73,-532.899 1986.57,-531.603 1991.4,-530.178"/>
<polygon fill="black" stroke="black" points="1992.79,-533.412 2001.3,-527.095 1990.71,-526.729 1992.79,-533.412"/>
</g>
<!-- Pasar_libro -->
<g id="node40" class="node"><title>Pasar_libro</title>
<polygon fill="#ffffff" stroke="#ffffff" points="1130,-305.5 1232,-305.5 1244,-317.5 1244,-366.5 1232,-378.5 1130,-378.5 1118,-366.5 1118,-317.5 1130,-305.5"/>
<path fill="#ffffff" stroke="#ffffff" d="M1232,-305.5C1238,-305.5 1244,-311.5 1244,-317.5"/>
<path fill="#ffffff" stroke="#ffffff" d="M1244,-366.5C1244,-372.5 1238,-378.5 1232,-378.5"/>
<path fill="#ffffff" stroke="#ffffff" d="M1130,-378.5C1124,-378.5 1118,-372.5 1118,-366.5"/>
<path fill="#ffffff" stroke="#ffffff" d="M1118,-317.5C1118,-311.5 1124,-305.5 1130,-305.5"/>
<polyline fill="none" stroke="black" points="1130,-305.5 1232,-305.5 "/>
<path fill="none" stroke="black" d="M1232,-305.5C1238,-305.5 1244,-311.5 1244,-317.5"/>
<polyline fill="none" stroke="black" points="1244,-317.5 1244,-366.5 "/>
<path fill="none" stroke="black" d="M1244,-366.5C1244,-372.5 1238,-378.5 1232,-378.5"/>
<polyline fill="none" stroke="black" points="1232,-378.5 1130,-378.5 "/>
<path fill="none" stroke="black" d="M1130,-378.5C1124,-378.5 1118,-372.5 1118,-366.5"/>
<polyline fill="none" stroke="black" points="1118,-366.5 1118,-317.5 "/>
<path fill="none" stroke="black" d="M1118,-317.5C1118,-311.5 1124,-305.5 1130,-305.5"/>
<text text-anchor="middle" x="1181" y="-361.9" font-family="Helvetica,sans-Serif" font-size="14.00">and</text>
<polyline fill="none" stroke="black" points="1118,-351.5 1244,-351.5 "/>
<text text-anchor="middle" x="1181" y="-334.9" font-family="Helvetica,sans-Serif" font-size="14.00">Pasar_libro</text>
<text text-anchor="middle" x="1181" y="-315.9" font-family="Helvetica,sans-Serif" font-size="14.00">Pasar_Actas_libro</text>
</g>
<!-- firma_presidente&#45;&gt;Pasar_libro -->
<g id="edge98" class="edge"><title>firma_presidente&#45;&gt;Pasar_libro</title>
<path fill="none" stroke="black" d="M223.689,-480.98C230.725,-478.29 237.967,-475.85 245,-474 615.414,-376.57 736.973,-488.305 1108.27,-378.874"/>
<polygon fill="black" stroke="black" points="1109.34,-382.207 1117.93,-375.995 1107.34,-375.499 1109.34,-382.207"/>
</g>
<!-- firma_Consejeros_1&#45;&gt;Pasar_libro -->
<g id="edge50" class="edge"><title>firma_Consejeros_1&#45;&gt;Pasar_libro</title>
<path fill="none" stroke="black" d="M378.301,-480.918C385.841,-478.306 393.55,-475.905 401,-474 705.291,-396.211 803.956,-472.376 1107.92,-379.009"/>
<polygon fill="black" stroke="black" points="1109.39,-382.219 1117.9,-375.907 1107.31,-375.534 1109.39,-382.219"/>
</g>
<!-- firma_Consejeros_2&#45;&gt;Pasar_libro -->
<g id="edge66" class="edge"><title>firma_Consejeros_2&#45;&gt;Pasar_libro</title>
<path fill="none" stroke="black" d="M535.223,-480.878C542.479,-478.338 549.866,-475.965 557,-474 793.836,-408.759 870.869,-456.615 1108.25,-378.951"/>
<polygon fill="black" stroke="black" points="1109.46,-382.238 1117.85,-375.771 1107.26,-375.593 1109.46,-382.238"/>
</g>
<!-- firma_Consejeros_3&#45;&gt;Pasar_libro -->
<g id="edge70" class="edge"><title>firma_Consejeros_3&#45;&gt;Pasar_libro</title>
<path fill="none" stroke="black" d="M692.631,-480.862C699.451,-478.413 706.35,-476.067 713,-474 882.717,-421.256 937.326,-441.167 1108.22,-379.046"/>
<polygon fill="black" stroke="black" points="1109.59,-382.27 1117.77,-375.533 1107.18,-375.7 1109.59,-382.27"/>
</g>
<!-- firma_Consejeros_4&#45;&gt;Pasar_libro -->
<g id="edge74" class="edge"><title>firma_Consejeros_4&#45;&gt;Pasar_libro</title>
<path fill="none" stroke="black" d="M850.592,-480.947C929.386,-450.414 1062.8,-398.517 1108.68,-378.913"/>
<polygon fill="black" stroke="black" points="1110.2,-382.068 1117.96,-374.848 1107.39,-375.657 1110.2,-382.068"/>
</g>
<!-- firma_Consejeros_5&#45;&gt;Pasar_libro -->
<g id="edge78" class="edge"><title>firma_Consejeros_5&#45;&gt;Pasar_libro</title>
<path fill="none" stroke="black" d="M980.526,-480.789C1016.74,-455.721 1075.2,-415.243 1119.68,-384.454"/>
<polygon fill="black" stroke="black" points="1121.86,-387.199 1128.09,-378.629 1117.88,-381.444 1121.86,-387.199"/>
</g>
<!-- firma_Consejeros_6&#45;&gt;Pasar_libro -->
<g id="edge82" class="edge"><title>firma_Consejeros_6&#45;&gt;Pasar_libro</title>
<path fill="none" stroke="black" d="M1114.18,-480.789C1125.82,-456.607 1144.37,-418.085 1158.97,-387.754"/>
<polygon fill="black" stroke="black" points="1162.18,-389.157 1163.36,-378.629 1155.87,-386.121 1162.18,-389.157"/>
</g>
<!-- firma_Consejeros_7&#45;&gt;Pasar_libro -->
<g id="edge86" class="edge"><title>firma_Consejeros_7&#45;&gt;Pasar_libro</title>
<path fill="none" stroke="black" d="M1247.82,-480.789C1236.18,-456.607 1217.63,-418.085 1203.03,-387.754"/>
<polygon fill="black" stroke="black" points="1206.13,-386.121 1198.64,-378.629 1199.82,-389.157 1206.13,-386.121"/>
</g>
<!-- firma_Consejeros_8&#45;&gt;Pasar_libro -->
<g id="edge90" class="edge"><title>firma_Consejeros_8&#45;&gt;Pasar_libro</title>
<path fill="none" stroke="black" d="M1381.47,-480.789C1345.26,-455.721 1286.8,-415.243 1242.32,-384.454"/>
<polygon fill="black" stroke="black" points="1244.12,-381.444 1233.91,-378.629 1240.14,-387.199 1244.12,-381.444"/>
</g>
<!-- firma_Consejeros_9&#45;&gt;Pasar_libro -->
<g id="edge94" class="edge"><title>firma_Consejeros_9&#45;&gt;Pasar_libro</title>
<path fill="none" stroke="black" d="M1515.54,-480.961C1446.77,-452.395 1329.37,-403.632 1253.52,-372.125"/>
<polygon fill="black" stroke="black" points="1254.6,-368.784 1244.03,-368.18 1251.92,-375.248 1254.6,-368.784"/>
</g>
<!-- firma_Consejeros_10&#45;&gt;Pasar_libro -->
<g id="edge54" class="edge"><title>firma_Consejeros_10&#45;&gt;Pasar_libro</title>
<path fill="none" stroke="black" d="M1669.39,-480.89C1662.53,-478.489 1655.63,-476.146 1649,-474 1510.66,-429.257 1346.64,-384.973 1254.11,-360.781"/>
<polygon fill="black" stroke="black" points="1254.84,-357.356 1244.28,-358.218 1253.08,-364.129 1254.84,-357.356"/>
</g>
<!-- firma_Consejeros_11&#45;&gt;Pasar_libro -->
<g id="edge58" class="edge"><title>firma_Consejeros_11&#45;&gt;Pasar_libro</title>
<path fill="none" stroke="black" d="M1834.87,-480.879C1827.55,-478.399 1820.14,-476.041 1813,-474 1613.76,-417.072 1372.71,-373.529 1254.13,-353.726"/>
<polygon fill="black" stroke="black" points="1254.52,-350.242 1244.08,-352.055 1253.37,-357.147 1254.52,-350.242"/>
</g>
<!-- firma_Consejeros_12&#45;&gt;Pasar_libro -->
<g id="edge62" class="edge"><title>firma_Consejeros_12&#45;&gt;Pasar_libro</title>
<path fill="none" stroke="black" d="M1999.85,-480.885C1992.23,-478.344 1984.48,-475.969 1977,-474 1715.5,-405.126 1395.75,-365.065 1254.3,-349.527"/>
<polygon fill="black" stroke="black" points="1254.34,-346.01 1244.02,-348.406 1253.58,-352.969 1254.34,-346.01"/>
</g>
<!-- Aprobada_stats -->
<g id="node28" class="node"><title>Aprobada_stats</title>
<polygon fill="none" stroke="black" stroke-dasharray="5,2" points="1021,-857.5 877,-857.5 877,-798.5 1021,-798.5 1021,-857.5"/>
<text text-anchor="start" x="885.5" y="-843.233" font-family="Times Roman,serif" font-size="14.00">Porcentaje: 0.00%</text>
<text text-anchor="start" x="894.5" y="-826.433" font-family="Times Roman,serif" font-size="14.00">Documentos: &#160;0</text>
<text text-anchor="start" x="923" y="-809.633" font-family="Times Roman,serif" font-size="14.00">Total: 1</text>
</g>
<!-- Aprobada_stats&#45;&gt;Aprobada -->
<g id="edge28" class="edge"><title>Aprobada_stats&#45;&gt;Aprobada</title>
<path fill="none" stroke="black" stroke-dasharray="1,5" d="M962.94,-798.287C974.297,-774.077 990.526,-739.483 1003.54,-711.744"/>
<polygon fill="black" stroke="black" points="1006.74,-713.164 1007.82,-702.624 1000.4,-710.191 1006.74,-713.164"/>
</g>
<!-- Convocada -->
<g id="node30" class="node"><title>Convocada</title>
<polygon fill="#ffff99" stroke="black" points="987,-1175 861,-1175 861,-1129 987,-1129 987,-1175"/>
<polygon fill="none" stroke="black" points="987,-1175 861,-1175 861,-1129 987,-1129 987,-1175"/>
<text text-anchor="middle" x="924" y="-1158.4" font-family="Helvetica,sans-Serif" font-size="14.00">Convocada</text>
<text text-anchor="middle" x="924" y="-1139.4" font-family="Helvetica,sans-Serif" font-size="14.00">Convocar_reunion</text>
</g>
<!-- Pautada -->
<g id="node32" class="node"><title>Pautada</title>
<polygon fill="#ffff00" stroke="black" points="1085,-1013 969,-1013 969,-967 1085,-967 1085,-1013"/>
<polygon fill="none" stroke="black" points="1085,-1013 969,-1013 969,-967 1085,-967 1085,-1013"/>
<text text-anchor="middle" x="1027" y="-996.4" font-family="Helvetica,sans-Serif" font-size="14.00">Pautada</text>
<text text-anchor="middle" x="1027" y="-977.4" font-family="Helvetica,sans-Serif" font-size="14.00">Validar_Quorum</text>
</g>
<!-- Convocada&#45;&gt;Pautada -->
<g id="edge30" class="edge"><title>Convocada&#45;&gt;Pautada</title>
<path fill="none" stroke="black" d="M938.757,-1128.79C956.579,-1100.76 986.648,-1053.47 1006.66,-1021.99"/>
<polygon fill="black" stroke="black" points="1009.86,-1023.48 1012.27,-1013.17 1003.95,-1019.73 1009.86,-1023.48"/>
</g>
<!-- Realizada -->
<g id="node45" class="node"><title>Realizada</title>
<polygon fill="#ffffff" stroke="black" points="1163,-851 1039,-851 1039,-805 1163,-805 1163,-851"/>
<polygon fill="none" stroke="black" points="1163,-851 1039,-851 1039,-805 1163,-805 1163,-851"/>
<text text-anchor="middle" x="1101" y="-834.4" font-family="Helvetica,sans-Serif" font-size="14.00">Realizada</text>
<text text-anchor="middle" x="1101" y="-815.4" font-family="Helvetica,sans-Serif" font-size="14.00">Registrar_reunion</text>
</g>
<!-- Pautada&#45;&gt;Realizada -->
<g id="edge42" class="edge"><title>Pautada&#45;&gt;Realizada</title>
<path fill="none" stroke="black" d="M1037.6,-966.789C1050.35,-938.88 1071.82,-891.872 1086.2,-860.398"/>
<polygon fill="black" stroke="black" points="1089.45,-861.718 1090.42,-851.168 1083.08,-858.809 1089.45,-861.718"/>
</g>
<!-- Convocada_stats -->
<g id="node33" class="node"><title>Convocada_stats</title>
<polygon fill="none" stroke="black" stroke-dasharray="5,2" points="959,-1377 707,-1377 707,-1251 959,-1251 959,-1377"/>
<text text-anchor="start" x="765" y="-1362.73" font-family="Times Roman,serif" font-size="14.00">Porcentaje: 40.00%</text>
<text text-anchor="start" x="763.5" y="-1345.93" font-family="Times Roman,serif" font-size="14.00">Nro Documentos: &#160;0</text>
<text text-anchor="start" x="807" y="-1329.13" font-family="Times Roman,serif" font-size="14.00">Total: 1</text>
<text text-anchor="start" x="809" y="-1312.33" font-family="Times Roman,serif" font-size="14.00">vbravo</text>
<text text-anchor="start" x="759" y="-1295.53" font-family="Times Roman,serif" font-size="14.00">02/07/2013 03:56pm</text>
<text text-anchor="start" x="715.5" y="-1278.73" font-family="Times Roman,serif" font-size="14.00">hace 37 meses y 3 semanas &#160;llego</text>
<text text-anchor="start" x="820.5" y="-1261.93" font-family="Times Roman,serif" font-size="14.00">N/A</text>
</g>
<!-- Convocada_stats&#45;&gt;Convocada -->
<g id="edge32" class="edge"><title>Convocada_stats&#45;&gt;Convocada</title>
<path fill="none" stroke="black" stroke-dasharray="1,5" d="M868.444,-1250.9C881.31,-1228 895.305,-1203.08 906.03,-1183.99"/>
<polygon fill="black" stroke="black" points="909.167,-1185.55 911.013,-1175.12 903.064,-1182.12 909.167,-1185.55"/>
</g>
<!-- En_libro -->
<g id="node35" class="node"><title>En_libro</title>
<polygon fill="#ffffff" stroke="black" points="1157,-203 1051,-203 1051,-157 1157,-157 1157,-203"/>
<polygon fill="none" stroke="black" points="1157,-203 1051,-203 1051,-157 1157,-157 1157,-203"/>
<text text-anchor="middle" x="1104" y="-186.4" font-family="Helvetica,sans-Serif" font-size="14.00">En_libro</text>
<text text-anchor="middle" x="1104" y="-167.4" font-family="Helvetica,sans-Serif" font-size="14.00">Actas_en_libro</text>
</g>
<!-- final -->
<g id="node37" class="node"><title>final</title>
<ellipse fill="#ffffff" stroke="black" cx="1180" cy="-18" rx="31.9646" ry="18"/>
<ellipse fill="none" stroke="black" cx="1180" cy="-18" rx="31.9646" ry="18"/>
<text text-anchor="middle" x="1180" y="-13.9" font-family="Times Roman,serif" font-size="14.00">final</text>
</g>
<!-- En_libro&#45;&gt;final -->
<g id="edge34" class="edge"><title>En_libro&#45;&gt;final</title>
<path fill="none" stroke="black" d="M1114.89,-156.789C1128.74,-127.264 1152.62,-76.3628 1167.29,-45.0924"/>
<polygon fill="black" stroke="black" points="1170.63,-46.2213 1171.7,-35.6815 1164.29,-43.2482 1170.63,-46.2213"/>
</g>
<!-- En_libro_stats -->
<g id="node38" class="node"><title>En_libro_stats</title>
<polygon fill="none" stroke="black" stroke-dasharray="5,2" points="1100,-371.5 956,-371.5 956,-312.5 1100,-312.5 1100,-371.5"/>
<text text-anchor="start" x="964.5" y="-357.233" font-family="Times Roman,serif" font-size="14.00">Porcentaje: 0.00%</text>
<text text-anchor="start" x="973.5" y="-340.433" font-family="Times Roman,serif" font-size="14.00">Documentos: &#160;0</text>
<text text-anchor="start" x="1002" y="-323.633" font-family="Times Roman,serif" font-size="14.00">Total: 1</text>
</g>
<!-- En_libro_stats&#45;&gt;En_libro -->
<g id="edge36" class="edge"><title>En_libro_stats&#45;&gt;En_libro</title>
<path fill="none" stroke="black" stroke-dasharray="1,5" d="M1041.94,-312.287C1055.18,-284.056 1075.05,-241.705 1088.72,-212.568"/>
<polygon fill="black" stroke="black" points="1092.02,-213.772 1093.1,-203.232 1085.69,-210.799 1092.02,-213.772"/>
</g>
<!-- Pasar_libro&#45;&gt;En_libro -->
<g id="edge38" class="edge"><title>Pasar_libro&#45;&gt;En_libro</title>
<path fill="none" stroke="black" d="M1163.53,-305.24C1150.25,-277.304 1132.16,-239.241 1119.41,-212.431"/>
<polygon fill="black" stroke="black" points="1122.44,-210.632 1114.98,-203.103 1116.11,-213.637 1122.44,-210.632"/>
</g>
<!-- Pasar_libro_stats -->
<g id="node42" class="node"><title>Pasar_libro_stats</title>
<polygon fill="none" stroke="black" stroke-dasharray="5,2" points="2294,-533.5 2150,-533.5 2150,-474.5 2294,-474.5 2294,-533.5"/>
<text text-anchor="start" x="2158.5" y="-519.233" font-family="Times Roman,serif" font-size="14.00">Porcentaje: 0.00%</text>
<text text-anchor="start" x="2167.5" y="-502.433" font-family="Times Roman,serif" font-size="14.00">Documentos: &#160;0</text>
<text text-anchor="start" x="2196" y="-485.633" font-family="Times Roman,serif" font-size="14.00">Total: 1</text>
</g>
<!-- Pasar_libro_stats&#45;&gt;Pasar_libro -->
<g id="edge40" class="edge"><title>Pasar_libro_stats&#45;&gt;Pasar_libro</title>
<path fill="none" stroke="black" stroke-dasharray="1,5" d="M2149.82,-476.38C2146.86,-475.528 2143.91,-474.729 2141,-474 1816.46,-392.624 1416.77,-358.019 1254.57,-346.628"/>
<polygon fill="black" stroke="black" points="1254.45,-343.111 1244.24,-345.911 1253.97,-350.095 1254.45,-343.111"/>
</g>
<!-- Realizada&#45;&gt;Aprobada -->
<g id="edge46" class="edge"><title>Realizada&#45;&gt;Aprobada</title>
<path fill="none" stroke="black" d="M1090.11,-804.789C1078.77,-780.607 1060.69,-742.085 1046.46,-711.754"/>
<polygon fill="black" stroke="black" points="1049.6,-710.196 1042.18,-702.629 1043.26,-713.169 1049.6,-710.196"/>
</g>
<!-- Pautada_stats -->
<g id="node46" class="node"><title>Pautada_stats</title>
<polygon fill="none" stroke="black" stroke-dasharray="5,2" points="1255,-1215 1005,-1215 1005,-1089 1255,-1089 1255,-1215"/>
<text text-anchor="start" x="1057.5" y="-1200.73" font-family="Times Roman,serif" font-size="14.00">Porcentaje: 100.00%</text>
<text text-anchor="start" x="1060.5" y="-1183.93" font-family="Times Roman,serif" font-size="14.00">Nro Documentos: &#160;1</text>
<text text-anchor="start" x="1104" y="-1167.13" font-family="Times Roman,serif" font-size="14.00">Total: 1</text>
<text text-anchor="start" x="1106" y="-1150.33" font-family="Times Roman,serif" font-size="14.00">vbravo</text>
<text text-anchor="start" x="1056" y="-1133.53" font-family="Times Roman,serif" font-size="14.00">31/05/2016 10:27am</text>
<text text-anchor="start" x="1056" y="-1116.73" font-family="Times Roman,serif" font-size="14.00">hace 2 minutos &#160;llego</text>
<text text-anchor="start" x="1013.5" y="-1099.93" font-family="Times Roman,serif" font-size="14.00">37 meses y 3 semanas &#160;en espera</text>
</g>
<!-- Pautada_stats&#45;&gt;Pautada -->
<g id="edge44" class="edge"><title>Pautada_stats&#45;&gt;Pautada</title>
<path fill="none" stroke="black" stroke-dasharray="1,5" d="M1089.88,-1088.9C1075.25,-1065.89 1059.33,-1040.86 1047.17,-1021.73"/>
<polygon fill="black" stroke="black" points="1050.02,-1019.68 1041.7,-1013.12 1044.11,-1023.44 1050.02,-1019.68"/>
</g>
<!-- Realizada_stats -->
<g id="node49" class="node"><title>Realizada_stats</title>
<polygon fill="none" stroke="black" stroke-dasharray="5,2" points="1247,-1019.5 1103,-1019.5 1103,-960.5 1247,-960.5 1247,-1019.5"/>
<text text-anchor="start" x="1111.5" y="-1005.23" font-family="Times Roman,serif" font-size="14.00">Porcentaje: 0.00%</text>
<text text-anchor="start" x="1120.5" y="-988.433" font-family="Times Roman,serif" font-size="14.00">Documentos: &#160;0</text>
<text text-anchor="start" x="1149" y="-971.633" font-family="Times Roman,serif" font-size="14.00">Total: 1</text>
</g>
<!-- Realizada_stats&#45;&gt;Realizada -->
<g id="edge48" class="edge"><title>Realizada_stats&#45;&gt;Realizada</title>
<path fill="none" stroke="black" stroke-dasharray="1,5" d="M1161.43,-960.287C1148.53,-932.056 1129.19,-889.705 1115.88,-860.568"/>
<polygon fill="black" stroke="black" points="1118.95,-858.874 1111.61,-851.232 1112.58,-861.782 1118.95,-858.874"/>
</g>
<!-- firma_Consejeros_1_stats -->
<g id="node52" class="node"><title>firma_Consejeros_1_stats</title>
<polygon fill="none" stroke="black" stroke-dasharray="5,2" points="306,-695.5 162,-695.5 162,-636.5 306,-636.5 306,-695.5"/>
<text text-anchor="start" x="170.5" y="-681.233" font-family="Times Roman,serif" font-size="14.00">Porcentaje: 0.00%</text>
<text text-anchor="start" x="179.5" y="-664.433" font-family="Times Roman,serif" font-size="14.00">Documentos: &#160;0</text>
<text text-anchor="start" x="208" y="-647.633" font-family="Times Roman,serif" font-size="14.00">Total: 1</text>
</g>
<!-- firma_Consejeros_1_stats&#45;&gt;firma_Consejeros_1 -->
<g id="edge52" class="edge"><title>firma_Consejeros_1_stats&#45;&gt;firma_Consejeros_1</title>
<path fill="none" stroke="black" stroke-dasharray="1,5" d="M250.324,-636.287C265.901,-607.933 289.303,-565.336 305.316,-536.188"/>
<polygon fill="black" stroke="black" points="308.489,-537.682 310.237,-527.232 302.354,-534.311 308.489,-537.682"/>
</g>
<!-- firma_Consejeros_10_stats -->
<g id="node55" class="node"><title>firma_Consejeros_10_stats</title>
<polygon fill="none" stroke="black" stroke-dasharray="5,2" points="1888,-695.5 1744,-695.5 1744,-636.5 1888,-636.5 1888,-695.5"/>
<text text-anchor="start" x="1752.5" y="-681.233" font-family="Times Roman,serif" font-size="14.00">Porcentaje: 0.00%</text>
<text text-anchor="start" x="1761.5" y="-664.433" font-family="Times Roman,serif" font-size="14.00">Documentos: &#160;0</text>
<text text-anchor="start" x="1790" y="-647.633" font-family="Times Roman,serif" font-size="14.00">Total: 1</text>
</g>
<!-- firma_Consejeros_10_stats&#45;&gt;firma_Consejeros_10 -->
<g id="edge56" class="edge"><title>firma_Consejeros_10_stats&#45;&gt;firma_Consejeros_10</title>
<path fill="none" stroke="black" stroke-dasharray="1,5" d="M1800.41,-636.287C1785.53,-607.933 1763.18,-565.336 1747.89,-536.188"/>
<polygon fill="black" stroke="black" points="1750.94,-534.461 1743.19,-527.232 1744.74,-537.713 1750.94,-534.461"/>
</g>
<!-- firma_Consejeros_11_stats -->
<g id="node58" class="node"><title>firma_Consejeros_11_stats</title>
<polygon fill="none" stroke="black" stroke-dasharray="5,2" points="2050,-695.5 1906,-695.5 1906,-636.5 2050,-636.5 2050,-695.5"/>
<text text-anchor="start" x="1914.5" y="-681.233" font-family="Times Roman,serif" font-size="14.00">Porcentaje: 0.00%</text>
<text text-anchor="start" x="1923.5" y="-664.433" font-family="Times Roman,serif" font-size="14.00">Documentos: &#160;0</text>
<text text-anchor="start" x="1952" y="-647.633" font-family="Times Roman,serif" font-size="14.00">Total: 1</text>
</g>
<!-- firma_Consejeros_11_stats&#45;&gt;firma_Consejeros_11 -->
<g id="edge60" class="edge"><title>firma_Consejeros_11_stats&#45;&gt;firma_Consejeros_11</title>
<path fill="none" stroke="black" stroke-dasharray="1,5" d="M1962.78,-636.287C1948.25,-607.933 1926.43,-565.336 1911.49,-536.188"/>
<polygon fill="black" stroke="black" points="1914.58,-534.536 1906.9,-527.232 1908.35,-537.728 1914.58,-534.536"/>
</g>
<!-- firma_Consejeros_12_stats -->
<g id="node61" class="node"><title>firma_Consejeros_12_stats</title>
<polygon fill="none" stroke="black" stroke-dasharray="5,2" points="2212,-695.5 2068,-695.5 2068,-636.5 2212,-636.5 2212,-695.5"/>
<text text-anchor="start" x="2076.5" y="-681.233" font-family="Times Roman,serif" font-size="14.00">Porcentaje: 0.00%</text>
<text text-anchor="start" x="2085.5" y="-664.433" font-family="Times Roman,serif" font-size="14.00">Documentos: &#160;0</text>
<text text-anchor="start" x="2114" y="-647.633" font-family="Times Roman,serif" font-size="14.00">Total: 1</text>
</g>
<!-- firma_Consejeros_12_stats&#45;&gt;firma_Consejeros_12 -->
<g id="edge64" class="edge"><title>firma_Consejeros_12_stats&#45;&gt;firma_Consejeros_12</title>
<path fill="none" stroke="black" stroke-dasharray="1,5" d="M2125.14,-636.287C2110.97,-607.933 2089.67,-565.336 2075.09,-536.188"/>
<polygon fill="black" stroke="black" points="2078.22,-534.611 2070.62,-527.232 2071.96,-537.742 2078.22,-534.611"/>
</g>
<!-- firma_Consejeros_2_stats -->
<g id="node64" class="node"><title>firma_Consejeros_2_stats</title>
<polygon fill="none" stroke="black" stroke-dasharray="5,2" points="468,-695.5 324,-695.5 324,-636.5 468,-636.5 468,-695.5"/>
<text text-anchor="start" x="332.5" y="-681.233" font-family="Times Roman,serif" font-size="14.00">Porcentaje: 0.00%</text>
<text text-anchor="start" x="341.5" y="-664.433" font-family="Times Roman,serif" font-size="14.00">Documentos: &#160;0</text>
<text text-anchor="start" x="370" y="-647.633" font-family="Times Roman,serif" font-size="14.00">Total: 1</text>
</g>
<!-- firma_Consejeros_2_stats&#45;&gt;firma_Consejeros_2 -->
<g id="edge68" class="edge"><title>firma_Consejeros_2_stats&#45;&gt;firma_Consejeros_2</title>
<path fill="none" stroke="black" stroke-dasharray="1,5" d="M411.223,-636.287C425.75,-607.933 447.575,-565.336 462.509,-536.188"/>
<polygon fill="black" stroke="black" points="465.652,-537.728 467.097,-527.232 459.422,-534.536 465.652,-537.728"/>
</g>
<!-- firma_Consejeros_3_stats -->
<g id="node67" class="node"><title>firma_Consejeros_3_stats</title>
<polygon fill="none" stroke="black" stroke-dasharray="5,2" points="630,-695.5 486,-695.5 486,-636.5 630,-636.5 630,-695.5"/>
<text text-anchor="start" x="494.5" y="-681.233" font-family="Times Roman,serif" font-size="14.00">Porcentaje: 0.00%</text>
<text text-anchor="start" x="503.5" y="-664.433" font-family="Times Roman,serif" font-size="14.00">Documentos: &#160;0</text>
<text text-anchor="start" x="532" y="-647.633" font-family="Times Roman,serif" font-size="14.00">Total: 1</text>
</g>
<!-- firma_Consejeros_3_stats&#45;&gt;firma_Consejeros_3 -->
<g id="edge72" class="edge"><title>firma_Consejeros_3_stats&#45;&gt;firma_Consejeros_3</title>
<path fill="none" stroke="black" stroke-dasharray="1,5" d="M572.123,-636.287C585.541,-608.056 605.671,-565.705 619.52,-536.568"/>
<polygon fill="black" stroke="black" points="622.826,-537.766 623.958,-527.232 616.504,-534.761 622.826,-537.766"/>
</g>
<!-- firma_Consejeros_4_stats -->
<g id="node70" class="node"><title>firma_Consejeros_4_stats</title>
<polygon fill="none" stroke="black" stroke-dasharray="5,2" points="792,-695.5 648,-695.5 648,-636.5 792,-636.5 792,-695.5"/>
<text text-anchor="start" x="656.5" y="-681.233" font-family="Times Roman,serif" font-size="14.00">Porcentaje: 0.00%</text>
<text text-anchor="start" x="665.5" y="-664.433" font-family="Times Roman,serif" font-size="14.00">Documentos: &#160;0</text>
<text text-anchor="start" x="694" y="-647.633" font-family="Times Roman,serif" font-size="14.00">Total: 1</text>
</g>
<!-- firma_Consejeros_4_stats&#45;&gt;firma_Consejeros_4 -->
<g id="edge76" class="edge"><title>firma_Consejeros_4_stats&#45;&gt;firma_Consejeros_4</title>
<path fill="none" stroke="black" stroke-dasharray="1,5" d="M733.022,-636.287C745.395,-608.056 763.956,-565.705 776.727,-536.568"/>
<polygon fill="black" stroke="black" points="780.009,-537.796 780.818,-527.232 773.598,-534.986 780.009,-537.796"/>
</g>
<!-- firma_Consejeros_5_stats -->
<g id="node73" class="node"><title>firma_Consejeros_5_stats</title>
<polygon fill="none" stroke="black" stroke-dasharray="5,2" points="954,-695.5 810,-695.5 810,-636.5 954,-636.5 954,-695.5"/>
<text text-anchor="start" x="818.5" y="-681.233" font-family="Times Roman,serif" font-size="14.00">Porcentaje: 0.00%</text>
<text text-anchor="start" x="827.5" y="-664.433" font-family="Times Roman,serif" font-size="14.00">Documentos: &#160;0</text>
<text text-anchor="start" x="856" y="-647.633" font-family="Times Roman,serif" font-size="14.00">Total: 1</text>
</g>
<!-- firma_Consejeros_5_stats&#45;&gt;firma_Consejeros_5 -->
<g id="edge80" class="edge"><title>firma_Consejeros_5_stats&#45;&gt;firma_Consejeros_5</title>
<path fill="none" stroke="black" stroke-dasharray="1,5" d="M893.922,-636.287C905.249,-608.056 922.242,-565.705 933.933,-536.568"/>
<polygon fill="black" stroke="black" points="937.203,-537.816 937.678,-527.232 930.706,-535.21 937.203,-537.816"/>
</g>
<!-- firma_Consejeros_6_stats -->
<g id="node76" class="node"><title>firma_Consejeros_6_stats</title>
<polygon fill="none" stroke="black" stroke-dasharray="5,2" points="1240,-695.5 1096,-695.5 1096,-636.5 1240,-636.5 1240,-695.5"/>
<text text-anchor="start" x="1104.5" y="-681.233" font-family="Times Roman,serif" font-size="14.00">Porcentaje: 0.00%</text>
<text text-anchor="start" x="1113.5" y="-664.433" font-family="Times Roman,serif" font-size="14.00">Documentos: &#160;0</text>
<text text-anchor="start" x="1142" y="-647.633" font-family="Times Roman,serif" font-size="14.00">Total: 1</text>
</g>
<!-- firma_Consejeros_6_stats&#45;&gt;firma_Consejeros_6 -->
<g id="edge84" class="edge"><title>firma_Consejeros_6_stats&#45;&gt;firma_Consejeros_6</title>
<path fill="none" stroke="black" stroke-dasharray="1,5" d="M1156.08,-636.287C1144.75,-608.056 1127.76,-565.705 1116.07,-536.568"/>
<polygon fill="black" stroke="black" points="1119.29,-535.21 1112.32,-527.232 1112.8,-537.816 1119.29,-535.21"/>
</g>
<!-- firma_Consejeros_7_stats -->
<g id="node79" class="node"><title>firma_Consejeros_7_stats</title>
<polygon fill="none" stroke="black" stroke-dasharray="5,2" points="1402,-695.5 1258,-695.5 1258,-636.5 1402,-636.5 1402,-695.5"/>
<text text-anchor="start" x="1266.5" y="-681.233" font-family="Times Roman,serif" font-size="14.00">Porcentaje: 0.00%</text>
<text text-anchor="start" x="1275.5" y="-664.433" font-family="Times Roman,serif" font-size="14.00">Documentos: &#160;0</text>
<text text-anchor="start" x="1304" y="-647.633" font-family="Times Roman,serif" font-size="14.00">Total: 1</text>
</g>
<!-- firma_Consejeros_7_stats&#45;&gt;firma_Consejeros_7 -->
<g id="edge88" class="edge"><title>firma_Consejeros_7_stats&#45;&gt;firma_Consejeros_7</title>
<path fill="none" stroke="black" stroke-dasharray="1,5" d="M1316.98,-636.287C1304.6,-608.056 1286.04,-565.705 1273.27,-536.568"/>
<polygon fill="black" stroke="black" points="1276.4,-534.986 1269.18,-527.232 1269.99,-537.796 1276.4,-534.986"/>
</g>
<!-- firma_Consejeros_8_stats -->
<g id="node82" class="node"><title>firma_Consejeros_8_stats</title>
<polygon fill="none" stroke="black" stroke-dasharray="5,2" points="1564,-695.5 1420,-695.5 1420,-636.5 1564,-636.5 1564,-695.5"/>
<text text-anchor="start" x="1428.5" y="-681.233" font-family="Times Roman,serif" font-size="14.00">Porcentaje: 0.00%</text>
<text text-anchor="start" x="1437.5" y="-664.433" font-family="Times Roman,serif" font-size="14.00">Documentos: &#160;0</text>
<text text-anchor="start" x="1466" y="-647.633" font-family="Times Roman,serif" font-size="14.00">Total: 1</text>
</g>
<!-- firma_Consejeros_8_stats&#45;&gt;firma_Consejeros_8 -->
<g id="edge92" class="edge"><title>firma_Consejeros_8_stats&#45;&gt;firma_Consejeros_8</title>
<path fill="none" stroke="black" stroke-dasharray="1,5" d="M1477.88,-636.287C1464.46,-608.056 1444.33,-565.705 1430.48,-536.568"/>
<polygon fill="black" stroke="black" points="1433.5,-534.761 1426.04,-527.232 1427.17,-537.766 1433.5,-534.761"/>
</g>
<!-- firma_Consejeros_9_stats -->
<g id="node85" class="node"><title>firma_Consejeros_9_stats</title>
<polygon fill="none" stroke="black" stroke-dasharray="5,2" points="1726,-695.5 1582,-695.5 1582,-636.5 1726,-636.5 1726,-695.5"/>
<text text-anchor="start" x="1590.5" y="-681.233" font-family="Times Roman,serif" font-size="14.00">Porcentaje: 0.00%</text>
<text text-anchor="start" x="1599.5" y="-664.433" font-family="Times Roman,serif" font-size="14.00">Documentos: &#160;0</text>
<text text-anchor="start" x="1628" y="-647.633" font-family="Times Roman,serif" font-size="14.00">Total: 1</text>
</g>
<!-- firma_Consejeros_9_stats&#45;&gt;firma_Consejeros_9 -->
<g id="edge96" class="edge"><title>firma_Consejeros_9_stats&#45;&gt;firma_Consejeros_9</title>
<path fill="none" stroke="black" stroke-dasharray="1,5" d="M1638.78,-636.287C1624.25,-607.933 1602.43,-565.336 1587.49,-536.188"/>
<polygon fill="black" stroke="black" points="1590.58,-534.536 1582.9,-527.232 1584.35,-537.728 1590.58,-534.536"/>
</g>
<!-- firma_presidente_stats -->
<g id="node88" class="node"><title>firma_presidente_stats</title>
<polygon fill="none" stroke="black" stroke-dasharray="5,2" points="144,-695.5 5.68434e-14,-695.5 0,-636.5 144,-636.5 144,-695.5"/>
<text text-anchor="start" x="8.5" y="-681.233" font-family="Times Roman,serif" font-size="14.00">Porcentaje: 0.00%</text>
<text text-anchor="start" x="17.5" y="-664.433" font-family="Times Roman,serif" font-size="14.00">Documentos: &#160;0</text>
<text text-anchor="start" x="46" y="-647.633" font-family="Times Roman,serif" font-size="14.00">Total: 1</text>
</g>
<!-- firma_presidente_stats&#45;&gt;firma_presidente -->
<g id="edge100" class="edge"><title>firma_presidente_stats&#45;&gt;firma_presidente</title>
<path fill="none" stroke="black" stroke-dasharray="1,5" d="M90.8918,-636.287C108.997,-607.81 136.237,-564.967 154.775,-535.81"/>
<polygon fill="black" stroke="black" points="157.817,-537.549 160.229,-527.232 151.91,-533.793 157.817,-537.549"/>
</g>
<!-- inicial -->
<g id="node90" class="node"><title>inicial</title>
<ellipse fill="#ffffff" stroke="black" cx="1016" cy="-1314" rx="38.9134" ry="18"/>
<ellipse fill="none" stroke="black" cx="1016" cy="-1314" rx="38.9134" ry="18"/>
<text text-anchor="middle" x="1016" y="-1309.9" font-family="Times Roman,serif" font-size="14.00">inicial</text>
</g>
<!-- inicial&#45;&gt;Convocada -->
<g id="edge102" class="edge"><title>inicial&#45;&gt;Convocada</title>
<path fill="none" stroke="black" d="M1005.98,-1296.35C990.697,-1269.44 961.329,-1217.73 942.209,-1184.06"/>
<polygon fill="black" stroke="black" points="945.089,-1182.05 937.108,-1175.08 939.003,-1185.5 945.089,-1182.05"/>
</g>
<!-- inicial_stats -->
<g id="node92" class="node"><title>inicial_stats</title>
<polygon fill="none" stroke="black" stroke-dasharray="5,2" points="1088,-1505.5 944,-1505.5 944,-1446.5 1088,-1446.5 1088,-1505.5"/>
<text text-anchor="start" x="952.5" y="-1491.23" font-family="Times Roman,serif" font-size="14.00">Porcentaje: 0.00%</text>
<text text-anchor="start" x="961.5" y="-1474.43" font-family="Times Roman,serif" font-size="14.00">Documentos: &#160;0</text>
<text text-anchor="start" x="990" y="-1457.63" font-family="Times Roman,serif" font-size="14.00">Total: 1</text>
</g>
<!-- inicial_stats&#45;&gt;inicial -->
<g id="edge104" class="edge"><title>inicial_stats&#45;&gt;inicial</title>
<path fill="none" stroke="black" stroke-dasharray="1,5" d="M1016,-1446.29C1016,-1416.8 1016,-1371.92 1016,-1342.77"/>
<polygon fill="black" stroke="black" points="1019.5,-1342.44 1016,-1332.44 1012.5,-1342.44 1019.5,-1342.44"/>
</g>
<!-- final_stats -->
<g id="node94" class="node"><title>final_stats</title>
<polygon fill="none" stroke="black" stroke-dasharray="5,2" points="1337,-226.5 1175,-226.5 1175,-133.5 1337,-133.5 1337,-226.5"/>
<text text-anchor="start" x="1183.5" y="-212.233" font-family="Times Roman,serif" font-size="14.00">Porcentaje: 100.00%</text>
<text text-anchor="start" x="1186.5" y="-195.433" font-family="Times Roman,serif" font-size="14.00">Nro Documentos: &#160;0</text>
<text text-anchor="start" x="1230" y="-178.633" font-family="Times Roman,serif" font-size="14.00">Total: 1</text>
<text text-anchor="start" x="1230" y="-161.833" font-family="Times Roman,serif" font-size="14.00">Total: 0</text>
<text text-anchor="start" x="1251" y="-145.033" font-family="Times Roman,serif" font-size="14.00"> &#160;</text>
</g>
<!-- final_stats&#45;&gt;final -->
<g id="edge106" class="edge"><title>final_stats&#45;&gt;final</title>
<path fill="none" stroke="black" stroke-dasharray="1,5" d="M1234.02,-133.143C1220.53,-104.397 1203.75,-68.629 1192.5,-44.6534"/>
<polygon fill="black" stroke="black" points="1195.61,-43.031 1188.19,-35.4643 1189.27,-46.0041 1195.61,-43.031"/>
</g>
</g>
</svg>
