<?xml version="1.0" encoding="UTF-8" standalone="no"?>
<!DOCTYPE svg PUBLIC "-//W3C//DTD SVG 1.1//EN"
 "http://www.w3.org/Graphics/SVG/1.1/DTD/svg11.dtd">
<!-- Generated by graphviz version 2.26.3 (20100126.1600)
 -->
<!-- Title: G Pages: 1 -->
<svg width="174pt" height="454pt"
 viewBox="0.00 0.00 174.00 454.00" xmlns="http://www.w3.org/2000/svg" xmlns:xlink="http://www.w3.org/1999/xlink">
<g id="graph1" class="graph" transform="scale(1 1) rotate(0) translate(4 450)">
<title>G</title>
<polygon fill="white" stroke="white" points="-4,5 -4,-450 171,-450 171,5 -4,5"/>
<!-- DireccionEjecutiva -->
<g id="node1" class="node"><title>DireccionEjecutiva</title>
<polygon fill="#ffffc0" stroke="black" points="166,-123 8.52651e-14,-123 0,-77 166,-77 166,-123"/>
<polygon fill="none" stroke="black" points="166,-123 8.52651e-14,-123 0,-77 166,-77 166,-123"/>
<text text-anchor="middle" x="83" y="-106.4" font-family="Helvetica,sans-Serif" font-size="14.00">DireccionEjecutiva</text>
<text text-anchor="middle" x="83" y="-87.4" font-family="Helvetica,sans-Serif" font-size="14.00">Planilla vista_vacaciones</text>
</g>
<!-- final -->
<g id="node3" class="node"><title>final</title>
<ellipse fill="#ffffff" stroke="black" cx="83" cy="-18" rx="31.9646" ry="18"/>
<ellipse fill="none" stroke="black" cx="83" cy="-18" rx="31.9646" ry="18"/>
<text text-anchor="middle" x="83" y="-13.9" font-family="Times Roman,serif" font-size="14.00">final</text>
</g>
<!-- DireccionEjecutiva&#45;&gt;final -->
<g id="edge2" class="edge"><title>DireccionEjecutiva&#45;&gt;final</title>
<path fill="none" stroke="black" d="M83,-76.7214C83,-67.2634 83,-56.2475 83,-46.3287"/>
<polygon fill="black" stroke="black" points="86.5001,-46.1221 83,-36.1222 79.5001,-46.1222 86.5001,-46.1221"/>
</g>
<!-- Por_usuario -->
<g id="node4" class="node"><title>Por_usuario</title>
<polygon fill="#ffffc0" stroke="black" points="127,-369 39,-369 39,-323 127,-323 127,-369"/>
<polygon fill="none" stroke="black" points="127,-369 39,-369 39,-323 127,-323 127,-369"/>
<text text-anchor="middle" x="83" y="-352.4" font-family="Helvetica,sans-Serif" font-size="14.00">Por_usuario</text>
<text text-anchor="middle" x="83" y="-333.4" font-family="Helvetica,sans-Serif" font-size="14.00">vbravo</text>
</g>
<!-- Vacaciones_solicitadas -->
<g id="node6" class="node"><title>Vacaciones_solicitadas</title>
<polygon fill="#ffffc0" stroke="black" points="166,-287 8.52651e-14,-287 0,-241 166,-241 166,-287"/>
<polygon fill="none" stroke="black" points="166,-287 8.52651e-14,-287 0,-241 166,-241 166,-287"/>
<text text-anchor="middle" x="83" y="-270.4" font-family="Helvetica,sans-Serif" font-size="14.00">Vacaciones_solicitadas</text>
<text text-anchor="middle" x="83" y="-251.4" font-family="Helvetica,sans-Serif" font-size="14.00">Planilla vista_vacaciones</text>
</g>
<!-- Por_usuario&#45;&gt;Vacaciones_solicitadas -->
<g id="edge4" class="edge"><title>Por_usuario&#45;&gt;Vacaciones_solicitadas</title>
<path fill="none" stroke="black" d="M83,-322.721C83,-314.777 83,-305.734 83,-297.164"/>
<polygon fill="black" stroke="black" points="86.5001,-297.053 83,-287.053 79.5001,-297.053 86.5001,-297.053"/>
</g>
<!-- Solicitud_firmada -->
<g id="node7" class="node"><title>Solicitud_firmada</title>
<polygon fill="#ffffc0" stroke="black" points="166,-205 8.52651e-14,-205 0,-159 166,-159 166,-205"/>
<polygon fill="none" stroke="black" points="166,-205 8.52651e-14,-205 0,-159 166,-159 166,-205"/>
<text text-anchor="middle" x="83" y="-188.4" font-family="Helvetica,sans-Serif" font-size="14.00">Solicitud_firmada</text>
<text text-anchor="middle" x="83" y="-169.4" font-family="Helvetica,sans-Serif" font-size="14.00">Planilla vista_vacaciones</text>
</g>
<!-- Vacaciones_solicitadas&#45;&gt;Solicitud_firmada -->
<g id="edge8" class="edge"><title>Vacaciones_solicitadas&#45;&gt;Solicitud_firmada</title>
<path fill="none" stroke="black" d="M83,-240.721C83,-232.777 83,-223.734 83,-215.164"/>
<polygon fill="black" stroke="black" points="86.5001,-215.053 83,-205.053 79.5001,-215.053 86.5001,-215.053"/>
</g>
<!-- Solicitud_firmada&#45;&gt;DireccionEjecutiva -->
<g id="edge6" class="edge"><title>Solicitud_firmada&#45;&gt;DireccionEjecutiva</title>
<path fill="none" stroke="black" d="M83,-158.721C83,-150.777 83,-141.734 83,-133.164"/>
<polygon fill="black" stroke="black" points="86.5001,-133.053 83,-123.053 79.5001,-133.053 86.5001,-133.053"/>
</g>
<!-- inicial -->
<g id="node10" class="node"><title>inicial</title>
<ellipse fill="#ffffff" stroke="black" cx="83" cy="-428" rx="38.9134" ry="18"/>
<ellipse fill="none" stroke="black" cx="83" cy="-428" rx="38.9134" ry="18"/>
<text text-anchor="middle" x="83" y="-423.9" font-family="Times Roman,serif" font-size="14.00">inicial</text>
</g>
<!-- inicial&#45;&gt;Por_usuario -->
<g id="edge10" class="edge"><title>inicial&#45;&gt;Por_usuario</title>
<path fill="none" stroke="black" d="M83,-409.802C83,-400.813 83,-389.681 83,-379.244"/>
<polygon fill="black" stroke="black" points="86.5001,-379.145 83,-369.145 79.5001,-379.145 86.5001,-379.145"/>
</g>
</g>
</svg>
