<?xml version="1.0" encoding="UTF-8" standalone="no"?>
<!DOCTYPE svg PUBLIC "-//W3C//DTD SVG 1.1//EN"
 "http://www.w3.org/Graphics/SVG/1.1/DTD/svg11.dtd">
<!-- Generated by graphviz version 2.26.3 (20100126.1600)
 -->
<!-- Title: G Pages: 1 -->
<svg width="2296pt" height="1505pt"
 viewBox="0.00 0.00 2296.00 1505.00" xmlns="http://www.w3.org/2000/svg" xmlns:xlink="http://www.w3.org/1999/xlink">
<g id="graph1" class="graph" transform="scale(1 1) rotate(0) translate(4 1501)">
<title>G</title>
<polygon fill="white" stroke="white" points="-4,5 -4,-1501 2293,-1501 2293,5 -4,5"/>
<!-- Convocada -->
<g id="node1" class="node"><title>Convocada</title>
<polygon fill="#ffff99" stroke="black" points="694,-1175 568,-1175 568,-1129 694,-1129 694,-1175"/>
<polygon fill="none" stroke="black" points="694,-1175 568,-1175 568,-1129 694,-1129 694,-1175"/>
<text text-anchor="middle" x="631" y="-1158.4" font-family="Helvetica,sans-Serif" font-size="14.00">Convocada</text>
<text text-anchor="middle" x="631" y="-1139.4" font-family="Helvetica,sans-Serif" font-size="14.00">Convocar_reunion</text>
</g>
<!-- Pautada -->
<g id="node3" class="node"><title>Pautada</title>
<polygon fill="#ffff99" stroke="black" points="792,-1013 676,-1013 676,-967 792,-967 792,-1013"/>
<polygon fill="none" stroke="black" points="792,-1013 676,-1013 676,-967 792,-967 792,-1013"/>
<text text-anchor="middle" x="734" y="-996.4" font-family="Helvetica,sans-Serif" font-size="14.00">Pautada</text>
<text text-anchor="middle" x="734" y="-977.4" font-family="Helvetica,sans-Serif" font-size="14.00">Validar_Quorum</text>
</g>
<!-- Convocada&#45;&gt;Pautada -->
<g id="edge2" class="edge"><title>Convocada&#45;&gt;Pautada</title>
<path fill="none" stroke="black" d="M645.757,-1128.79C663.579,-1100.76 693.648,-1053.47 713.659,-1021.99"/>
<polygon fill="black" stroke="black" points="716.858,-1023.48 719.27,-1013.17 710.951,-1019.73 716.858,-1023.48"/>
</g>
<!-- Realizada -->
<g id="node7" class="node"><title>Realizada</title>
<polygon fill="#ffff99" stroke="black" points="897,-851 773,-851 773,-805 897,-805 897,-851"/>
<polygon fill="none" stroke="black" points="897,-851 773,-851 773,-805 897,-805 897,-851"/>
<text text-anchor="middle" x="835" y="-834.4" font-family="Helvetica,sans-Serif" font-size="14.00">Realizada</text>
<text text-anchor="middle" x="835" y="-815.4" font-family="Helvetica,sans-Serif" font-size="14.00">Registrar_reunion</text>
</g>
<!-- Pautada&#45;&gt;Realizada -->
<g id="edge6" class="edge"><title>Pautada&#45;&gt;Realizada</title>
<path fill="none" stroke="black" d="M748.471,-966.789C765.946,-938.76 795.431,-891.467 815.054,-859.992"/>
<polygon fill="black" stroke="black" points="818.235,-861.505 820.556,-851.168 812.295,-857.802 818.235,-861.505"/>
</g>
<!-- Convocada_stats -->
<g id="node4" class="node"><title>Convocada_stats</title>
<polygon fill="none" stroke="black" stroke-dasharray="5,2" points="666,-1377 414,-1377 414,-1251 666,-1251 666,-1377"/>
<text text-anchor="start" x="472" y="-1362.73" font-family="Times Roman,serif" font-size="14.00">Porcentaje: 40.00%</text>
<text text-anchor="start" x="470.5" y="-1345.93" font-family="Times Roman,serif" font-size="14.00">Nro Documentos: &#160;0</text>
<text text-anchor="start" x="514" y="-1329.13" font-family="Times Roman,serif" font-size="14.00">Total: 1</text>
<text text-anchor="start" x="514" y="-1312.33" font-family="Times Roman,serif" font-size="14.00">vbravo </text>
<text text-anchor="start" x="466" y="-1295.53" font-family="Times Roman,serif" font-size="14.00">01/07/2013 02:31pm</text>
<text text-anchor="start" x="422.5" y="-1278.73" font-family="Times Roman,serif" font-size="14.00">hace 37 meses y 3 semanas &#160;llego</text>
<text text-anchor="start" x="529" y="-1261.93" font-family="Times Roman,serif" font-size="14.00">n/a</text>
</g>
<!-- Convocada_stats&#45;&gt;Convocada -->
<g id="edge4" class="edge"><title>Convocada_stats&#45;&gt;Convocada</title>
<path fill="none" stroke="black" stroke-dasharray="1,5" d="M575.444,-1250.9C588.31,-1228 602.305,-1203.08 613.03,-1183.99"/>
<polygon fill="black" stroke="black" points="616.167,-1185.55 618.013,-1175.12 610.064,-1182.12 616.167,-1185.55"/>
</g>
<!-- Aprobada -->
<g id="node11" class="node"><title>Aprobada</title>
<polygon fill="#ffff99" stroke="#ffff99" points="897,-629.5 979,-629.5 991,-641.5 991,-690.5 979,-702.5 897,-702.5 885,-690.5 885,-641.5 897,-629.5"/>
<path fill="#ffff99" stroke="#ffff99" d="M979,-629.5C985,-629.5 991,-635.5 991,-641.5"/>
<path fill="#ffff99" stroke="#ffff99" d="M991,-690.5C991,-696.5 985,-702.5 979,-702.5"/>
<path fill="#ffff99" stroke="#ffff99" d="M897,-702.5C891,-702.5 885,-696.5 885,-690.5"/>
<path fill="#ffff99" stroke="#ffff99" d="M885,-641.5C885,-635.5 891,-629.5 897,-629.5"/>
<polyline fill="none" stroke="black" points="897,-629.5 979,-629.5 "/>
<path fill="none" stroke="black" d="M979,-629.5C985,-629.5 991,-635.5 991,-641.5"/>
<polyline fill="none" stroke="black" points="991,-641.5 991,-690.5 "/>
<path fill="none" stroke="black" d="M991,-690.5C991,-696.5 985,-702.5 979,-702.5"/>
<polyline fill="none" stroke="black" points="979,-702.5 897,-702.5 "/>
<path fill="none" stroke="black" d="M897,-702.5C891,-702.5 885,-696.5 885,-690.5"/>
<polyline fill="none" stroke="black" points="885,-690.5 885,-641.5 "/>
<path fill="none" stroke="black" d="M885,-641.5C885,-635.5 891,-629.5 897,-629.5"/>
<text text-anchor="middle" x="938" y="-685.9" font-family="Helvetica,sans-Serif" font-size="14.00">Aprobada</text>
<text text-anchor="middle" x="938" y="-666.9" font-family="Helvetica,sans-Serif" font-size="14.00">Aprobar_Actas</text>
<polyline fill="none" stroke="black" points="885,-656.5 991,-656.5 "/>
<text text-anchor="middle" x="938" y="-639.9" font-family="Helvetica,sans-Serif" font-size="14.00">or</text>
</g>
<!-- Realizada&#45;&gt;Aprobada -->
<g id="edge10" class="edge"><title>Realizada&#45;&gt;Aprobada</title>
<path fill="none" stroke="black" d="M849.757,-804.789C865.199,-780.503 889.836,-741.753 909.158,-711.362"/>
<polygon fill="black" stroke="black" points="912.299,-712.946 914.711,-702.629 906.392,-709.19 912.299,-712.946"/>
</g>
<!-- Pautada_stats -->
<g id="node8" class="node"><title>Pautada_stats</title>
<polygon fill="none" stroke="black" stroke-dasharray="5,2" points="964,-1215 712,-1215 712,-1089 964,-1089 964,-1215"/>
<text text-anchor="start" x="770" y="-1200.73" font-family="Times Roman,serif" font-size="14.00">Porcentaje: 40.00%</text>
<text text-anchor="start" x="768.5" y="-1183.93" font-family="Times Roman,serif" font-size="14.00">Nro Documentos: &#160;0</text>
<text text-anchor="start" x="812" y="-1167.13" font-family="Times Roman,serif" font-size="14.00">Total: 1</text>
<text text-anchor="start" x="812" y="-1150.33" font-family="Times Roman,serif" font-size="14.00">vbravo </text>
<text text-anchor="start" x="764" y="-1133.53" font-family="Times Roman,serif" font-size="14.00">01/07/2013 02:32pm</text>
<text text-anchor="start" x="720.5" y="-1116.73" font-family="Times Roman,serif" font-size="14.00">hace 37 meses y 3 semanas &#160;llego</text>
<text text-anchor="start" x="764" y="-1099.93" font-family="Times Roman,serif" font-size="14.00">un minuto &#160;en espera</text>
</g>
<!-- Pautada_stats&#45;&gt;Pautada -->
<g id="edge8" class="edge"><title>Pautada_stats&#45;&gt;Pautada</title>
<path fill="none" stroke="black" stroke-dasharray="1,5" d="M797.493,-1088.9C782.722,-1065.89 766.649,-1040.86 754.37,-1021.73"/>
<polygon fill="black" stroke="black" points="757.19,-1019.64 748.842,-1013.12 751.299,-1023.43 757.19,-1019.64"/>
</g>
<!-- firma_presidente -->
<g id="node15" class="node"><title>firma_presidente</title>
<polygon fill="#ffffff" stroke="black" points="122,-527 5.68434e-14,-527 7.10543e-15,-481 122,-481 122,-527"/>
<polygon fill="none" stroke="black" points="122,-527 5.68434e-14,-527 7.10543e-15,-481 122,-481 122,-527"/>
<text text-anchor="middle" x="61" y="-510.4" font-family="Helvetica,sans-Serif" font-size="14.00">firma_presidente</text>
<text text-anchor="middle" x="61" y="-491.4" font-family="Helvetica,sans-Serif" font-size="14.00">Firma_presidente</text>
</g>
<!-- Aprobada&#45;&gt;firma_presidente -->
<g id="edge14" class="edge"><title>Aprobada&#45;&gt;firma_presidente</title>
<path fill="none" stroke="black" d="M884.947,-632.329C881.976,-631.081 878.984,-629.958 876,-629 559.636,-527.473 435.993,-698.807 131,-567 114.221,-559.749 98.7473,-546.816 86.6386,-534.547"/>
<polygon fill="black" stroke="black" points="88.9653,-531.913 79.5524,-527.05 83.8781,-536.722 88.9653,-531.913"/>
</g>
<!-- firma_Consejeros_1 -->
<g id="node17" class="node"><title>firma_Consejeros_1</title>
<polygon fill="#ffffff" stroke="black" points="278,-527 140,-527 140,-481 278,-481 278,-527"/>
<polygon fill="none" stroke="black" points="278,-527 140,-527 140,-481 278,-481 278,-527"/>
<text text-anchor="middle" x="209" y="-510.4" font-family="Helvetica,sans-Serif" font-size="14.00">firma_Consejeros_1</text>
<text text-anchor="middle" x="209" y="-491.4" font-family="Helvetica,sans-Serif" font-size="14.00">Firma_Consejero_1</text>
</g>
<!-- Aprobada&#45;&gt;firma_Consejeros_1 -->
<g id="edge16" class="edge"><title>Aprobada&#45;&gt;firma_Consejeros_1</title>
<path fill="none" stroke="black" d="M884.921,-632.408C881.957,-631.14 878.973,-629.99 876,-629 626.26,-545.834 530.243,-667.597 287,-567 268.981,-559.548 251.798,-546.556 238.168,-534.298"/>
<polygon fill="black" stroke="black" points="240.273,-531.476 230.574,-527.213 235.498,-536.594 240.273,-531.476"/>
</g>
<!-- firma_Consejeros_2 -->
<g id="node19" class="node"><title>firma_Consejeros_2</title>
<polygon fill="#ffffff" stroke="black" points="434,-527 296,-527 296,-481 434,-481 434,-527"/>
<polygon fill="none" stroke="black" points="434,-527 296,-527 296,-481 434,-481 434,-527"/>
<text text-anchor="middle" x="365" y="-510.4" font-family="Helvetica,sans-Serif" font-size="14.00">firma_Consejeros_2</text>
<text text-anchor="middle" x="365" y="-491.4" font-family="Helvetica,sans-Serif" font-size="14.00">Firma_Consejero_2</text>
</g>
<!-- Aprobada&#45;&gt;firma_Consejeros_2 -->
<g id="edge18" class="edge"><title>Aprobada&#45;&gt;firma_Consejeros_2</title>
<path fill="none" stroke="black" d="M884.874,-632.543C881.923,-631.24 878.954,-630.045 876,-629 692.73,-564.143 621.232,-644.638 443,-567 425.257,-559.271 408.214,-546.373 394.609,-534.253"/>
<polygon fill="black" stroke="black" points="396.741,-531.458 387.017,-527.252 391.995,-536.604 396.741,-531.458"/>
</g>
<!-- firma_Consejeros_3 -->
<g id="node21" class="node"><title>firma_Consejeros_3</title>
<polygon fill="#ffffff" stroke="black" points="590,-527 452,-527 452,-481 590,-481 590,-527"/>
<polygon fill="none" stroke="black" points="590,-527 452,-527 452,-481 590,-481 590,-527"/>
<text text-anchor="middle" x="521" y="-510.4" font-family="Helvetica,sans-Serif" font-size="14.00">firma_Consejeros_3</text>
<text text-anchor="middle" x="521" y="-491.4" font-family="Helvetica,sans-Serif" font-size="14.00">Firma_Consejero_3</text>
</g>
<!-- Aprobada&#45;&gt;firma_Consejeros_3 -->
<g id="edge20" class="edge"><title>Aprobada&#45;&gt;firma_Consejeros_3</title>
<path fill="none" stroke="black" d="M884.769,-632.823C881.845,-631.446 878.911,-630.16 876,-629 758.801,-582.309 712.609,-621.852 599,-567 581.834,-558.712 565.081,-545.987 551.53,-534.137"/>
<polygon fill="black" stroke="black" points="553.714,-531.394 543.941,-527.301 549.029,-536.595 553.714,-531.394"/>
</g>
<!-- firma_Consejeros_4 -->
<g id="node23" class="node"><title>firma_Consejeros_4</title>
<polygon fill="#ffffff" stroke="black" points="746,-527 608,-527 608,-481 746,-481 746,-527"/>
<polygon fill="none" stroke="black" points="746,-527 608,-527 608,-481 746,-481 746,-527"/>
<text text-anchor="middle" x="677" y="-510.4" font-family="Helvetica,sans-Serif" font-size="14.00">firma_Consejeros_4</text>
<text text-anchor="middle" x="677" y="-491.4" font-family="Helvetica,sans-Serif" font-size="14.00">Firma_Consejero_4</text>
</g>
<!-- Aprobada&#45;&gt;firma_Consejeros_4 -->
<g id="edge22" class="edge"><title>Aprobada&#45;&gt;firma_Consejeros_4</title>
<path fill="none" stroke="black" d="M884.693,-633.891C881.762,-632.219 878.851,-630.579 876,-629 823.139,-599.724 805.661,-599.936 755,-567 739.893,-557.178 724.25,-544.999 710.974,-533.974"/>
<polygon fill="black" stroke="black" points="712.943,-531.056 703.04,-527.29 708.433,-536.41 712.943,-531.056"/>
</g>
<!-- firma_Consejeros_5 -->
<g id="node25" class="node"><title>firma_Consejeros_5</title>
<polygon fill="#ffffff" stroke="black" points="902,-527 764,-527 764,-481 902,-481 902,-527"/>
<polygon fill="none" stroke="black" points="902,-527 764,-527 764,-481 902,-481 902,-527"/>
<text text-anchor="middle" x="833" y="-510.4" font-family="Helvetica,sans-Serif" font-size="14.00">firma_Consejeros_5</text>
<text text-anchor="middle" x="833" y="-491.4" font-family="Helvetica,sans-Serif" font-size="14.00">Firma_Consejero_5</text>
</g>
<!-- Aprobada&#45;&gt;firma_Consejeros_5 -->
<g id="edge24" class="edge"><title>Aprobada&#45;&gt;firma_Consejeros_5</title>
<path fill="none" stroke="black" d="M914.174,-629.24C895.908,-601.059 870.963,-562.572 853.565,-535.728"/>
<polygon fill="black" stroke="black" points="856.35,-533.591 847.974,-527.103 850.476,-537.398 856.35,-533.591"/>
</g>
<!-- firma_Consejeros_6 -->
<g id="node27" class="node"><title>firma_Consejeros_6</title>
<polygon fill="#ffffff" stroke="black" points="1058,-527 920,-527 920,-481 1058,-481 1058,-527"/>
<polygon fill="none" stroke="black" points="1058,-527 920,-527 920,-481 1058,-481 1058,-527"/>
<text text-anchor="middle" x="989" y="-510.4" font-family="Helvetica,sans-Serif" font-size="14.00">firma_Consejeros_6</text>
<text text-anchor="middle" x="989" y="-491.4" font-family="Helvetica,sans-Serif" font-size="14.00">Firma_Consejero_6</text>
</g>
<!-- Aprobada&#45;&gt;firma_Consejeros_6 -->
<g id="edge26" class="edge"><title>Aprobada&#45;&gt;firma_Consejeros_6</title>
<path fill="none" stroke="black" d="M949.573,-629.24C958.329,-601.426 970.245,-563.574 978.679,-536.785"/>
<polygon fill="black" stroke="black" points="982.062,-537.693 981.727,-527.103 975.385,-535.591 982.062,-537.693"/>
</g>
<!-- firma_Consejeros_7 -->
<g id="node29" class="node"><title>firma_Consejeros_7</title>
<polygon fill="#ffffff" stroke="black" points="1214,-527 1076,-527 1076,-481 1214,-481 1214,-527"/>
<polygon fill="none" stroke="black" points="1214,-527 1076,-527 1076,-481 1214,-481 1214,-527"/>
<text text-anchor="middle" x="1145" y="-510.4" font-family="Helvetica,sans-Serif" font-size="14.00">firma_Consejeros_7</text>
<text text-anchor="middle" x="1145" y="-491.4" font-family="Helvetica,sans-Serif" font-size="14.00">Firma_Consejero_7</text>
</g>
<!-- Aprobada&#45;&gt;firma_Consejeros_7 -->
<g id="edge28" class="edge"><title>Aprobada&#45;&gt;firma_Consejeros_7</title>
<path fill="none" stroke="black" d="M986.308,-629.377C1010.62,-610.828 1040.49,-587.87 1067,-567 1080.7,-556.21 1095.63,-544.214 1108.72,-533.61"/>
<polygon fill="black" stroke="black" points="1111.05,-536.229 1116.61,-527.211 1106.64,-530.794 1111.05,-536.229"/>
</g>
<!-- firma_Consejeros_8 -->
<g id="node31" class="node"><title>firma_Consejeros_8</title>
<polygon fill="#ffffff" stroke="black" points="1370,-527 1232,-527 1232,-481 1370,-481 1370,-527"/>
<polygon fill="none" stroke="black" points="1370,-527 1232,-527 1232,-481 1370,-481 1370,-527"/>
<text text-anchor="middle" x="1301" y="-510.4" font-family="Helvetica,sans-Serif" font-size="14.00">firma_Consejeros_8</text>
<text text-anchor="middle" x="1301" y="-491.4" font-family="Helvetica,sans-Serif" font-size="14.00">Firma_Consejero_8</text>
</g>
<!-- Aprobada&#45;&gt;firma_Consejeros_8 -->
<g id="edge30" class="edge"><title>Aprobada&#45;&gt;firma_Consejeros_8</title>
<path fill="none" stroke="black" d="M991.305,-633.003C994.21,-631.579 997.119,-630.234 1000,-629 1094.56,-588.504 1131.53,-614.074 1223,-567 1239.82,-558.344 1256.42,-545.684 1269.95,-533.98"/>
<polygon fill="black" stroke="black" points="1272.39,-536.494 1277.54,-527.236 1267.74,-531.261 1272.39,-536.494"/>
</g>
<!-- firma_Consejeros_9 -->
<g id="node33" class="node"><title>firma_Consejeros_9</title>
<polygon fill="#ffffff" stroke="black" points="1526,-527 1388,-527 1388,-481 1526,-481 1526,-527"/>
<polygon fill="none" stroke="black" points="1526,-527 1388,-527 1388,-481 1526,-481 1526,-527"/>
<text text-anchor="middle" x="1457" y="-510.4" font-family="Helvetica,sans-Serif" font-size="14.00">firma_Consejeros_9</text>
<text text-anchor="middle" x="1457" y="-491.4" font-family="Helvetica,sans-Serif" font-size="14.00">Firma_Consejero_9</text>
</g>
<!-- Aprobada&#45;&gt;firma_Consejeros_9 -->
<g id="edge32" class="edge"><title>Aprobada&#45;&gt;firma_Consejeros_9</title>
<path fill="none" stroke="black" d="M991.151,-632.615C994.096,-631.293 997.056,-630.075 1000,-629 1160.33,-570.457 1223.21,-636.72 1379,-567 1396.66,-559.095 1413.7,-546.173 1427.32,-534.084"/>
<polygon fill="black" stroke="black" points="1429.92,-536.446 1434.92,-527.106 1425.18,-531.289 1429.92,-536.446"/>
</g>
<!-- firma_Consejeros_10 -->
<g id="node35" class="node"><title>firma_Consejeros_10</title>
<polygon fill="#ffffff" stroke="black" points="1690,-527 1544,-527 1544,-481 1690,-481 1690,-527"/>
<polygon fill="none" stroke="black" points="1690,-527 1544,-527 1544,-481 1690,-481 1690,-527"/>
<text text-anchor="middle" x="1617" y="-510.4" font-family="Helvetica,sans-Serif" font-size="14.00">firma_Consejeros_10</text>
<text text-anchor="middle" x="1617" y="-491.4" font-family="Helvetica,sans-Serif" font-size="14.00">Firma_Consejero_10</text>
</g>
<!-- Aprobada&#45;&gt;firma_Consejeros_10 -->
<g id="edge34" class="edge"><title>Aprobada&#45;&gt;firma_Consejeros_10</title>
<path fill="none" stroke="black" d="M991.092,-632.446C994.052,-631.168 997.032,-630.006 1000,-629 1226.71,-552.18 1313.17,-656.95 1535,-567 1553.81,-559.373 1572,-546.194 1586.45,-533.855"/>
<polygon fill="black" stroke="black" points="1588.89,-536.369 1594.07,-527.128 1584.26,-531.121 1588.89,-536.369"/>
</g>
<!-- firma_Consejeros_11 -->
<g id="node37" class="node"><title>firma_Consejeros_11</title>
<polygon fill="#ffffff" stroke="black" points="1854,-527 1708,-527 1708,-481 1854,-481 1854,-527"/>
<polygon fill="none" stroke="black" points="1854,-527 1708,-527 1708,-481 1854,-481 1854,-527"/>
<text text-anchor="middle" x="1781" y="-510.4" font-family="Helvetica,sans-Serif" font-size="14.00">firma_Consejeros_11</text>
<text text-anchor="middle" x="1781" y="-491.4" font-family="Helvetica,sans-Serif" font-size="14.00">Firma_Consejero_11</text>
</g>
<!-- Aprobada&#45;&gt;firma_Consejeros_11 -->
<g id="edge36" class="edge"><title>Aprobada&#45;&gt;firma_Consejeros_11</title>
<path fill="none" stroke="black" d="M991.059,-632.349C994.029,-631.096 997.019,-629.966 1000,-629 1296.71,-532.89 1408.42,-680.302 1699,-567 1718.05,-559.571 1736.38,-546.281 1750.86,-533.815"/>
<polygon fill="black" stroke="black" points="1753.36,-536.284 1758.49,-527.018 1748.7,-531.057 1753.36,-536.284"/>
</g>
<!-- firma_Consejeros_12 -->
<g id="node39" class="node"><title>firma_Consejeros_12</title>
<polygon fill="#ffffff" stroke="black" points="2018,-527 1872,-527 1872,-481 2018,-481 2018,-527"/>
<polygon fill="none" stroke="black" points="2018,-527 1872,-527 1872,-481 2018,-481 2018,-527"/>
<text text-anchor="middle" x="1945" y="-510.4" font-family="Helvetica,sans-Serif" font-size="14.00">firma_Consejeros_12</text>
<text text-anchor="middle" x="1945" y="-491.4" font-family="Helvetica,sans-Serif" font-size="14.00">Firma_Consejero_12</text>
</g>
<!-- Aprobada&#45;&gt;firma_Consejeros_12 -->
<g id="edge38" class="edge"><title>Aprobada&#45;&gt;firma_Consejeros_12</title>
<path fill="none" stroke="black" d="M991.04,-632.287C994.014,-631.05 997.011,-629.941 1000,-629 1366.81,-513.567 1503.57,-703.692 1863,-567 1882.11,-559.731 1900.45,-546.458 1914.92,-533.963"/>
<polygon fill="black" stroke="black" points="1917.42,-536.421 1922.54,-527.145 1912.76,-531.204 1917.42,-536.421"/>
</g>
<!-- Realizada_stats -->
<g id="node12" class="node"><title>Realizada_stats</title>
<polygon fill="none" stroke="black" stroke-dasharray="5,2" points="1062,-1053 810,-1053 810,-927 1062,-927 1062,-1053"/>
<text text-anchor="start" x="868" y="-1038.73" font-family="Times Roman,serif" font-size="14.00">Porcentaje: 40.00%</text>
<text text-anchor="start" x="866.5" y="-1021.93" font-family="Times Roman,serif" font-size="14.00">Nro Documentos: &#160;0</text>
<text text-anchor="start" x="910" y="-1005.13" font-family="Times Roman,serif" font-size="14.00">Total: 1</text>
<text text-anchor="start" x="910" y="-988.333" font-family="Times Roman,serif" font-size="14.00">vbravo </text>
<text text-anchor="start" x="862" y="-971.533" font-family="Times Roman,serif" font-size="14.00">01/07/2013 02:34pm</text>
<text text-anchor="start" x="818.5" y="-954.733" font-family="Times Roman,serif" font-size="14.00">hace 37 meses y 3 semanas &#160;llego</text>
<text text-anchor="start" x="863" y="-937.933" font-family="Times Roman,serif" font-size="14.00">2 minutos &#160;en espera</text>
</g>
<!-- Realizada_stats&#45;&gt;Realizada -->
<g id="edge12" class="edge"><title>Realizada_stats&#45;&gt;Realizada</title>
<path fill="none" stroke="black" stroke-dasharray="1,5" d="M896.662,-926.903C882.317,-903.894 866.707,-878.857 854.782,-859.73"/>
<polygon fill="black" stroke="black" points="857.674,-857.753 849.414,-851.119 851.734,-861.457 857.674,-857.753"/>
</g>
<!-- Pasar_libro -->
<g id="node42" class="node"><title>Pasar_libro</title>
<polygon fill="#ffff00" stroke="#ffff00" points="1016,-305.5 1118,-305.5 1130,-317.5 1130,-366.5 1118,-378.5 1016,-378.5 1004,-366.5 1004,-317.5 1016,-305.5"/>
<path fill="#ffff00" stroke="#ffff00" d="M1118,-305.5C1124,-305.5 1130,-311.5 1130,-317.5"/>
<path fill="#ffff00" stroke="#ffff00" d="M1130,-366.5C1130,-372.5 1124,-378.5 1118,-378.5"/>
<path fill="#ffff00" stroke="#ffff00" d="M1016,-378.5C1010,-378.5 1004,-372.5 1004,-366.5"/>
<path fill="#ffff00" stroke="#ffff00" d="M1004,-317.5C1004,-311.5 1010,-305.5 1016,-305.5"/>
<polyline fill="none" stroke="black" points="1016,-305.5 1118,-305.5 "/>
<path fill="none" stroke="black" d="M1118,-305.5C1124,-305.5 1130,-311.5 1130,-317.5"/>
<polyline fill="none" stroke="black" points="1130,-317.5 1130,-366.5 "/>
<path fill="none" stroke="black" d="M1130,-366.5C1130,-372.5 1124,-378.5 1118,-378.5"/>
<polyline fill="none" stroke="black" points="1118,-378.5 1016,-378.5 "/>
<path fill="none" stroke="black" d="M1016,-378.5C1010,-378.5 1004,-372.5 1004,-366.5"/>
<polyline fill="none" stroke="black" points="1004,-366.5 1004,-317.5 "/>
<path fill="none" stroke="black" d="M1004,-317.5C1004,-311.5 1010,-305.5 1016,-305.5"/>
<text text-anchor="middle" x="1067" y="-361.9" font-family="Helvetica,sans-Serif" font-size="14.00">and</text>
<polyline fill="none" stroke="black" points="1004,-351.5 1130,-351.5 "/>
<text text-anchor="middle" x="1067" y="-334.9" font-family="Helvetica,sans-Serif" font-size="14.00">Pasar_libro</text>
<text text-anchor="middle" x="1067" y="-315.9" font-family="Helvetica,sans-Serif" font-size="14.00">Pasar_Actas_libro</text>
</g>
<!-- firma_presidente&#45;&gt;Pasar_libro -->
<g id="edge98" class="edge"><title>firma_presidente&#45;&gt;Pasar_libro</title>
<path fill="none" stroke="black" d="M79.9054,-480.788C92.7462,-466.759 110.987,-449.915 131,-441 285.34,-372.243 801.12,-349.968 993.674,-343.946"/>
<polygon fill="black" stroke="black" points="993.808,-347.443 1003.7,-343.638 993.593,-340.447 993.808,-347.443"/>
</g>
<!-- firma_Consejeros_1&#45;&gt;Pasar_libro -->
<g id="edge50" class="edge"><title>firma_Consejeros_1&#45;&gt;Pasar_libro</title>
<path fill="none" stroke="black" d="M230.639,-480.943C245.177,-466.977 265.542,-450.144 287,-441 413.678,-387.018 825.145,-356.634 993.837,-346.18"/>
<polygon fill="black" stroke="black" points="994.1,-349.671 1003.87,-345.565 993.671,-342.684 994.1,-349.671"/>
</g>
<!-- firma_Consejeros_2&#45;&gt;Pasar_libro -->
<g id="edge66" class="edge"><title>firma_Consejeros_2&#45;&gt;Pasar_libro</title>
<path fill="none" stroke="black" d="M387.065,-480.859C401.619,-467.043 421.845,-450.406 443,-441 540.634,-397.589 851.065,-362.915 993.855,-348.821"/>
<polygon fill="black" stroke="black" points="994.23,-352.301 1003.84,-347.842 993.547,-345.335 994.23,-352.301"/>
</g>
<!-- firma_Consejeros_3&#45;&gt;Pasar_libro -->
<g id="edge70" class="edge"><title>firma_Consejeros_3&#45;&gt;Pasar_libro</title>
<path fill="none" stroke="black" d="M543.567,-480.922C558.161,-467.31 578.25,-450.869 599,-441 729.431,-378.967 898.634,-355.528 993.735,-346.875"/>
<polygon fill="black" stroke="black" points="994.175,-350.35 1003.83,-345.987 993.561,-343.376 994.175,-350.35"/>
</g>
<!-- firma_Consejeros_4&#45;&gt;Pasar_libro -->
<g id="edge74" class="edge"><title>firma_Consejeros_4&#45;&gt;Pasar_libro</title>
<path fill="none" stroke="black" d="M700.941,-480.72C715.571,-467.548 735.222,-451.634 755,-441 831.887,-399.659 928.842,-372.286 994.096,-357.002"/>
<polygon fill="black" stroke="black" points="994.931,-360.402 1003.89,-354.744 993.357,-353.581 994.931,-360.402"/>
</g>
<!-- firma_Consejeros_5&#45;&gt;Pasar_libro -->
<g id="edge78" class="edge"><title>firma_Consejeros_5&#45;&gt;Pasar_libro</title>
<path fill="none" stroke="black" d="M860.198,-480.763C874.919,-468.514 893.605,-453.483 911,-441 938.514,-421.256 969.865,-400.96 997.21,-383.924"/>
<polygon fill="black" stroke="black" points="999.283,-386.757 1005.94,-378.513 995.595,-380.808 999.283,-386.757"/>
</g>
<!-- firma_Consejeros_6&#45;&gt;Pasar_libro -->
<g id="edge82" class="edge"><title>firma_Consejeros_6&#45;&gt;Pasar_libro</title>
<path fill="none" stroke="black" d="M1000.18,-480.789C1011.82,-456.607 1030.37,-418.085 1044.97,-387.754"/>
<polygon fill="black" stroke="black" points="1048.18,-389.157 1049.36,-378.629 1041.87,-386.121 1048.18,-389.157"/>
</g>
<!-- firma_Consejeros_7&#45;&gt;Pasar_libro -->
<g id="edge86" class="edge"><title>firma_Consejeros_7&#45;&gt;Pasar_libro</title>
<path fill="none" stroke="black" d="M1133.82,-480.789C1122.18,-456.607 1103.63,-418.085 1089.03,-387.754"/>
<polygon fill="black" stroke="black" points="1092.13,-386.121 1084.64,-378.629 1085.82,-389.157 1092.13,-386.121"/>
</g>
<!-- firma_Consejeros_8&#45;&gt;Pasar_libro -->
<g id="edge90" class="edge"><title>firma_Consejeros_8&#45;&gt;Pasar_libro</title>
<path fill="none" stroke="black" d="M1273.8,-480.763C1259.08,-468.514 1240.4,-453.483 1223,-441 1195.49,-421.256 1164.13,-400.96 1136.79,-383.924"/>
<polygon fill="black" stroke="black" points="1138.41,-380.808 1128.06,-378.513 1134.72,-386.757 1138.41,-380.808"/>
</g>
<!-- firma_Consejeros_9&#45;&gt;Pasar_libro -->
<g id="edge94" class="edge"><title>firma_Consejeros_9&#45;&gt;Pasar_libro</title>
<path fill="none" stroke="black" d="M1433.94,-480.937C1419.32,-467.505 1399.37,-451.248 1379,-441 1283.47,-392.939 1244.27,-416.697 1139.89,-379.05"/>
<polygon fill="black" stroke="black" points="1140.85,-375.673 1130.25,-375.47 1138.41,-382.234 1140.85,-375.673"/>
</g>
<!-- firma_Consejeros_10&#45;&gt;Pasar_libro -->
<g id="edge54" class="edge"><title>firma_Consejeros_10&#45;&gt;Pasar_libro</title>
<path fill="none" stroke="black" d="M1593.6,-480.863C1578.22,-467.049 1556.94,-450.412 1535,-441 1374.24,-372.043 1310.68,-431.944 1139.68,-378.872"/>
<polygon fill="black" stroke="black" points="1140.72,-375.53 1130.13,-375.826 1138.59,-382.199 1140.72,-375.53"/>
</g>
<!-- firma_Consejeros_11&#45;&gt;Pasar_libro -->
<g id="edge58" class="edge"><title>firma_Consejeros_11&#45;&gt;Pasar_libro</title>
<path fill="none" stroke="black" d="M1758.09,-480.834C1742.74,-466.823 1721.32,-449.983 1699,-441 1469.77,-348.726 1381.12,-448.5 1139.83,-378.875"/>
<polygon fill="black" stroke="black" points="1140.66,-375.47 1130.08,-375.993 1138.67,-382.183 1140.66,-375.47"/>
</g>
<!-- firma_Consejeros_12&#45;&gt;Pasar_libro -->
<g id="edge62" class="edge"><title>firma_Consejeros_12&#45;&gt;Pasar_libro</title>
<path fill="none" stroke="black" d="M1922.5,-480.959C1907.16,-466.81 1885.59,-449.77 1863,-441 1565.02,-325.332 1451.7,-465.341 1139.81,-378.847"/>
<polygon fill="black" stroke="black" points="1140.62,-375.441 1130.05,-376.085 1138.72,-382.176 1140.62,-375.441"/>
</g>
<!-- Aprobada_stats -->
<g id="node40" class="node"><title>Aprobada_stats</title>
<polygon fill="none" stroke="black" stroke-dasharray="5,2" points="1167,-891 915,-891 915,-765 1167,-765 1167,-891"/>
<text text-anchor="start" x="973" y="-876.733" font-family="Times Roman,serif" font-size="14.00">Porcentaje: 40.00%</text>
<text text-anchor="start" x="971.5" y="-859.933" font-family="Times Roman,serif" font-size="14.00">Nro Documentos: &#160;0</text>
<text text-anchor="start" x="1015" y="-843.133" font-family="Times Roman,serif" font-size="14.00">Total: 1</text>
<text text-anchor="start" x="1015" y="-826.333" font-family="Times Roman,serif" font-size="14.00">vbravo </text>
<text text-anchor="start" x="967" y="-809.533" font-family="Times Roman,serif" font-size="14.00">01/07/2013 02:46pm</text>
<text text-anchor="start" x="923.5" y="-792.733" font-family="Times Roman,serif" font-size="14.00">hace 37 meses y 3 semanas &#160;llego</text>
<text text-anchor="start" x="963.5" y="-775.933" font-family="Times Roman,serif" font-size="14.00">12 minutos &#160;en espera</text>
</g>
<!-- Aprobada_stats&#45;&gt;Aprobada -->
<g id="edge40" class="edge"><title>Aprobada_stats&#45;&gt;Aprobada</title>
<path fill="none" stroke="black" stroke-dasharray="1,5" d="M1000.88,-764.903C989.635,-747.212 977.625,-728.322 967.146,-711.842"/>
<polygon fill="black" stroke="black" points="969.816,-709.518 961.497,-702.957 963.909,-713.273 969.816,-709.518"/>
</g>
<!-- En_libro -->
<g id="node44" class="node"><title>En_libro</title>
<polygon fill="#ffffff" stroke="black" points="1181,-203 1075,-203 1075,-157 1181,-157 1181,-203"/>
<polygon fill="none" stroke="black" points="1181,-203 1075,-203 1075,-157 1181,-157 1181,-203"/>
<text text-anchor="middle" x="1128" y="-186.4" font-family="Helvetica,sans-Serif" font-size="14.00">En_libro</text>
<text text-anchor="middle" x="1128" y="-167.4" font-family="Helvetica,sans-Serif" font-size="14.00">Actas_en_libro</text>
</g>
<!-- Pasar_libro&#45;&gt;En_libro -->
<g id="edge42" class="edge"><title>Pasar_libro&#45;&gt;En_libro</title>
<path fill="none" stroke="black" d="M1080.84,-305.24C1091.31,-277.426 1105.57,-239.574 1115.66,-212.785"/>
<polygon fill="black" stroke="black" points="1119.05,-213.695 1119.3,-203.103 1112.5,-211.228 1119.05,-213.695"/>
</g>
<!-- final -->
<g id="node48" class="node"><title>final</title>
<ellipse fill="#ffffff" stroke="black" cx="1204" cy="-18" rx="31.9646" ry="18"/>
<ellipse fill="none" stroke="black" cx="1204" cy="-18" rx="31.9646" ry="18"/>
<text text-anchor="middle" x="1204" y="-13.9" font-family="Times Roman,serif" font-size="14.00">final</text>
</g>
<!-- En_libro&#45;&gt;final -->
<g id="edge46" class="edge"><title>En_libro&#45;&gt;final</title>
<path fill="none" stroke="black" d="M1138.89,-156.789C1152.74,-127.264 1176.62,-76.3628 1191.29,-45.0924"/>
<polygon fill="black" stroke="black" points="1194.63,-46.2213 1195.7,-35.6815 1188.29,-43.2482 1194.63,-46.2213"/>
</g>
<!-- Pasar_libro_stats -->
<g id="node45" class="node"><title>Pasar_libro_stats</title>
<polygon fill="none" stroke="black" stroke-dasharray="5,2" points="2288,-567 2036,-567 2036,-441 2288,-441 2288,-567"/>
<text text-anchor="start" x="2089.5" y="-552.733" font-family="Times Roman,serif" font-size="14.00">Porcentaje: 100.00%</text>
<text text-anchor="start" x="2092.5" y="-535.933" font-family="Times Roman,serif" font-size="14.00">Nro Documentos: &#160;1</text>
<text text-anchor="start" x="2136" y="-519.133" font-family="Times Roman,serif" font-size="14.00">Total: 1</text>
<text text-anchor="start" x="2136" y="-502.333" font-family="Times Roman,serif" font-size="14.00">vbravo </text>
<text text-anchor="start" x="2088" y="-485.533" font-family="Times Roman,serif" font-size="14.00">01/07/2013 02:49pm</text>
<text text-anchor="start" x="2044.5" y="-468.733" font-family="Times Roman,serif" font-size="14.00">hace 37 meses y 3 semanas &#160;llego</text>
<text text-anchor="start" x="2089" y="-451.933" font-family="Times Roman,serif" font-size="14.00">3 minutos &#160;en espera</text>
</g>
<!-- Pasar_libro_stats&#45;&gt;Pasar_libro -->
<g id="edge44" class="edge"><title>Pasar_libro_stats&#45;&gt;Pasar_libro</title>
<path fill="none" stroke="black" stroke-dasharray="1,5" d="M2035.67,-443.409C2032.77,-442.55 2029.88,-441.745 2027,-441 1647.16,-342.729 1522.14,-483.001 1139.69,-378.812"/>
<polygon fill="black" stroke="black" points="1140.6,-375.433 1130.03,-376.144 1138.74,-382.18 1140.6,-375.433"/>
</g>
<!-- En_libro_stats -->
<g id="node49" class="node"><title>En_libro_stats</title>
<polygon fill="none" stroke="black" stroke-dasharray="5,2" points="1232,-363 1148,-363 1148,-321 1232,-321 1232,-363"/>
<text text-anchor="start" x="1165" y="-348.733" font-family="Times Roman,serif" font-size="14.00"> 0.00%</text>
<text text-anchor="start" x="1156.5" y="-331.933" font-family="Times Roman,serif" font-size="14.00">Tareas: &#160;0</text>
</g>
<!-- En_libro_stats&#45;&gt;En_libro -->
<g id="edge48" class="edge"><title>En_libro_stats&#45;&gt;En_libro</title>
<path fill="none" stroke="black" stroke-dasharray="1,5" d="M1181.89,-320.821C1171.33,-293.229 1152.77,-244.711 1140.42,-212.46"/>
<polygon fill="black" stroke="black" points="1143.65,-211.103 1136.81,-203.014 1137.11,-213.605 1143.65,-211.103"/>
</g>
<!-- firma_Consejeros_1_stats -->
<g id="node52" class="node"><title>firma_Consejeros_1_stats</title>
<polygon fill="none" stroke="black" stroke-dasharray="5,2" points="251,-687 167,-687 167,-645 251,-645 251,-687"/>
<text text-anchor="start" x="184" y="-672.733" font-family="Times Roman,serif" font-size="14.00"> 0.00%</text>
<text text-anchor="start" x="175.5" y="-655.933" font-family="Times Roman,serif" font-size="14.00">Tareas: &#160;0</text>
</g>
<!-- firma_Consejeros_1_stats&#45;&gt;firma_Consejeros_1 -->
<g id="edge52" class="edge"><title>firma_Consejeros_1_stats&#45;&gt;firma_Consejeros_1</title>
<path fill="none" stroke="black" stroke-dasharray="1,5" d="M209,-644.821C209,-617.467 209,-569.546 209,-537.298"/>
<polygon fill="black" stroke="black" points="212.5,-537.014 209,-527.014 205.5,-537.014 212.5,-537.014"/>
</g>
<!-- firma_Consejeros_10_stats -->
<g id="node55" class="node"><title>firma_Consejeros_10_stats</title>
<polygon fill="none" stroke="black" stroke-dasharray="5,2" points="1659,-687 1575,-687 1575,-645 1659,-645 1659,-687"/>
<text text-anchor="start" x="1592" y="-672.733" font-family="Times Roman,serif" font-size="14.00"> 0.00%</text>
<text text-anchor="start" x="1583.5" y="-655.933" font-family="Times Roman,serif" font-size="14.00">Tareas: &#160;0</text>
</g>
<!-- firma_Consejeros_10_stats&#45;&gt;firma_Consejeros_10 -->
<g id="edge56" class="edge"><title>firma_Consejeros_10_stats&#45;&gt;firma_Consejeros_10</title>
<path fill="none" stroke="black" stroke-dasharray="1,5" d="M1617,-644.821C1617,-617.467 1617,-569.546 1617,-537.298"/>
<polygon fill="black" stroke="black" points="1620.5,-537.014 1617,-527.014 1613.5,-537.014 1620.5,-537.014"/>
</g>
<!-- firma_Consejeros_11_stats -->
<g id="node58" class="node"><title>firma_Consejeros_11_stats</title>
<polygon fill="none" stroke="black" stroke-dasharray="5,2" points="1823,-687 1739,-687 1739,-645 1823,-645 1823,-687"/>
<text text-anchor="start" x="1756" y="-672.733" font-family="Times Roman,serif" font-size="14.00"> 0.00%</text>
<text text-anchor="start" x="1747.5" y="-655.933" font-family="Times Roman,serif" font-size="14.00">Tareas: &#160;0</text>
</g>
<!-- firma_Consejeros_11_stats&#45;&gt;firma_Consejeros_11 -->
<g id="edge60" class="edge"><title>firma_Consejeros_11_stats&#45;&gt;firma_Consejeros_11</title>
<path fill="none" stroke="black" stroke-dasharray="1,5" d="M1781,-644.821C1781,-617.467 1781,-569.546 1781,-537.298"/>
<polygon fill="black" stroke="black" points="1784.5,-537.014 1781,-527.014 1777.5,-537.014 1784.5,-537.014"/>
</g>
<!-- firma_Consejeros_12_stats -->
<g id="node61" class="node"><title>firma_Consejeros_12_stats</title>
<polygon fill="none" stroke="black" stroke-dasharray="5,2" points="1987,-687 1903,-687 1903,-645 1987,-645 1987,-687"/>
<text text-anchor="start" x="1920" y="-672.733" font-family="Times Roman,serif" font-size="14.00"> 0.00%</text>
<text text-anchor="start" x="1911.5" y="-655.933" font-family="Times Roman,serif" font-size="14.00">Tareas: &#160;0</text>
</g>
<!-- firma_Consejeros_12_stats&#45;&gt;firma_Consejeros_12 -->
<g id="edge64" class="edge"><title>firma_Consejeros_12_stats&#45;&gt;firma_Consejeros_12</title>
<path fill="none" stroke="black" stroke-dasharray="1,5" d="M1945,-644.821C1945,-617.467 1945,-569.546 1945,-537.298"/>
<polygon fill="black" stroke="black" points="1948.5,-537.014 1945,-527.014 1941.5,-537.014 1948.5,-537.014"/>
</g>
<!-- firma_Consejeros_2_stats -->
<g id="node64" class="node"><title>firma_Consejeros_2_stats</title>
<polygon fill="none" stroke="black" stroke-dasharray="5,2" points="407,-687 323,-687 323,-645 407,-645 407,-687"/>
<text text-anchor="start" x="340" y="-672.733" font-family="Times Roman,serif" font-size="14.00"> 0.00%</text>
<text text-anchor="start" x="331.5" y="-655.933" font-family="Times Roman,serif" font-size="14.00">Tareas: &#160;0</text>
</g>
<!-- firma_Consejeros_2_stats&#45;&gt;firma_Consejeros_2 -->
<g id="edge68" class="edge"><title>firma_Consejeros_2_stats&#45;&gt;firma_Consejeros_2</title>
<path fill="none" stroke="black" stroke-dasharray="1,5" d="M365,-644.821C365,-617.467 365,-569.546 365,-537.298"/>
<polygon fill="black" stroke="black" points="368.5,-537.014 365,-527.014 361.5,-537.014 368.5,-537.014"/>
</g>
<!-- firma_Consejeros_3_stats -->
<g id="node67" class="node"><title>firma_Consejeros_3_stats</title>
<polygon fill="none" stroke="black" stroke-dasharray="5,2" points="563,-687 479,-687 479,-645 563,-645 563,-687"/>
<text text-anchor="start" x="496" y="-672.733" font-family="Times Roman,serif" font-size="14.00"> 0.00%</text>
<text text-anchor="start" x="487.5" y="-655.933" font-family="Times Roman,serif" font-size="14.00">Tareas: &#160;0</text>
</g>
<!-- firma_Consejeros_3_stats&#45;&gt;firma_Consejeros_3 -->
<g id="edge72" class="edge"><title>firma_Consejeros_3_stats&#45;&gt;firma_Consejeros_3</title>
<path fill="none" stroke="black" stroke-dasharray="1,5" d="M521,-644.821C521,-617.467 521,-569.546 521,-537.298"/>
<polygon fill="black" stroke="black" points="524.5,-537.014 521,-527.014 517.5,-537.014 524.5,-537.014"/>
</g>
<!-- firma_Consejeros_4_stats -->
<g id="node70" class="node"><title>firma_Consejeros_4_stats</title>
<polygon fill="none" stroke="black" stroke-dasharray="5,2" points="719,-687 635,-687 635,-645 719,-645 719,-687"/>
<text text-anchor="start" x="652" y="-672.733" font-family="Times Roman,serif" font-size="14.00"> 0.00%</text>
<text text-anchor="start" x="643.5" y="-655.933" font-family="Times Roman,serif" font-size="14.00">Tareas: &#160;0</text>
</g>
<!-- firma_Consejeros_4_stats&#45;&gt;firma_Consejeros_4 -->
<g id="edge76" class="edge"><title>firma_Consejeros_4_stats&#45;&gt;firma_Consejeros_4</title>
<path fill="none" stroke="black" stroke-dasharray="1,5" d="M677,-644.821C677,-617.467 677,-569.546 677,-537.298"/>
<polygon fill="black" stroke="black" points="680.5,-537.014 677,-527.014 673.5,-537.014 680.5,-537.014"/>
</g>
<!-- firma_Consejeros_5_stats -->
<g id="node73" class="node"><title>firma_Consejeros_5_stats</title>
<polygon fill="none" stroke="black" stroke-dasharray="5,2" points="867,-687 783,-687 783,-645 867,-645 867,-687"/>
<text text-anchor="start" x="800" y="-672.733" font-family="Times Roman,serif" font-size="14.00"> 0.00%</text>
<text text-anchor="start" x="791.5" y="-655.933" font-family="Times Roman,serif" font-size="14.00">Tareas: &#160;0</text>
</g>
<!-- firma_Consejeros_5_stats&#45;&gt;firma_Consejeros_5 -->
<g id="edge80" class="edge"><title>firma_Consejeros_5_stats&#45;&gt;firma_Consejeros_5</title>
<path fill="none" stroke="black" stroke-dasharray="1,5" d="M826.046,-644.821C827.397,-617.467 829.763,-569.546 831.356,-537.298"/>
<polygon fill="black" stroke="black" points="834.866,-537.175 831.863,-527.014 827.874,-536.83 834.866,-537.175"/>
</g>
<!-- firma_Consejeros_6_stats -->
<g id="node76" class="node"><title>firma_Consejeros_6_stats</title>
<polygon fill="none" stroke="black" stroke-dasharray="5,2" points="1093,-687 1009,-687 1009,-645 1093,-645 1093,-687"/>
<text text-anchor="start" x="1026" y="-672.733" font-family="Times Roman,serif" font-size="14.00"> 0.00%</text>
<text text-anchor="start" x="1017.5" y="-655.933" font-family="Times Roman,serif" font-size="14.00">Tareas: &#160;0</text>
</g>
<!-- firma_Consejeros_6_stats&#45;&gt;firma_Consejeros_6 -->
<g id="edge84" class="edge"><title>firma_Consejeros_6_stats&#45;&gt;firma_Consejeros_6</title>
<path fill="none" stroke="black" stroke-dasharray="1,5" d="M1042.89,-644.821C1032.33,-617.229 1013.77,-568.711 1001.42,-536.46"/>
<polygon fill="black" stroke="black" points="1004.65,-535.103 997.808,-527.014 998.114,-537.605 1004.65,-535.103"/>
</g>
<!-- firma_Consejeros_7_stats -->
<g id="node79" class="node"><title>firma_Consejeros_7_stats</title>
<polygon fill="none" stroke="black" stroke-dasharray="5,2" points="1195,-687 1111,-687 1111,-645 1195,-645 1195,-687"/>
<text text-anchor="start" x="1128" y="-672.733" font-family="Times Roman,serif" font-size="14.00"> 0.00%</text>
<text text-anchor="start" x="1119.5" y="-655.933" font-family="Times Roman,serif" font-size="14.00">Tareas: &#160;0</text>
</g>
<!-- firma_Consejeros_7_stats&#45;&gt;firma_Consejeros_7 -->
<g id="edge88" class="edge"><title>firma_Consejeros_7_stats&#45;&gt;firma_Consejeros_7</title>
<path fill="none" stroke="black" stroke-dasharray="1,5" d="M1151.95,-644.821C1150.6,-617.467 1148.24,-569.546 1146.64,-537.298"/>
<polygon fill="black" stroke="black" points="1150.13,-536.83 1146.14,-527.014 1143.13,-537.175 1150.13,-536.83"/>
</g>
<!-- firma_Consejeros_8_stats -->
<g id="node82" class="node"><title>firma_Consejeros_8_stats</title>
<polygon fill="none" stroke="black" stroke-dasharray="5,2" points="1343,-687 1259,-687 1259,-645 1343,-645 1343,-687"/>
<text text-anchor="start" x="1276" y="-672.733" font-family="Times Roman,serif" font-size="14.00"> 0.00%</text>
<text text-anchor="start" x="1267.5" y="-655.933" font-family="Times Roman,serif" font-size="14.00">Tareas: &#160;0</text>
</g>
<!-- firma_Consejeros_8_stats&#45;&gt;firma_Consejeros_8 -->
<g id="edge92" class="edge"><title>firma_Consejeros_8_stats&#45;&gt;firma_Consejeros_8</title>
<path fill="none" stroke="black" stroke-dasharray="1,5" d="M1301,-644.821C1301,-617.467 1301,-569.546 1301,-537.298"/>
<polygon fill="black" stroke="black" points="1304.5,-537.014 1301,-527.014 1297.5,-537.014 1304.5,-537.014"/>
</g>
<!-- firma_Consejeros_9_stats -->
<g id="node85" class="node"><title>firma_Consejeros_9_stats</title>
<polygon fill="none" stroke="black" stroke-dasharray="5,2" points="1499,-687 1415,-687 1415,-645 1499,-645 1499,-687"/>
<text text-anchor="start" x="1432" y="-672.733" font-family="Times Roman,serif" font-size="14.00"> 0.00%</text>
<text text-anchor="start" x="1423.5" y="-655.933" font-family="Times Roman,serif" font-size="14.00">Tareas: &#160;0</text>
</g>
<!-- firma_Consejeros_9_stats&#45;&gt;firma_Consejeros_9 -->
<g id="edge96" class="edge"><title>firma_Consejeros_9_stats&#45;&gt;firma_Consejeros_9</title>
<path fill="none" stroke="black" stroke-dasharray="1,5" d="M1457,-644.821C1457,-617.467 1457,-569.546 1457,-537.298"/>
<polygon fill="black" stroke="black" points="1460.5,-537.014 1457,-527.014 1453.5,-537.014 1460.5,-537.014"/>
</g>
<!-- firma_presidente_stats -->
<g id="node88" class="node"><title>firma_presidente_stats</title>
<polygon fill="none" stroke="black" stroke-dasharray="5,2" points="103,-687 19,-687 19,-645 103,-645 103,-687"/>
<text text-anchor="start" x="36" y="-672.733" font-family="Times Roman,serif" font-size="14.00"> 0.00%</text>
<text text-anchor="start" x="27.5" y="-655.933" font-family="Times Roman,serif" font-size="14.00">Tareas: &#160;0</text>
</g>
<!-- firma_presidente_stats&#45;&gt;firma_presidente -->
<g id="edge100" class="edge"><title>firma_presidente_stats&#45;&gt;firma_presidente</title>
<path fill="none" stroke="black" stroke-dasharray="1,5" d="M61,-644.821C61,-617.467 61,-569.546 61,-537.298"/>
<polygon fill="black" stroke="black" points="64.5001,-537.014 61,-527.014 57.5001,-537.014 64.5001,-537.014"/>
</g>
<!-- inicial -->
<g id="node90" class="node"><title>inicial</title>
<ellipse fill="#ffffff" stroke="black" cx="723" cy="-1314" rx="38.9134" ry="18"/>
<ellipse fill="none" stroke="black" cx="723" cy="-1314" rx="38.9134" ry="18"/>
<text text-anchor="middle" x="723" y="-1309.9" font-family="Times Roman,serif" font-size="14.00">inicial</text>
</g>
<!-- inicial&#45;&gt;Convocada -->
<g id="edge102" class="edge"><title>inicial&#45;&gt;Convocada</title>
<path fill="none" stroke="black" d="M712.979,-1296.35C697.697,-1269.44 668.329,-1217.73 649.209,-1184.06"/>
<polygon fill="black" stroke="black" points="652.089,-1182.05 644.108,-1175.08 646.003,-1185.5 652.089,-1182.05"/>
</g>
<!-- inicial_stats -->
<g id="node92" class="node"><title>inicial_stats</title>
<polygon fill="none" stroke="black" stroke-dasharray="5,2" points="765,-1497 681,-1497 681,-1455 765,-1455 765,-1497"/>
<text text-anchor="start" x="698" y="-1482.73" font-family="Times Roman,serif" font-size="14.00"> 0.00%</text>
<text text-anchor="start" x="689.5" y="-1465.93" font-family="Times Roman,serif" font-size="14.00">Tareas: &#160;0</text>
</g>
<!-- inicial_stats&#45;&gt;inicial -->
<g id="edge104" class="edge"><title>inicial_stats&#45;&gt;inicial</title>
<path fill="none" stroke="black" stroke-dasharray="1,5" d="M723,-1454.82C723,-1426 723,-1374.36 723,-1342.26"/>
<polygon fill="black" stroke="black" points="726.5,-1342.19 723,-1332.19 719.5,-1342.19 726.5,-1342.19"/>
</g>
<!-- final_stats -->
<g id="node94" class="node"><title>final_stats</title>
<polygon fill="none" stroke="black" stroke-dasharray="5,2" points="1361,-226.5 1199,-226.5 1199,-133.5 1361,-133.5 1361,-226.5"/>
<text text-anchor="start" x="1207.5" y="-212.233" font-family="Times Roman,serif" font-size="14.00">Porcentaje: 100.00%</text>
<text text-anchor="start" x="1210.5" y="-195.433" font-family="Times Roman,serif" font-size="14.00">Nro Documentos: &#160;0</text>
<text text-anchor="start" x="1254" y="-178.633" font-family="Times Roman,serif" font-size="14.00">Total: 1</text>
<text text-anchor="start" x="1226" y="-161.833" font-family="Times Roman,serif" font-size="14.00">Suma total: 0%</text>
<text text-anchor="start" x="1275" y="-145.033" font-family="Times Roman,serif" font-size="14.00"> &#160;</text>
</g>
<!-- final_stats&#45;&gt;final -->
<g id="edge106" class="edge"><title>final_stats&#45;&gt;final</title>
<path fill="none" stroke="black" stroke-dasharray="1,5" d="M1258.02,-133.143C1244.53,-104.397 1227.75,-68.629 1216.5,-44.6534"/>
<polygon fill="black" stroke="black" points="1219.61,-43.031 1212.19,-35.4643 1213.27,-46.0041 1219.61,-43.031"/>
</g>
</g>
</svg>
