<?xml version="1.0" encoding="UTF-8" standalone="no"?>
<!DOCTYPE svg PUBLIC "-//W3C//DTD SVG 1.1//EN"
 "http://www.w3.org/Graphics/SVG/1.1/DTD/svg11.dtd">
<!-- Generated by graphviz version 2.26.3 (20100126.1600)
 -->
<!-- Title: G Pages: 1 -->
<svg width="724pt" height="646pt"
 viewBox="0.00 0.00 724.00 646.00" xmlns="http://www.w3.org/2000/svg" xmlns:xlink="http://www.w3.org/1999/xlink">
<g id="graph1" class="graph" transform="scale(1 1) rotate(0) translate(4 642)">
<title>G</title>
<polygon fill="white" stroke="white" points="-4,5 -4,-642 721,-642 721,5 -4,5"/>
<!-- Archivar_solicitud_procesada -->
<g id="node1" class="node"><title>Archivar_solicitud_procesada</title>
<polygon fill="#ffffff" stroke="black" points="192,-138 7.10543e-14,-138 0,-92 192,-92 192,-138"/>
<polygon fill="none" stroke="black" points="192,-138 7.10543e-14,-138 0,-92 192,-92 192,-138"/>
<text text-anchor="middle" x="96" y="-121.4" font-family="Helvetica,sans-Serif" font-size="14.00">Archivar_solicitud_procesada</text>
<text text-anchor="middle" x="96" y="-102.4" font-family="Helvetica,sans-Serif" font-size="14.00">solicitud_archivada</text>
</g>
<!-- final -->
<g id="node3" class="node"><title>final</title>
<ellipse fill="#ffffff" stroke="black" cx="427" cy="-18" rx="31.9646" ry="18"/>
<ellipse fill="none" stroke="black" cx="427" cy="-18" rx="31.9646" ry="18"/>
<text text-anchor="middle" x="427" y="-13.9" font-family="Times Roman,serif" font-size="14.00">final</text>
</g>
<!-- Archivar_solicitud_procesada&#45;&gt;final -->
<g id="edge2" class="edge"><title>Archivar_solicitud_procesada&#45;&gt;final</title>
<path fill="none" stroke="black" d="M174.862,-91.8893C242.266,-72.1365 336.371,-44.5589 388.462,-29.2936"/>
<polygon fill="black" stroke="black" points="389.687,-32.5818 398.299,-26.4107 387.719,-25.8643 389.687,-32.5818"/>
</g>
<!-- DireccionEjecutiva -->
<g id="node4" class="node"><title>DireccionEjecutiva</title>
<polygon fill="#ffffff" stroke="black" points="433,-332 267,-332 267,-286 433,-286 433,-332"/>
<polygon fill="none" stroke="black" points="433,-332 267,-332 267,-286 433,-286 433,-332"/>
<text text-anchor="middle" x="350" y="-315.4" font-family="Helvetica,sans-Serif" font-size="14.00">DireccionEjecutiva</text>
<text text-anchor="middle" x="350" y="-296.4" font-family="Helvetica,sans-Serif" font-size="14.00">Planilla vista_vacaciones</text>
</g>
<!-- Presidencia -->
<g id="node6" class="node"><title>Presidencia</title>
<polygon fill="#ffffff" stroke="#ffffff" points="274.5,-175.5 425.5,-175.5 437.5,-187.5 437.5,-236.5 425.5,-248.5 274.5,-248.5 262.5,-236.5 262.5,-187.5 274.5,-175.5"/>
<path fill="#ffffff" stroke="#ffffff" d="M425.5,-175.5C431.5,-175.5 437.5,-181.5 437.5,-187.5"/>
<path fill="#ffffff" stroke="#ffffff" d="M437.5,-236.5C437.5,-242.5 431.5,-248.5 425.5,-248.5"/>
<path fill="#ffffff" stroke="#ffffff" d="M274.5,-248.5C268.5,-248.5 262.5,-242.5 262.5,-236.5"/>
<path fill="#ffffff" stroke="#ffffff" d="M262.5,-187.5C262.5,-181.5 268.5,-175.5 274.5,-175.5"/>
<polyline fill="none" stroke="black" points="274.5,-175.5 425.5,-175.5 "/>
<path fill="none" stroke="black" d="M425.5,-175.5C431.5,-175.5 437.5,-181.5 437.5,-187.5"/>
<polyline fill="none" stroke="black" points="437.5,-187.5 437.5,-236.5 "/>
<path fill="none" stroke="black" d="M437.5,-236.5C437.5,-242.5 431.5,-248.5 425.5,-248.5"/>
<polyline fill="none" stroke="black" points="425.5,-248.5 274.5,-248.5 "/>
<path fill="none" stroke="black" d="M274.5,-248.5C268.5,-248.5 262.5,-242.5 262.5,-236.5"/>
<polyline fill="none" stroke="black" points="262.5,-236.5 262.5,-187.5 "/>
<path fill="none" stroke="black" d="M262.5,-187.5C262.5,-181.5 268.5,-175.5 274.5,-175.5"/>
<text text-anchor="middle" x="350" y="-231.9" font-family="Helvetica,sans-Serif" font-size="14.00">Presidencia</text>
<text text-anchor="middle" x="350" y="-212.9" font-family="Helvetica,sans-Serif" font-size="14.00">Aprobacion del Presidente</text>
<polyline fill="none" stroke="black" points="262.5,-202.5 437.5,-202.5 "/>
<text text-anchor="middle" x="350" y="-185.9" font-family="Helvetica,sans-Serif" font-size="14.00">or</text>
</g>
<!-- DireccionEjecutiva&#45;&gt;Presidencia -->
<g id="edge4" class="edge"><title>DireccionEjecutiva&#45;&gt;Presidencia</title>
<path fill="none" stroke="black" d="M350,-285.519C350,-277.366 350,-267.915 350,-258.559"/>
<polygon fill="black" stroke="black" points="353.5,-258.512 350,-248.512 346.5,-258.512 353.5,-258.512"/>
</g>
<!-- Presidencia&#45;&gt;Archivar_solicitud_procesada -->
<g id="edge16" class="edge"><title>Presidencia&#45;&gt;Archivar_solicitud_procesada</title>
<path fill="none" stroke="black" d="M262.232,-178.482C230.79,-166.475 195.791,-153.109 166.048,-141.75"/>
<polygon fill="black" stroke="black" points="167.177,-138.435 156.587,-138.137 164.68,-144.975 167.177,-138.435"/>
</g>
<!-- Firmada_direccion -->
<g id="node7" class="node"><title>Firmada_direccion</title>
<polygon fill="#ffffff" stroke="black" points="338,-138 210,-138 210,-92 338,-92 338,-138"/>
<polygon fill="none" stroke="black" points="338,-138 210,-138 210,-92 338,-92 338,-138"/>
<text text-anchor="middle" x="274" y="-121.4" font-family="Helvetica,sans-Serif" font-size="14.00">Firmada_direccion</text>
<text text-anchor="middle" x="274" y="-102.4" font-family="Helvetica,sans-Serif" font-size="14.00">firmada_YV</text>
</g>
<!-- Presidencia&#45;&gt;Firmada_direccion -->
<g id="edge20" class="edge"><title>Presidencia&#45;&gt;Firmada_direccion</title>
<path fill="none" stroke="black" d="M321.268,-175.328C313.725,-165.702 305.664,-155.413 298.373,-146.108"/>
<polygon fill="black" stroke="black" points="301.12,-143.939 292.198,-138.226 295.61,-148.256 301.12,-143.939"/>
</g>
<!-- Firmada_presidencia -->
<g id="node9" class="node"><title>Firmada_presidencia</title>
<polygon fill="#ffffff" stroke="black" points="498,-138 356,-138 356,-92 498,-92 498,-138"/>
<polygon fill="none" stroke="black" points="498,-138 356,-138 356,-92 498,-92 498,-138"/>
<text text-anchor="middle" x="427" y="-121.4" font-family="Helvetica,sans-Serif" font-size="14.00">Firmada_presidencia</text>
<text text-anchor="middle" x="427" y="-102.4" font-family="Helvetica,sans-Serif" font-size="14.00">firmada_JJ</text>
</g>
<!-- Presidencia&#45;&gt;Firmada_presidencia -->
<g id="edge22" class="edge"><title>Presidencia&#45;&gt;Firmada_presidencia</title>
<path fill="none" stroke="black" d="M379.11,-175.328C386.752,-165.702 394.92,-155.413 402.306,-146.108"/>
<polygon fill="black" stroke="black" points="405.087,-148.235 408.563,-138.226 399.604,-143.882 405.087,-148.235"/>
</g>
<!-- Firmada_talento -->
<g id="node11" class="node"><title>Firmada_talento</title>
<polygon fill="#ffffff" stroke="black" points="630,-138 516,-138 516,-92 630,-92 630,-138"/>
<polygon fill="none" stroke="black" points="630,-138 516,-138 516,-92 630,-92 630,-138"/>
<text text-anchor="middle" x="573" y="-121.4" font-family="Helvetica,sans-Serif" font-size="14.00">Firmada_talento</text>
<text text-anchor="middle" x="573" y="-102.4" font-family="Helvetica,sans-Serif" font-size="14.00">firmada_EE</text>
</g>
<!-- Presidencia&#45;&gt;Firmada_talento -->
<g id="edge18" class="edge"><title>Presidencia&#45;&gt;Firmada_talento</title>
<path fill="none" stroke="black" d="M433.989,-175.467C459.494,-164.373 487.048,-152.387 510.845,-142.036"/>
<polygon fill="black" stroke="black" points="512.335,-145.205 520.109,-138.006 509.543,-138.786 512.335,-145.205"/>
</g>
<!-- Firmada_direccion&#45;&gt;final -->
<g id="edge6" class="edge"><title>Firmada_direccion&#45;&gt;final</title>
<path fill="none" stroke="black" d="M310.647,-91.7661C337.103,-74.9937 372.38,-52.6282 397.13,-36.9372"/>
<polygon fill="black" stroke="black" points="399.164,-39.7916 405.736,-31.4811 395.416,-33.8796 399.164,-39.7916"/>
</g>
<!-- Firmada_presidencia&#45;&gt;final -->
<g id="edge8" class="edge"><title>Firmada_presidencia&#45;&gt;final</title>
<path fill="none" stroke="black" d="M427,-91.519C427,-77.9362 427,-60.7483 427,-46.4075"/>
<polygon fill="black" stroke="black" points="430.5,-46.1027 427,-36.1028 423.5,-46.1028 430.5,-46.1027"/>
</g>
<!-- Firmada_talento&#45;&gt;final -->
<g id="edge10" class="edge"><title>Firmada_talento&#45;&gt;final</title>
<path fill="none" stroke="black" d="M538.029,-91.7661C513.045,-75.1667 479.814,-53.0889 456.237,-37.4248"/>
<polygon fill="black" stroke="black" points="457.977,-34.3788 447.711,-31.7602 454.104,-40.2093 457.977,-34.3788"/>
</g>
<!-- Por_usuario -->
<g id="node13" class="node"><title>Por_usuario</title>
<polygon fill="#ffff99" stroke="black" points="394,-526 306,-526 306,-480 394,-480 394,-526"/>
<polygon fill="none" stroke="black" points="394,-526 306,-526 306,-480 394,-480 394,-526"/>
<text text-anchor="middle" x="350" y="-509.4" font-family="Helvetica,sans-Serif" font-size="14.00">Por_usuario</text>
<text text-anchor="middle" x="350" y="-490.4" font-family="Helvetica,sans-Serif" font-size="14.00">todas</text>
</g>
<!-- Talento_humano -->
<g id="node15" class="node"><title>Talento_humano</title>
<polygon fill="#ffff80" stroke="black" points="433,-429 267,-429 267,-383 433,-383 433,-429"/>
<polygon fill="none" stroke="black" points="433,-429 267,-429 267,-383 433,-383 433,-429"/>
<text text-anchor="middle" x="350" y="-412.4" font-family="Helvetica,sans-Serif" font-size="14.00">Talento_humano</text>
<text text-anchor="middle" x="350" y="-393.4" font-family="Helvetica,sans-Serif" font-size="14.00">Planilla vista_vacaciones</text>
</g>
<!-- Por_usuario&#45;&gt;Talento_humano -->
<g id="edge12" class="edge"><title>Por_usuario&#45;&gt;Talento_humano</title>
<path fill="none" stroke="black" d="M350,-479.519C350,-467.485 350,-452.621 350,-439.415"/>
<polygon fill="black" stroke="black" points="353.5,-439.265 350,-429.265 346.5,-439.265 353.5,-439.265"/>
</g>
<!-- Talento_humano&#45;&gt;DireccionEjecutiva -->
<g id="edge24" class="edge"><title>Talento_humano&#45;&gt;DireccionEjecutiva</title>
<path fill="none" stroke="black" d="M350,-382.519C350,-370.485 350,-355.621 350,-342.415"/>
<polygon fill="black" stroke="black" points="353.5,-342.265 350,-332.265 346.5,-342.265 353.5,-342.265"/>
</g>
<!-- Por_usuario_stats -->
<g id="node16" class="node"><title>Por_usuario_stats</title>
<polygon fill="none" stroke="black" stroke-dasharray="5,2" points="363,-638 197,-638 197,-562 363,-562 363,-638"/>
<text text-anchor="start" x="256" y="-623.733" font-family="Times Roman,serif" font-size="14.00">vbravo</text>
<text text-anchor="start" x="206" y="-606.933" font-family="Times Roman,serif" font-size="14.00">14/06/2016 12:04pm</text>
<text text-anchor="start" x="205" y="-590.133" font-family="Times Roman,serif" font-size="14.00">hace un minuto &#160;llego</text>
<text text-anchor="start" x="267.5" y="-573.333" font-family="Times Roman,serif" font-size="14.00">N/A</text>
</g>
<!-- Por_usuario_stats&#45;&gt;Por_usuario -->
<g id="edge14" class="edge"><title>Por_usuario_stats&#45;&gt;Por_usuario</title>
<path fill="none" stroke="black" stroke-dasharray="1,5" d="M307.465,-561.941C314.083,-552.771 321.078,-543.077 327.442,-534.258"/>
<polygon fill="black" stroke="black" points="330.304,-536.274 333.318,-526.116 324.628,-532.177 330.304,-536.274"/>
</g>
<!-- inicial -->
<g id="node23" class="node"><title>inicial</title>
<ellipse fill="#ffffff" stroke="black" cx="420" cy="-600" rx="38.9134" ry="18"/>
<ellipse fill="none" stroke="black" cx="420" cy="-600" rx="38.9134" ry="18"/>
<text text-anchor="middle" x="420" y="-595.9" font-family="Times Roman,serif" font-size="14.00">inicial</text>
</g>
<!-- inicial&#45;&gt;Por_usuario -->
<g id="edge26" class="edge"><title>inicial&#45;&gt;Por_usuario</title>
<path fill="none" stroke="black" d="M407.485,-582.658C397.863,-569.324 384.309,-550.542 372.778,-534.564"/>
<polygon fill="black" stroke="black" points="375.308,-532.089 366.618,-526.028 369.632,-536.185 375.308,-532.089"/>
</g>
<!-- final_stats -->
<g id="node25" class="node"><title>final_stats</title>
<polygon fill="none" stroke="black" stroke-dasharray="5,2" points="716,-136 648,-136 648,-94 716,-94 716,-136"/>
<text text-anchor="start" x="656" y="-121.733" font-family="Times Roman,serif" font-size="14.00">Total: 0</text>
<text text-anchor="start" x="677" y="-104.933" font-family="Times Roman,serif" font-size="14.00"> &#160;</text>
</g>
<!-- final_stats&#45;&gt;final -->
<g id="edge28" class="edge"><title>final_stats&#45;&gt;final</title>
<path fill="none" stroke="black" stroke-dasharray="1,5" d="M647.97,-96.1821C644.965,-94.7084 641.946,-93.2927 639,-92 579.843,-66.0422 508.44,-42.6826 465.433,-29.4344"/>
<polygon fill="black" stroke="black" points="466.244,-26.0226 455.658,-26.4469 464.198,-32.717 466.244,-26.0226"/>
</g>
</g>
</svg>
