<?xml version="1.0" encoding="UTF-8" standalone="no"?>
<!DOCTYPE svg PUBLIC "-//W3C//DTD SVG 1.1//EN"
 "http://www.w3.org/Graphics/SVG/1.1/DTD/svg11.dtd">
<!-- Generated by graphviz version 2.26.3 (20100126.1600)
 -->
<!-- Title: G Pages: 1 -->
<svg width="260pt" height="454pt"
 viewBox="0.00 0.00 260.00 454.00" xmlns="http://www.w3.org/2000/svg" xmlns:xlink="http://www.w3.org/1999/xlink">
<g id="graph1" class="graph" transform="scale(1 1) rotate(0) translate(4 450)">
<title>G</title>
<polygon fill="white" stroke="white" points="-4,5 -4,-450 257,-450 257,5 -4,5"/>
<!-- DireccionEjecutiva -->
<g id="node1" class="node"><title>DireccionEjecutiva</title>
<polygon fill="#ffffc0" stroke="black" points="252,-123 86,-123 86,-77 252,-77 252,-123"/>
<polygon fill="none" stroke="black" points="252,-123 86,-123 86,-77 252,-77 252,-123"/>
<text text-anchor="middle" x="169" y="-106.4" font-family="Helvetica,sans-Serif" font-size="14.00">DireccionEjecutiva</text>
<text text-anchor="middle" x="169" y="-87.4" font-family="Helvetica,sans-Serif" font-size="14.00">Planilla vista_vacaciones</text>
</g>
<!-- final -->
<g id="node3" class="node"><title>final</title>
<ellipse fill="#ffffff" stroke="black" cx="101" cy="-18" rx="31.9646" ry="18"/>
<ellipse fill="none" stroke="black" cx="101" cy="-18" rx="31.9646" ry="18"/>
<text text-anchor="middle" x="101" y="-13.9" font-family="Times Roman,serif" font-size="14.00">final</text>
</g>
<!-- DireccionEjecutiva&#45;&gt;final -->
<g id="edge2" class="edge"><title>DireccionEjecutiva&#45;&gt;final</title>
<path fill="none" stroke="black" d="M149.696,-76.7214C140.81,-66.0057 130.265,-53.2901 121.264,-42.4363"/>
<polygon fill="black" stroke="black" points="123.813,-40.0265 114.735,-34.5631 118.424,-44.4949 123.813,-40.0265"/>
</g>
<!-- Por_usuario -->
<g id="node4" class="node"><title>Por_usuario</title>
<polygon fill="#ffffc0" stroke="black" points="213,-369 125,-369 125,-323 213,-323 213,-369"/>
<polygon fill="none" stroke="black" points="213,-369 125,-369 125,-323 213,-323 213,-369"/>
<text text-anchor="middle" x="169" y="-352.4" font-family="Helvetica,sans-Serif" font-size="14.00">Por_usuario</text>
<text text-anchor="middle" x="169" y="-333.4" font-family="Helvetica,sans-Serif" font-size="14.00">vbravo</text>
</g>
<!-- Vacaciones_solicitadas -->
<g id="node6" class="node"><title>Vacaciones_solicitadas</title>
<polygon fill="#ffffc0" stroke="black" points="252,-287 86,-287 86,-241 252,-241 252,-287"/>
<polygon fill="none" stroke="black" points="252,-287 86,-287 86,-241 252,-241 252,-287"/>
<text text-anchor="middle" x="169" y="-270.4" font-family="Helvetica,sans-Serif" font-size="14.00">Vacaciones_solicitadas</text>
<text text-anchor="middle" x="169" y="-251.4" font-family="Helvetica,sans-Serif" font-size="14.00">Planilla vista_vacaciones</text>
</g>
<!-- Por_usuario&#45;&gt;Vacaciones_solicitadas -->
<g id="edge4" class="edge"><title>Por_usuario&#45;&gt;Vacaciones_solicitadas</title>
<path fill="none" stroke="black" d="M169,-322.721C169,-314.777 169,-305.734 169,-297.164"/>
<polygon fill="black" stroke="black" points="172.5,-297.053 169,-287.053 165.5,-297.053 172.5,-297.053"/>
</g>
<!-- Solicitud_firmada -->
<g id="node7" class="node"><title>Solicitud_firmada</title>
<polygon fill="#ffffc0" stroke="black" points="252,-205 86,-205 86,-159 252,-159 252,-205"/>
<polygon fill="none" stroke="black" points="252,-205 86,-205 86,-159 252,-159 252,-205"/>
<text text-anchor="middle" x="169" y="-188.4" font-family="Helvetica,sans-Serif" font-size="14.00">Solicitud_firmada</text>
<text text-anchor="middle" x="169" y="-169.4" font-family="Helvetica,sans-Serif" font-size="14.00">Planilla vista_vacaciones</text>
</g>
<!-- Vacaciones_solicitadas&#45;&gt;Solicitud_firmada -->
<g id="edge8" class="edge"><title>Vacaciones_solicitadas&#45;&gt;Solicitud_firmada</title>
<path fill="none" stroke="black" d="M169,-240.721C169,-232.777 169,-223.734 169,-215.164"/>
<polygon fill="black" stroke="black" points="172.5,-215.053 169,-205.053 165.5,-215.053 172.5,-215.053"/>
</g>
<!-- Solicitud_firmada&#45;&gt;DireccionEjecutiva -->
<g id="edge6" class="edge"><title>Solicitud_firmada&#45;&gt;DireccionEjecutiva</title>
<path fill="none" stroke="black" d="M169,-158.721C169,-150.777 169,-141.734 169,-133.164"/>
<polygon fill="black" stroke="black" points="172.5,-133.053 169,-123.053 165.5,-133.053 172.5,-133.053"/>
</g>
<!-- inicial -->
<g id="node10" class="node"><title>inicial</title>
<ellipse fill="#ffffff" stroke="black" cx="169" cy="-428" rx="38.9134" ry="18"/>
<ellipse fill="none" stroke="black" cx="169" cy="-428" rx="38.9134" ry="18"/>
<text text-anchor="middle" x="169" y="-423.9" font-family="Times Roman,serif" font-size="14.00">inicial</text>
</g>
<!-- inicial&#45;&gt;Por_usuario -->
<g id="edge10" class="edge"><title>inicial&#45;&gt;Por_usuario</title>
<path fill="none" stroke="black" d="M169,-409.802C169,-400.813 169,-389.681 169,-379.244"/>
<polygon fill="black" stroke="black" points="172.5,-379.145 169,-369.145 165.5,-379.145 172.5,-379.145"/>
</g>
<!-- final_stats -->
<g id="node12" class="node"><title>final_stats</title>
<polygon fill="none" stroke="black" stroke-dasharray="5,2" points="68,-121 3.55271e-14,-121 0,-79 68,-79 68,-121"/>
<text text-anchor="start" x="8" y="-106.733" font-family="Times Roman,serif" font-size="14.00">Total: 0</text>
<text text-anchor="start" x="29" y="-89.9333" font-family="Times Roman,serif" font-size="14.00"> &#160;</text>
</g>
<!-- final_stats&#45;&gt;final -->
<g id="edge12" class="edge"><title>final_stats&#45;&gt;final</title>
<path fill="none" stroke="black" stroke-dasharray="1,5" d="M51.2542,-78.883C60.3645,-67.733 71.59,-53.9943 81.0705,-42.3914"/>
<polygon fill="black" stroke="black" points="83.9932,-44.346 87.6101,-34.3876 78.5725,-39.9169 83.9932,-44.346"/>
</g>
</g>
</svg>
