<?xml version="1.0" encoding="UTF-8" standalone="no"?>
<!DOCTYPE svg PUBLIC "-//W3C//DTD SVG 1.1//EN"
 "http://www.w3.org/Graphics/SVG/1.1/DTD/svg11.dtd">
<!-- Generated by graphviz version 2.26.3 (20100126.1600)
 -->
<!-- Title: G Pages: 1 -->
<svg width="286pt" height="524pt"
 viewBox="0.00 0.00 286.00 524.00" xmlns="http://www.w3.org/2000/svg" xmlns:xlink="http://www.w3.org/1999/xlink">
<g id="graph1" class="graph" transform="scale(1 1) rotate(0) translate(4 520)">
<title>G</title>
<polygon fill="white" stroke="white" points="-4,5 -4,-520 283,-520 283,5 -4,5"/>
<!-- Archivar_solicitud_procesada -->
<g id="node1" class="node"><title>Archivar_solicitud_procesada</title>
<polygon fill="#ffff50" stroke="black" points="278,-137 86,-137 86,-91 278,-91 278,-137"/>
<polygon fill="none" stroke="black" points="278,-137 86,-137 86,-91 278,-91 278,-137"/>
<text text-anchor="middle" x="182" y="-120.4" font-family="Helvetica,sans-Serif" font-size="14.00">Archivar_solicitud_procesada</text>
<text text-anchor="middle" x="182" y="-101.4" font-family="Helvetica,sans-Serif" font-size="14.00">enviado_aprobacion</text>
</g>
<!-- final -->
<g id="node3" class="node"><title>final</title>
<ellipse fill="#ffffff" stroke="black" cx="108" cy="-18" rx="31.9646" ry="18"/>
<ellipse fill="none" stroke="black" cx="108" cy="-18" rx="31.9646" ry="18"/>
<text text-anchor="middle" x="108" y="-13.9" font-family="Times Roman,serif" font-size="14.00">final</text>
</g>
<!-- Archivar_solicitud_procesada&#45;&gt;final -->
<g id="edge2" class="edge"><title>Archivar_solicitud_procesada&#45;&gt;final</title>
<path fill="none" stroke="black" d="M164.087,-90.7611C152.931,-76.2883 138.586,-57.6798 127.197,-42.9045"/>
<polygon fill="black" stroke="black" points="129.756,-40.4915 120.879,-34.7082 124.212,-44.7651 129.756,-40.4915"/>
</g>
<!-- DireccionEjecutiva -->
<g id="node4" class="node"><title>DireccionEjecutiva</title>
<polygon fill="#ffffff" stroke="black" points="200,-329 72,-329 72,-283 200,-283 200,-329"/>
<polygon fill="none" stroke="black" points="200,-329 72,-329 72,-283 200,-283 200,-329"/>
<text text-anchor="middle" x="136" y="-312.4" font-family="Helvetica,sans-Serif" font-size="14.00">DireccionEjecutiva</text>
<text text-anchor="middle" x="136" y="-293.4" font-family="Helvetica,sans-Serif" font-size="14.00">revisado</text>
</g>
<!-- Presidencia -->
<g id="node6" class="node"><title>Presidencia</title>
<polygon fill="#ffffd9" stroke="#ffffd9" points="140,-173.5 224,-173.5 236,-185.5 236,-234.5 224,-246.5 140,-246.5 128,-234.5 128,-185.5 140,-173.5"/>
<path fill="#ffffd9" stroke="#ffffd9" d="M224,-173.5C230,-173.5 236,-179.5 236,-185.5"/>
<path fill="#ffffd9" stroke="#ffffd9" d="M236,-234.5C236,-240.5 230,-246.5 224,-246.5"/>
<path fill="#ffffd9" stroke="#ffffd9" d="M140,-246.5C134,-246.5 128,-240.5 128,-234.5"/>
<path fill="#ffffd9" stroke="#ffffd9" d="M128,-185.5C128,-179.5 134,-173.5 140,-173.5"/>
<polyline fill="none" stroke="black" points="140,-173.5 224,-173.5 "/>
<path fill="none" stroke="black" d="M224,-173.5C230,-173.5 236,-179.5 236,-185.5"/>
<polyline fill="none" stroke="black" points="236,-185.5 236,-234.5 "/>
<path fill="none" stroke="black" d="M236,-234.5C236,-240.5 230,-246.5 224,-246.5"/>
<polyline fill="none" stroke="black" points="224,-246.5 140,-246.5 "/>
<path fill="none" stroke="black" d="M140,-246.5C134,-246.5 128,-240.5 128,-234.5"/>
<polyline fill="none" stroke="black" points="128,-234.5 128,-185.5 "/>
<path fill="none" stroke="black" d="M128,-185.5C128,-179.5 134,-173.5 140,-173.5"/>
<text text-anchor="middle" x="182" y="-229.9" font-family="Helvetica,sans-Serif" font-size="14.00">Presidencia</text>
<text text-anchor="middle" x="182" y="-210.9" font-family="Helvetica,sans-Serif" font-size="14.00">en_presidencia</text>
<polyline fill="none" stroke="black" points="128,-200.5 236,-200.5 "/>
<text text-anchor="middle" x="182" y="-183.9" font-family="Helvetica,sans-Serif" font-size="14.00">or</text>
</g>
<!-- DireccionEjecutiva&#45;&gt;Presidencia -->
<g id="edge4" class="edge"><title>DireccionEjecutiva&#45;&gt;Presidencia</title>
<path fill="none" stroke="black" d="M147.135,-282.761C151.044,-274.604 155.582,-265.133 160.066,-255.775"/>
<polygon fill="black" stroke="black" points="163.342,-257.038 164.507,-246.507 157.029,-254.013 163.342,-257.038"/>
</g>
<!-- Presidencia&#45;&gt;Archivar_solicitud_procesada -->
<g id="edge6" class="edge"><title>Presidencia&#45;&gt;Archivar_solicitud_procesada</title>
<path fill="none" stroke="black" d="M182,-173.433C182,-164.864 182,-155.778 182,-147.358"/>
<polygon fill="black" stroke="black" points="185.5,-147.137 182,-137.137 178.5,-147.137 185.5,-147.137"/>
</g>
<!-- Talento_humano -->
<g id="node8" class="node"><title>Talento_humano</title>
<polygon fill="#ffffd9" stroke="#ffffd9" points="128.5,-365.5 235.5,-365.5 247.5,-377.5 247.5,-426.5 235.5,-438.5 128.5,-438.5 116.5,-426.5 116.5,-377.5 128.5,-365.5"/>
<path fill="#ffffd9" stroke="#ffffd9" d="M235.5,-365.5C241.5,-365.5 247.5,-371.5 247.5,-377.5"/>
<path fill="#ffffd9" stroke="#ffffd9" d="M247.5,-426.5C247.5,-432.5 241.5,-438.5 235.5,-438.5"/>
<path fill="#ffffd9" stroke="#ffffd9" d="M128.5,-438.5C122.5,-438.5 116.5,-432.5 116.5,-426.5"/>
<path fill="#ffffd9" stroke="#ffffd9" d="M116.5,-377.5C116.5,-371.5 122.5,-365.5 128.5,-365.5"/>
<polyline fill="none" stroke="black" points="128.5,-365.5 235.5,-365.5 "/>
<path fill="none" stroke="black" d="M235.5,-365.5C241.5,-365.5 247.5,-371.5 247.5,-377.5"/>
<polyline fill="none" stroke="black" points="247.5,-377.5 247.5,-426.5 "/>
<path fill="none" stroke="black" d="M247.5,-426.5C247.5,-432.5 241.5,-438.5 235.5,-438.5"/>
<polyline fill="none" stroke="black" points="235.5,-438.5 128.5,-438.5 "/>
<path fill="none" stroke="black" d="M128.5,-438.5C122.5,-438.5 116.5,-432.5 116.5,-426.5"/>
<polyline fill="none" stroke="black" points="116.5,-426.5 116.5,-377.5 "/>
<path fill="none" stroke="black" d="M116.5,-377.5C116.5,-371.5 122.5,-365.5 128.5,-365.5"/>
<text text-anchor="middle" x="182" y="-421.9" font-family="Helvetica,sans-Serif" font-size="14.00">Talento_humano</text>
<text text-anchor="middle" x="182" y="-402.9" font-family="Helvetica,sans-Serif" font-size="14.00">Planilla vacaciones</text>
<polyline fill="none" stroke="black" points="116.5,-392.5 247.5,-392.5 "/>
<text text-anchor="middle" x="182" y="-375.9" font-family="Helvetica,sans-Serif" font-size="14.00">or</text>
</g>
<!-- Talento_humano&#45;&gt;DireccionEjecutiva -->
<g id="edge8" class="edge"><title>Talento_humano&#45;&gt;DireccionEjecutiva</title>
<path fill="none" stroke="black" d="M164.478,-365.433C160.19,-356.483 155.631,-346.97 151.448,-338.239"/>
<polygon fill="black" stroke="black" points="154.564,-336.642 147.086,-329.137 148.251,-339.667 154.564,-336.642"/>
</g>
<!-- Talento_humano&#45;&gt;Presidencia -->
<g id="edge10" class="edge"><title>Talento_humano&#45;&gt;Presidencia</title>
<path fill="none" stroke="black" d="M198.49,-365.2C202.795,-353.827 206.833,-341.104 209,-329 212.602,-308.875 212.602,-303.125 209,-283 207.426,-274.206 204.864,-265.084 201.929,-256.392"/>
<polygon fill="black" stroke="black" points="205.16,-255.032 198.49,-246.8 198.57,-257.395 205.16,-255.032"/>
</g>
<!-- inicial -->
<g id="node11" class="node"><title>inicial</title>
<ellipse fill="#ffffff" stroke="black" cx="182" cy="-498" rx="38.9134" ry="18"/>
<ellipse fill="none" stroke="black" cx="182" cy="-498" rx="38.9134" ry="18"/>
<text text-anchor="middle" x="182" y="-493.9" font-family="Times Roman,serif" font-size="14.00">inicial</text>
</g>
<!-- inicial&#45;&gt;Talento_humano -->
<g id="edge12" class="edge"><title>inicial&#45;&gt;Talento_humano</title>
<path fill="none" stroke="black" d="M182,-479.943C182,-471.044 182,-459.859 182,-448.762"/>
<polygon fill="black" stroke="black" points="185.5,-448.664 182,-438.664 178.5,-448.664 185.5,-448.664"/>
</g>
<!-- final_stats -->
<g id="node13" class="node"><title>final_stats</title>
<polygon fill="none" stroke="black" stroke-dasharray="5,2" points="68,-135 3.55271e-14,-135 0,-93 68,-93 68,-135"/>
<text text-anchor="start" x="8" y="-120.733" font-family="Times Roman,serif" font-size="14.00">Total: 0</text>
<text text-anchor="start" x="29" y="-103.933" font-family="Times Roman,serif" font-size="14.00"> &#160;</text>
</g>
<!-- final_stats&#45;&gt;final -->
<g id="edge14" class="edge"><title>final_stats&#45;&gt;final</title>
<path fill="none" stroke="black" stroke-dasharray="1,5" d="M50.423,-92.6945C61.7759,-77.9664 76.9186,-58.3218 88.8253,-42.8753"/>
<polygon fill="black" stroke="black" points="91.7295,-44.8406 95.0626,-34.7837 86.1854,-40.567 91.7295,-44.8406"/>
</g>
</g>
</svg>
