<?xml version="1.0" encoding="UTF-8" standalone="no"?>
<!DOCTYPE svg PUBLIC "-//W3C//DTD SVG 1.1//EN"
 "http://www.w3.org/Graphics/SVG/1.1/DTD/svg11.dtd">
<!-- Generated by graphviz version 2.26.3 (20100126.1600)
 -->
<!-- Title: G Pages: 1 -->
<svg width="724pt" height="736pt"
 viewBox="0.00 0.00 724.00 736.00" xmlns="http://www.w3.org/2000/svg" xmlns:xlink="http://www.w3.org/1999/xlink">
<g id="graph1" class="graph" transform="scale(1 1) rotate(0) translate(4 732)">
<title>G</title>
<polygon fill="white" stroke="white" points="-4,5 -4,-732 721,-732 721,5 -4,5"/>
<!-- Archivar_solicitud_procesada -->
<g id="node1" class="node"><title>Archivar_solicitud_procesada</title>
<polygon fill="#ffff80" stroke="black" points="192,-153 7.10543e-14,-153 0,-107 192,-107 192,-153"/>
<polygon fill="none" stroke="black" points="192,-153 7.10543e-14,-153 0,-107 192,-107 192,-153"/>
<text text-anchor="middle" x="96" y="-136.4" font-family="Helvetica,sans-Serif" font-size="14.00">Archivar_solicitud_procesada</text>
<text text-anchor="middle" x="96" y="-117.4" font-family="Helvetica,sans-Serif" font-size="14.00">solicitud_archivada</text>
</g>
<!-- final -->
<g id="node3" class="node"><title>final</title>
<ellipse fill="#ffffff" stroke="black" cx="427" cy="-18" rx="31.9646" ry="18"/>
<ellipse fill="none" stroke="black" cx="427" cy="-18" rx="31.9646" ry="18"/>
<text text-anchor="middle" x="427" y="-13.9" font-family="Times Roman,serif" font-size="14.00">final</text>
</g>
<!-- Archivar_solicitud_procesada&#45;&gt;final -->
<g id="edge2" class="edge"><title>Archivar_solicitud_procesada&#45;&gt;final</title>
<path fill="none" stroke="black" d="M164.182,-106.929C232.596,-83.7803 335.42,-48.9878 389.958,-30.5337"/>
<polygon fill="black" stroke="black" points="391.21,-33.8052 399.561,-27.2846 388.966,-27.1745 391.21,-33.8052"/>
</g>
<!-- DireccionEjecutiva -->
<g id="node4" class="node"><title>DireccionEjecutiva</title>
<polygon fill="#ffff99" stroke="black" points="322,-377 156,-377 156,-331 322,-331 322,-377"/>
<polygon fill="none" stroke="black" points="322,-377 156,-377 156,-331 322,-331 322,-377"/>
<text text-anchor="middle" x="239" y="-360.4" font-family="Helvetica,sans-Serif" font-size="14.00">DireccionEjecutiva</text>
<text text-anchor="middle" x="239" y="-341.4" font-family="Helvetica,sans-Serif" font-size="14.00">Planilla vista_vacaciones</text>
</g>
<!-- Presidencia -->
<g id="node6" class="node"><title>Presidencia</title>
<polygon fill="#ffff99" stroke="#ffff99" points="274.5,-205.5 425.5,-205.5 437.5,-217.5 437.5,-266.5 425.5,-278.5 274.5,-278.5 262.5,-266.5 262.5,-217.5 274.5,-205.5"/>
<path fill="#ffff99" stroke="#ffff99" d="M425.5,-205.5C431.5,-205.5 437.5,-211.5 437.5,-217.5"/>
<path fill="#ffff99" stroke="#ffff99" d="M437.5,-266.5C437.5,-272.5 431.5,-278.5 425.5,-278.5"/>
<path fill="#ffff99" stroke="#ffff99" d="M274.5,-278.5C268.5,-278.5 262.5,-272.5 262.5,-266.5"/>
<path fill="#ffff99" stroke="#ffff99" d="M262.5,-217.5C262.5,-211.5 268.5,-205.5 274.5,-205.5"/>
<polyline fill="none" stroke="black" points="274.5,-205.5 425.5,-205.5 "/>
<path fill="none" stroke="black" d="M425.5,-205.5C431.5,-205.5 437.5,-211.5 437.5,-217.5"/>
<polyline fill="none" stroke="black" points="437.5,-217.5 437.5,-266.5 "/>
<path fill="none" stroke="black" d="M437.5,-266.5C437.5,-272.5 431.5,-278.5 425.5,-278.5"/>
<polyline fill="none" stroke="black" points="425.5,-278.5 274.5,-278.5 "/>
<path fill="none" stroke="black" d="M274.5,-278.5C268.5,-278.5 262.5,-272.5 262.5,-266.5"/>
<polyline fill="none" stroke="black" points="262.5,-266.5 262.5,-217.5 "/>
<path fill="none" stroke="black" d="M262.5,-217.5C262.5,-211.5 268.5,-205.5 274.5,-205.5"/>
<text text-anchor="middle" x="350" y="-261.9" font-family="Helvetica,sans-Serif" font-size="14.00">Presidencia</text>
<text text-anchor="middle" x="350" y="-242.9" font-family="Helvetica,sans-Serif" font-size="14.00">Aprobacion del Presidente</text>
<polyline fill="none" stroke="black" points="262.5,-232.5 437.5,-232.5 "/>
<text text-anchor="middle" x="350" y="-215.9" font-family="Helvetica,sans-Serif" font-size="14.00">or</text>
</g>
<!-- DireccionEjecutiva&#45;&gt;Presidencia -->
<g id="edge4" class="edge"><title>DireccionEjecutiva&#45;&gt;Presidencia</title>
<path fill="none" stroke="black" d="M261.999,-330.794C274.769,-317.909 291.083,-301.448 306.187,-286.208"/>
<polygon fill="black" stroke="black" points="308.931,-288.412 313.484,-278.845 303.959,-283.484 308.931,-288.412"/>
</g>
<!-- Presidencia&#45;&gt;Archivar_solicitud_procesada -->
<g id="edge18" class="edge"><title>Presidencia&#45;&gt;Archivar_solicitud_procesada</title>
<path fill="none" stroke="black" d="M267.182,-205.482C231.606,-189.795 190.746,-171.778 157.87,-157.281"/>
<polygon fill="black" stroke="black" points="158.942,-153.929 148.38,-153.097 156.118,-160.334 158.942,-153.929"/>
</g>
<!-- Firmada_direccion -->
<g id="node9" class="node"><title>Firmada_direccion</title>
<polygon fill="#ffffff" stroke="black" points="338,-153 210,-153 210,-107 338,-107 338,-153"/>
<polygon fill="none" stroke="black" points="338,-153 210,-153 210,-107 338,-107 338,-153"/>
<text text-anchor="middle" x="274" y="-136.4" font-family="Helvetica,sans-Serif" font-size="14.00">Firmada_direccion</text>
<text text-anchor="middle" x="274" y="-117.4" font-family="Helvetica,sans-Serif" font-size="14.00">firmada_YV</text>
</g>
<!-- Presidencia&#45;&gt;Firmada_direccion -->
<g id="edge22" class="edge"><title>Presidencia&#45;&gt;Firmada_direccion</title>
<path fill="none" stroke="black" d="M325.115,-205.327C315.527,-191.197 304.669,-175.196 295.434,-161.587"/>
<polygon fill="black" stroke="black" points="298.14,-159.342 289.629,-153.033 292.348,-163.273 298.14,-159.342"/>
</g>
<!-- Firmada_presidencia -->
<g id="node11" class="node"><title>Firmada_presidencia</title>
<polygon fill="#ffffff" stroke="black" points="498,-153 356,-153 356,-107 498,-107 498,-153"/>
<polygon fill="none" stroke="black" points="498,-153 356,-153 356,-107 498,-107 498,-153"/>
<text text-anchor="middle" x="427" y="-136.4" font-family="Helvetica,sans-Serif" font-size="14.00">Firmada_presidencia</text>
<text text-anchor="middle" x="427" y="-117.4" font-family="Helvetica,sans-Serif" font-size="14.00">firmada_JJ</text>
</g>
<!-- Presidencia&#45;&gt;Firmada_presidencia -->
<g id="edge24" class="edge"><title>Presidencia&#45;&gt;Firmada_presidencia</title>
<path fill="none" stroke="black" d="M375.213,-205.327C384.927,-191.197 395.928,-175.196 405.284,-161.587"/>
<polygon fill="black" stroke="black" points="408.384,-163.256 411.165,-153.033 402.616,-159.29 408.384,-163.256"/>
</g>
<!-- Firmada_talento -->
<g id="node13" class="node"><title>Firmada_talento</title>
<polygon fill="#ffffff" stroke="black" points="630,-153 516,-153 516,-107 630,-107 630,-153"/>
<polygon fill="none" stroke="black" points="630,-153 516,-153 516,-107 630,-107 630,-153"/>
<text text-anchor="middle" x="573" y="-136.4" font-family="Helvetica,sans-Serif" font-size="14.00">Firmada_talento</text>
<text text-anchor="middle" x="573" y="-117.4" font-family="Helvetica,sans-Serif" font-size="14.00">firmada_EE</text>
</g>
<!-- Presidencia&#45;&gt;Firmada_talento -->
<g id="edge20" class="edge"><title>Presidencia&#45;&gt;Firmada_talento</title>
<path fill="none" stroke="black" d="M422.71,-205.482C453.676,-189.93 489.202,-172.087 517.937,-157.655"/>
<polygon fill="black" stroke="black" points="519.648,-160.713 527.013,-153.097 516.506,-154.457 519.648,-160.713"/>
</g>
<!-- DireccionEjecutiva_stats -->
<g id="node7" class="node"><title>DireccionEjecutiva_stats</title>
<polygon fill="none" stroke="black" stroke-dasharray="5,2" points="249,-504 7,-504 7,-428 249,-428 249,-504"/>
<text text-anchor="start" x="104" y="-489.733" font-family="Times Roman,serif" font-size="14.00">vbravo</text>
<text text-anchor="start" x="54" y="-472.933" font-family="Times Roman,serif" font-size="14.00">17/06/2016 08:46am</text>
<text text-anchor="start" x="15" y="-456.133" font-family="Times Roman,serif" font-size="14.00">hace 2 horas y 59 minutos &#160;llego</text>
<text text-anchor="start" x="21" y="-439.333" font-family="Times Roman,serif" font-size="14.00">dos &#160;dias y 20 horas &#160;en espera</text>
</g>
<!-- DireccionEjecutiva_stats&#45;&gt;DireccionEjecutiva -->
<g id="edge6" class="edge"><title>DireccionEjecutiva_stats&#45;&gt;DireccionEjecutiva</title>
<path fill="none" stroke="black" stroke-dasharray="1,5" d="M165.889,-427.769C179.985,-413.547 195.772,-397.618 209.058,-384.212"/>
<polygon fill="black" stroke="black" points="211.602,-386.617 216.155,-377.051 206.63,-381.69 211.602,-386.617"/>
</g>
<!-- Firmada_direccion&#45;&gt;final -->
<g id="edge8" class="edge"><title>Firmada_direccion&#45;&gt;final</title>
<path fill="none" stroke="black" d="M305.702,-106.794C333.225,-86.6455 372.695,-57.753 399.054,-38.457"/>
<polygon fill="black" stroke="black" points="401.453,-41.0385 407.455,-32.3075 397.318,-35.3902 401.453,-41.0385"/>
</g>
<!-- Firmada_presidencia&#45;&gt;final -->
<g id="edge10" class="edge"><title>Firmada_presidencia&#45;&gt;final</title>
<path fill="none" stroke="black" d="M427,-106.794C427,-89.1434 427,-64.7825 427,-46.0412"/>
<polygon fill="black" stroke="black" points="430.5,-46.018 427,-36.0181 423.5,-46.0181 430.5,-46.018"/>
</g>
<!-- Firmada_talento&#45;&gt;final -->
<g id="edge12" class="edge"><title>Firmada_talento&#45;&gt;final</title>
<path fill="none" stroke="black" d="M542.749,-106.794C516.634,-86.7606 479.251,-58.0829 454.1,-38.7887"/>
<polygon fill="black" stroke="black" points="456.138,-35.9409 446.073,-32.6313 451.877,-41.4949 456.138,-35.9409"/>
</g>
<!-- Por_usuario -->
<g id="node15" class="node"><title>Por_usuario</title>
<polygon fill="#ffff99" stroke="black" points="305,-601 217,-601 217,-555 305,-555 305,-601"/>
<polygon fill="none" stroke="black" points="305,-601 217,-601 217,-555 305,-555 305,-601"/>
<text text-anchor="middle" x="261" y="-584.4" font-family="Helvetica,sans-Serif" font-size="14.00">Por_usuario</text>
<text text-anchor="middle" x="261" y="-565.4" font-family="Helvetica,sans-Serif" font-size="14.00">todas</text>
</g>
<!-- Talento_humano -->
<g id="node17" class="node"><title>Talento_humano</title>
<polygon fill="#ffff99" stroke="black" points="433,-489 267,-489 267,-443 433,-443 433,-489"/>
<polygon fill="none" stroke="black" points="433,-489 267,-489 267,-443 433,-443 433,-489"/>
<text text-anchor="middle" x="350" y="-472.4" font-family="Helvetica,sans-Serif" font-size="14.00">Talento_humano</text>
<text text-anchor="middle" x="350" y="-453.4" font-family="Helvetica,sans-Serif" font-size="14.00">Planilla vista_vacaciones</text>
</g>
<!-- Por_usuario&#45;&gt;Talento_humano -->
<g id="edge14" class="edge"><title>Por_usuario&#45;&gt;Talento_humano</title>
<path fill="none" stroke="black" d="M279.441,-554.794C292.687,-538.124 310.689,-515.47 325.194,-497.217"/>
<polygon fill="black" stroke="black" points="328.102,-499.183 331.583,-489.177 322.621,-494.828 328.102,-499.183"/>
</g>
<!-- Talento_humano&#45;&gt;DireccionEjecutiva -->
<g id="edge28" class="edge"><title>Talento_humano&#45;&gt;DireccionEjecutiva</title>
<path fill="none" stroke="black" d="M327.001,-442.794C310.332,-425.974 287.623,-403.061 269.45,-384.724"/>
<polygon fill="black" stroke="black" points="271.495,-381.816 261.97,-377.177 266.523,-386.743 271.495,-381.816"/>
</g>
<!-- Por_usuario_stats -->
<g id="node18" class="node"><title>Por_usuario_stats</title>
<polygon fill="none" stroke="black" stroke-dasharray="5,2" points="291,-728 59,-728 59,-652 291,-652 291,-728"/>
<text text-anchor="start" x="151" y="-713.733" font-family="Times Roman,serif" font-size="14.00">vbravo</text>
<text text-anchor="start" x="101" y="-696.933" font-family="Times Roman,serif" font-size="14.00">14/06/2016 12:04pm</text>
<text text-anchor="start" x="67" y="-680.133" font-family="Times Roman,serif" font-size="14.00">hace dos &#160;dias y 23 horas &#160;llego</text>
<text text-anchor="start" x="162.5" y="-663.333" font-family="Times Roman,serif" font-size="14.00">N/A</text>
</g>
<!-- Por_usuario_stats&#45;&gt;Por_usuario -->
<g id="edge16" class="edge"><title>Por_usuario_stats&#45;&gt;Por_usuario</title>
<path fill="none" stroke="black" stroke-dasharray="1,5" d="M204.356,-651.769C214.973,-637.942 226.829,-622.502 236.939,-609.335"/>
<polygon fill="black" stroke="black" points="239.986,-611.114 243.3,-601.051 234.434,-606.85 239.986,-611.114"/>
</g>
<!-- Presidencia_stats -->
<g id="node24" class="node"><title>Presidencia_stats</title>
<polygon fill="none" stroke="black" stroke-dasharray="5,2" points="582,-392 340,-392 340,-316 582,-316 582,-392"/>
<text text-anchor="start" x="437" y="-377.733" font-family="Times Roman,serif" font-size="14.00">vbravo</text>
<text text-anchor="start" x="387" y="-360.933" font-family="Times Roman,serif" font-size="14.00">17/06/2016 08:47am</text>
<text text-anchor="start" x="348" y="-344.133" font-family="Times Roman,serif" font-size="14.00">hace 2 horas y 58 minutos &#160;llego</text>
<text text-anchor="start" x="387" y="-327.333" font-family="Times Roman,serif" font-size="14.00">un minuto &#160;en espera</text>
</g>
<!-- Presidencia_stats&#45;&gt;Presidencia -->
<g id="edge26" class="edge"><title>Presidencia_stats&#45;&gt;Presidencia</title>
<path fill="none" stroke="black" stroke-dasharray="1,5" d="M423.111,-315.769C413.508,-306.08 403.122,-295.6 393.275,-285.665"/>
<polygon fill="black" stroke="black" points="395.745,-283.185 386.22,-278.546 390.773,-288.112 395.745,-283.185"/>
</g>
<!-- Talento_humano_stats -->
<g id="node27" class="node"><title>Talento_humano_stats</title>
<polygon fill="none" stroke="black" stroke-dasharray="5,2" points="555,-616 323,-616 323,-540 555,-540 555,-616"/>
<text text-anchor="start" x="415" y="-601.733" font-family="Times Roman,serif" font-size="14.00">vbravo</text>
<text text-anchor="start" x="365" y="-584.933" font-family="Times Roman,serif" font-size="14.00">14/06/2016 12:06pm</text>
<text text-anchor="start" x="331" y="-568.133" font-family="Times Roman,serif" font-size="14.00">hace dos &#160;dias y 23 horas &#160;llego</text>
<text text-anchor="start" x="366" y="-551.333" font-family="Times Roman,serif" font-size="14.00">2 minutos &#160;en espera</text>
</g>
<!-- Talento_humano_stats&#45;&gt;Talento_humano -->
<g id="edge30" class="edge"><title>Talento_humano_stats&#45;&gt;Talento_humano</title>
<path fill="none" stroke="black" stroke-dasharray="1,5" d="M408.62,-539.769C397.528,-525.81 385.129,-510.207 374.602,-496.959"/>
<polygon fill="black" stroke="black" points="377.279,-494.702 368.317,-489.051 371.798,-499.057 377.279,-494.702"/>
</g>
<!-- inicial -->
<g id="node29" class="node"><title>inicial</title>
<ellipse fill="#ffffff" stroke="black" cx="348" cy="-690" rx="38.9134" ry="18"/>
<ellipse fill="none" stroke="black" cx="348" cy="-690" rx="38.9134" ry="18"/>
<text text-anchor="middle" x="348" y="-685.9" font-family="Times Roman,serif" font-size="14.00">inicial</text>
</g>
<!-- inicial&#45;&gt;Por_usuario -->
<g id="edge32" class="edge"><title>inicial&#45;&gt;Por_usuario</title>
<path fill="none" stroke="black" d="M334.787,-672.99C321.668,-656.101 301.254,-629.821 285.22,-609.18"/>
<polygon fill="black" stroke="black" points="287.772,-606.759 278.873,-601.009 282.244,-611.054 287.772,-606.759"/>
</g>
<!-- final_stats -->
<g id="node31" class="node"><title>final_stats</title>
<polygon fill="none" stroke="black" stroke-dasharray="5,2" points="716,-151 648,-151 648,-109 716,-109 716,-151"/>
<text text-anchor="start" x="656" y="-136.733" font-family="Times Roman,serif" font-size="14.00">Total: 0</text>
<text text-anchor="start" x="677" y="-119.933" font-family="Times Roman,serif" font-size="14.00"> &#160;</text>
</g>
<!-- final_stats&#45;&gt;final -->
<g id="edge34" class="edge"><title>final_stats&#45;&gt;final</title>
<path fill="none" stroke="black" stroke-dasharray="1,5" d="M647.88,-111.378C644.895,-109.862 641.905,-108.383 639,-107 578.145,-78.029 505.341,-48.5574 462.823,-31.8486"/>
<polygon fill="black" stroke="black" points="464.046,-28.5689 453.458,-28.1826 461.494,-35.0872 464.046,-28.5689"/>
</g>
</g>
</svg>
