<?xml version="1.0" encoding="UTF-8" standalone="no"?>
<!DOCTYPE svg PUBLIC "-//W3C//DTD SVG 1.1//EN"
 "http://www.w3.org/Graphics/SVG/1.1/DTD/svg11.dtd">
<!-- Generated by graphviz version 2.26.3 (20100126.1600)
 -->
<!-- Title: G Pages: 1 -->
<svg width="724pt" height="736pt"
 viewBox="0.00 0.00 724.00 736.00" xmlns="http://www.w3.org/2000/svg" xmlns:xlink="http://www.w3.org/1999/xlink">
<g id="graph1" class="graph" transform="scale(1 1) rotate(0) translate(4 732)">
<title>G</title>
<polygon fill="white" stroke="white" points="-4,5 -4,-732 721,-732 721,5 -4,5"/>
<!-- Archivar_solicitud_procesada -->
<g id="node1" class="node"><title>Archivar_solicitud_procesada</title>
<polygon fill="#ffffff" stroke="black" points="192,-153 7.10543e-14,-153 0,-107 192,-107 192,-153"/>
<polygon fill="none" stroke="black" points="192,-153 7.10543e-14,-153 0,-107 192,-107 192,-153"/>
<text text-anchor="middle" x="96" y="-136.4" font-family="Helvetica,sans-Serif" font-size="14.00">Archivar_solicitud_procesada</text>
<text text-anchor="middle" x="96" y="-117.4" font-family="Helvetica,sans-Serif" font-size="14.00">solicitud_archivada</text>
</g>
<!-- final -->
<g id="node3" class="node"><title>final</title>
<ellipse fill="#ffffff" stroke="black" cx="427" cy="-18" rx="31.9646" ry="18"/>
<ellipse fill="none" stroke="black" cx="427" cy="-18" rx="31.9646" ry="18"/>
<text text-anchor="middle" x="427" y="-13.9" font-family="Times Roman,serif" font-size="14.00">final</text>
</g>
<!-- Archivar_solicitud_procesada&#45;&gt;final -->
<g id="edge2" class="edge"><title>Archivar_solicitud_procesada&#45;&gt;final</title>
<path fill="none" stroke="black" d="M164.182,-106.929C232.596,-83.7803 335.42,-48.9878 389.958,-30.5337"/>
<polygon fill="black" stroke="black" points="391.21,-33.8052 399.561,-27.2846 388.966,-27.1745 391.21,-33.8052"/>
</g>
<!-- DireccionEjecutiva -->
<g id="node4" class="node"><title>DireccionEjecutiva</title>
<polygon fill="#ffff80" stroke="black" points="433,-377 267,-377 267,-331 433,-331 433,-377"/>
<polygon fill="none" stroke="black" points="433,-377 267,-377 267,-331 433,-331 433,-377"/>
<text text-anchor="middle" x="350" y="-360.4" font-family="Helvetica,sans-Serif" font-size="14.00">DireccionEjecutiva</text>
<text text-anchor="middle" x="350" y="-341.4" font-family="Helvetica,sans-Serif" font-size="14.00">Planilla vista_vacaciones</text>
</g>
<!-- Presidencia -->
<g id="node6" class="node"><title>Presidencia</title>
<polygon fill="#ffffff" stroke="#ffffff" points="274.5,-205.5 425.5,-205.5 437.5,-217.5 437.5,-266.5 425.5,-278.5 274.5,-278.5 262.5,-266.5 262.5,-217.5 274.5,-205.5"/>
<path fill="#ffffff" stroke="#ffffff" d="M425.5,-205.5C431.5,-205.5 437.5,-211.5 437.5,-217.5"/>
<path fill="#ffffff" stroke="#ffffff" d="M437.5,-266.5C437.5,-272.5 431.5,-278.5 425.5,-278.5"/>
<path fill="#ffffff" stroke="#ffffff" d="M274.5,-278.5C268.5,-278.5 262.5,-272.5 262.5,-266.5"/>
<path fill="#ffffff" stroke="#ffffff" d="M262.5,-217.5C262.5,-211.5 268.5,-205.5 274.5,-205.5"/>
<polyline fill="none" stroke="black" points="274.5,-205.5 425.5,-205.5 "/>
<path fill="none" stroke="black" d="M425.5,-205.5C431.5,-205.5 437.5,-211.5 437.5,-217.5"/>
<polyline fill="none" stroke="black" points="437.5,-217.5 437.5,-266.5 "/>
<path fill="none" stroke="black" d="M437.5,-266.5C437.5,-272.5 431.5,-278.5 425.5,-278.5"/>
<polyline fill="none" stroke="black" points="425.5,-278.5 274.5,-278.5 "/>
<path fill="none" stroke="black" d="M274.5,-278.5C268.5,-278.5 262.5,-272.5 262.5,-266.5"/>
<polyline fill="none" stroke="black" points="262.5,-266.5 262.5,-217.5 "/>
<path fill="none" stroke="black" d="M262.5,-217.5C262.5,-211.5 268.5,-205.5 274.5,-205.5"/>
<text text-anchor="middle" x="350" y="-261.9" font-family="Helvetica,sans-Serif" font-size="14.00">Presidencia</text>
<text text-anchor="middle" x="350" y="-242.9" font-family="Helvetica,sans-Serif" font-size="14.00">Aprobacion del Presidente</text>
<polyline fill="none" stroke="black" points="262.5,-232.5 437.5,-232.5 "/>
<text text-anchor="middle" x="350" y="-215.9" font-family="Helvetica,sans-Serif" font-size="14.00">or</text>
</g>
<!-- DireccionEjecutiva&#45;&gt;Presidencia -->
<g id="edge4" class="edge"><title>DireccionEjecutiva&#45;&gt;Presidencia</title>
<path fill="none" stroke="black" d="M350,-330.794C350,-318.729 350,-303.528 350,-289.131"/>
<polygon fill="black" stroke="black" points="353.5,-288.845 350,-278.845 346.5,-288.845 353.5,-288.845"/>
</g>
<!-- Presidencia&#45;&gt;Archivar_solicitud_procesada -->
<g id="edge16" class="edge"><title>Presidencia&#45;&gt;Archivar_solicitud_procesada</title>
<path fill="none" stroke="black" d="M267.182,-205.482C231.606,-189.795 190.746,-171.778 157.87,-157.281"/>
<polygon fill="black" stroke="black" points="158.942,-153.929 148.38,-153.097 156.118,-160.334 158.942,-153.929"/>
</g>
<!-- Firmada_direccion -->
<g id="node7" class="node"><title>Firmada_direccion</title>
<polygon fill="#ffffff" stroke="black" points="338,-153 210,-153 210,-107 338,-107 338,-153"/>
<polygon fill="none" stroke="black" points="338,-153 210,-153 210,-107 338,-107 338,-153"/>
<text text-anchor="middle" x="274" y="-136.4" font-family="Helvetica,sans-Serif" font-size="14.00">Firmada_direccion</text>
<text text-anchor="middle" x="274" y="-117.4" font-family="Helvetica,sans-Serif" font-size="14.00">firmada_YV</text>
</g>
<!-- Presidencia&#45;&gt;Firmada_direccion -->
<g id="edge20" class="edge"><title>Presidencia&#45;&gt;Firmada_direccion</title>
<path fill="none" stroke="black" d="M325.115,-205.327C315.527,-191.197 304.669,-175.196 295.434,-161.587"/>
<polygon fill="black" stroke="black" points="298.14,-159.342 289.629,-153.033 292.348,-163.273 298.14,-159.342"/>
</g>
<!-- Firmada_presidencia -->
<g id="node9" class="node"><title>Firmada_presidencia</title>
<polygon fill="#ffffff" stroke="black" points="498,-153 356,-153 356,-107 498,-107 498,-153"/>
<polygon fill="none" stroke="black" points="498,-153 356,-153 356,-107 498,-107 498,-153"/>
<text text-anchor="middle" x="427" y="-136.4" font-family="Helvetica,sans-Serif" font-size="14.00">Firmada_presidencia</text>
<text text-anchor="middle" x="427" y="-117.4" font-family="Helvetica,sans-Serif" font-size="14.00">firmada_JJ</text>
</g>
<!-- Presidencia&#45;&gt;Firmada_presidencia -->
<g id="edge22" class="edge"><title>Presidencia&#45;&gt;Firmada_presidencia</title>
<path fill="none" stroke="black" d="M375.213,-205.327C384.927,-191.197 395.928,-175.196 405.284,-161.587"/>
<polygon fill="black" stroke="black" points="408.384,-163.256 411.165,-153.033 402.616,-159.29 408.384,-163.256"/>
</g>
<!-- Firmada_talento -->
<g id="node11" class="node"><title>Firmada_talento</title>
<polygon fill="#ffffff" stroke="black" points="630,-153 516,-153 516,-107 630,-107 630,-153"/>
<polygon fill="none" stroke="black" points="630,-153 516,-153 516,-107 630,-107 630,-153"/>
<text text-anchor="middle" x="573" y="-136.4" font-family="Helvetica,sans-Serif" font-size="14.00">Firmada_talento</text>
<text text-anchor="middle" x="573" y="-117.4" font-family="Helvetica,sans-Serif" font-size="14.00">firmada_EE</text>
</g>
<!-- Presidencia&#45;&gt;Firmada_talento -->
<g id="edge18" class="edge"><title>Presidencia&#45;&gt;Firmada_talento</title>
<path fill="none" stroke="black" d="M422.71,-205.482C453.676,-189.93 489.202,-172.087 517.937,-157.655"/>
<polygon fill="black" stroke="black" points="519.648,-160.713 527.013,-153.097 516.506,-154.457 519.648,-160.713"/>
</g>
<!-- Firmada_direccion&#45;&gt;final -->
<g id="edge6" class="edge"><title>Firmada_direccion&#45;&gt;final</title>
<path fill="none" stroke="black" d="M305.702,-106.794C333.225,-86.6455 372.695,-57.753 399.054,-38.457"/>
<polygon fill="black" stroke="black" points="401.453,-41.0385 407.455,-32.3075 397.318,-35.3902 401.453,-41.0385"/>
</g>
<!-- Firmada_presidencia&#45;&gt;final -->
<g id="edge8" class="edge"><title>Firmada_presidencia&#45;&gt;final</title>
<path fill="none" stroke="black" d="M427,-106.794C427,-89.1434 427,-64.7825 427,-46.0412"/>
<polygon fill="black" stroke="black" points="430.5,-46.018 427,-36.0181 423.5,-46.0181 430.5,-46.018"/>
</g>
<!-- Firmada_talento&#45;&gt;final -->
<g id="edge10" class="edge"><title>Firmada_talento&#45;&gt;final</title>
<path fill="none" stroke="black" d="M542.749,-106.794C516.634,-86.7606 479.251,-58.0829 454.1,-38.7887"/>
<polygon fill="black" stroke="black" points="456.138,-35.9409 446.073,-32.6313 451.877,-41.4949 456.138,-35.9409"/>
</g>
<!-- Por_usuario -->
<g id="node13" class="node"><title>Por_usuario</title>
<polygon fill="#ffff99" stroke="black" points="322,-601 234,-601 234,-555 322,-555 322,-601"/>
<polygon fill="none" stroke="black" points="322,-601 234,-601 234,-555 322,-555 322,-601"/>
<text text-anchor="middle" x="278" y="-584.4" font-family="Helvetica,sans-Serif" font-size="14.00">Por_usuario</text>
<text text-anchor="middle" x="278" y="-565.4" font-family="Helvetica,sans-Serif" font-size="14.00">todas</text>
</g>
<!-- Talento_humano -->
<g id="node15" class="node"><title>Talento_humano</title>
<polygon fill="#ffff99" stroke="black" points="433,-489 267,-489 267,-443 433,-443 433,-489"/>
<polygon fill="none" stroke="black" points="433,-489 267,-489 267,-443 433,-443 433,-489"/>
<text text-anchor="middle" x="350" y="-472.4" font-family="Helvetica,sans-Serif" font-size="14.00">Talento_humano</text>
<text text-anchor="middle" x="350" y="-453.4" font-family="Helvetica,sans-Serif" font-size="14.00">Planilla vista_vacaciones</text>
</g>
<!-- Por_usuario&#45;&gt;Talento_humano -->
<g id="edge12" class="edge"><title>Por_usuario&#45;&gt;Talento_humano</title>
<path fill="none" stroke="black" d="M292.918,-554.794C303.538,-538.275 317.936,-515.878 329.614,-497.711"/>
<polygon fill="black" stroke="black" points="332.637,-499.481 335.101,-489.177 326.749,-495.696 332.637,-499.481"/>
</g>
<!-- Talento_humano&#45;&gt;DireccionEjecutiva -->
<g id="edge24" class="edge"><title>Talento_humano&#45;&gt;DireccionEjecutiva</title>
<path fill="none" stroke="black" d="M350,-442.794C350,-426.725 350,-405.095 350,-387.207"/>
<polygon fill="black" stroke="black" points="353.5,-387.177 350,-377.177 346.5,-387.177 353.5,-387.177"/>
</g>
<!-- Por_usuario_stats -->
<g id="node16" class="node"><title>Por_usuario_stats</title>
<polygon fill="none" stroke="black" stroke-dasharray="5,2" points="291,-728 127,-728 127,-652 291,-652 291,-728"/>
<text text-anchor="start" x="185" y="-713.733" font-family="Times Roman,serif" font-size="14.00">vbravo</text>
<text text-anchor="start" x="135" y="-696.933" font-family="Times Roman,serif" font-size="14.00">14/06/2016 12:04pm</text>
<text text-anchor="start" x="135" y="-680.133" font-family="Times Roman,serif" font-size="14.00">hace 3 minutos &#160;llego</text>
<text text-anchor="start" x="196.5" y="-663.333" font-family="Times Roman,serif" font-size="14.00">N/A</text>
</g>
<!-- Por_usuario_stats&#45;&gt;Por_usuario -->
<g id="edge14" class="edge"><title>Por_usuario_stats&#45;&gt;Por_usuario</title>
<path fill="none" stroke="black" stroke-dasharray="1,5" d="M232.553,-651.769C240.991,-638.073 250.403,-622.795 258.463,-609.712"/>
<polygon fill="black" stroke="black" points="261.534,-611.4 263.799,-601.051 255.574,-607.729 261.534,-611.4"/>
</g>
<!-- Talento_humano_stats -->
<g id="node23" class="node"><title>Talento_humano_stats</title>
<polygon fill="none" stroke="black" stroke-dasharray="5,2" points="506,-616 340,-616 340,-540 506,-540 506,-616"/>
<text text-anchor="start" x="399" y="-601.733" font-family="Times Roman,serif" font-size="14.00">vbravo</text>
<text text-anchor="start" x="349" y="-584.933" font-family="Times Roman,serif" font-size="14.00">14/06/2016 12:06pm</text>
<text text-anchor="start" x="348" y="-568.133" font-family="Times Roman,serif" font-size="14.00">hace un minuto &#160;llego</text>
<text text-anchor="start" x="350" y="-551.333" font-family="Times Roman,serif" font-size="14.00">2 minutos &#160;en espera</text>
</g>
<!-- Talento_humano_stats&#45;&gt;Talento_humano -->
<g id="edge26" class="edge"><title>Talento_humano_stats&#45;&gt;Talento_humano</title>
<path fill="none" stroke="black" stroke-dasharray="1,5" d="M398.082,-539.769C389.155,-526.073 379.197,-510.795 370.669,-497.712"/>
<polygon fill="black" stroke="black" points="373.417,-495.517 365.024,-489.051 367.552,-499.339 373.417,-495.517"/>
</g>
<!-- inicial -->
<g id="node25" class="node"><title>inicial</title>
<ellipse fill="#ffffff" stroke="black" cx="348" cy="-690" rx="38.9134" ry="18"/>
<ellipse fill="none" stroke="black" cx="348" cy="-690" rx="38.9134" ry="18"/>
<text text-anchor="middle" x="348" y="-685.9" font-family="Times Roman,serif" font-size="14.00">inicial</text>
</g>
<!-- inicial&#45;&gt;Por_usuario -->
<g id="edge28" class="edge"><title>inicial&#45;&gt;Por_usuario</title>
<path fill="none" stroke="black" d="M337.062,-672.5C326.612,-655.779 310.614,-630.182 297.903,-609.844"/>
<polygon fill="black" stroke="black" points="300.772,-607.831 292.504,-601.206 294.836,-611.541 300.772,-607.831"/>
</g>
<!-- final_stats -->
<g id="node27" class="node"><title>final_stats</title>
<polygon fill="none" stroke="black" stroke-dasharray="5,2" points="716,-151 648,-151 648,-109 716,-109 716,-151"/>
<text text-anchor="start" x="656" y="-136.733" font-family="Times Roman,serif" font-size="14.00">Total: 0</text>
<text text-anchor="start" x="677" y="-119.933" font-family="Times Roman,serif" font-size="14.00"> &#160;</text>
</g>
<!-- final_stats&#45;&gt;final -->
<g id="edge30" class="edge"><title>final_stats&#45;&gt;final</title>
<path fill="none" stroke="black" stroke-dasharray="1,5" d="M647.88,-111.378C644.895,-109.862 641.905,-108.383 639,-107 578.145,-78.029 505.341,-48.5574 462.823,-31.8486"/>
<polygon fill="black" stroke="black" points="464.046,-28.5689 453.458,-28.1826 461.494,-35.0872 464.046,-28.5689"/>
</g>
</g>
</svg>
